<?xml version="1.0" standalone="no"?>
<!DOCTYPE svg PUBLIC "-//W3C//DTD SVG 1.1//EN" "http://www.w3.org/Graphics/SVG/1.1/DTD/svg11.dtd" >
<svg xmlns="http://www.w3.org/2000/svg" xmlns:xlink="http://www.w3.org/1999/xlink" version="1.1">
<metadata></metadata>
<defs>
<font id="cool_jazzregular" horiz-adv-x="1049" >
<font-face units-per-em="2048" ascent="1638" descent="-410" />
<missing-glyph horiz-adv-x="509" />
<glyph horiz-adv-x="0" />
<glyph horiz-adv-x="0" />
<glyph unicode="&#xd;" horiz-adv-x="532" />
<glyph horiz-adv-x="0" />
<glyph unicode="&#x9;" horiz-adv-x="0" />
<glyph unicode="&#xa;" horiz-adv-x="0" />
<glyph horiz-adv-x="0" />
<glyph unicode=" "  horiz-adv-x="509" />
<glyph unicode="&#x09;" horiz-adv-x="509" />
<glyph unicode="&#xa0;" horiz-adv-x="509" />
<glyph unicode="!" horiz-adv-x="814" d="M442 163q12 -18 17.5 -38.5t5.5 -40.5q0 -29 -8.5 -56.5t-22.5 -50t-31.5 -38t-35.5 -20.5q-16 -1 -26.5 -2t-18.5 -1q-18 0 -27 4t-27 14h1l-9 4.5t-10 5.5h1q-26 16 -36.5 43t-10.5 59t8 64.5t20 59.5t25.5 44.5t24.5 19.5q28 5 42 5q37 0 64.5 -19t53.5 -57zM634 1439 q-27 -51 -55 -142t-53 -207t-45 -249t-30 -268q1 -27 -5 -42t-16.5 -22.5t-25 -10t-29.5 -3.5q-4 -1 -8.5 -1t-8.5 -1q-8 -1 -15.5 -1.5t-14.5 -0.5q-35 0 -46.5 12.5t-11.5 32.5q0 8 1 18.5t3 21.5q2 10 2.5 21t1.5 22q0 11 2 45t6.5 83.5t10 110.5t13 127t16.5 133.5 t19 130t20.5 115.5t22.5 90q7 19 17 39.5t24 38t33 29t43 11.5q10 1 18 1.5t15 0.5q60 0 85.5 -23t25.5 -55q0 -14 -4 -28.5t-11 -28.5z" />
<glyph unicode="&#x22;" horiz-adv-x="1150" d="M876 1798q10 -3 13.5 -16.5t3.5 -33.5q0 -36 -11 -85.5t-26.5 -100t-33.5 -96.5t-32 -75q-13 -32 -28.5 -62.5t-31.5 -54.5t-32.5 -38.5t-31.5 -13.5q-18 0 -24.5 20.5t-6.5 50.5q0 28 4 61.5t8 64.5q2 11 3 21l2 20l40 182t40 181q24 -1 49 -5q21 -3 46.5 -8t48.5 -12z M498 1798q11 -3 15.5 -17.5t4.5 -36.5q0 -36 -11 -84.5t-26.5 -97.5t-33.5 -93t-32 -72q-12 -33 -27 -64.5t-32 -56.5t-34.5 -40t-33.5 -14q-19 0 -25 19t-6 48q0 26 3.5 57.5t7.5 61.5q2 14 4 27t4 25q21 91 43 182t43 181q19 -1 41 -4q19 -3 43.5 -8t51.5 -13z" />
<glyph unicode="#" horiz-adv-x="1385" d="M856 923l-254 -7l-61 -336q39 -2 73.5 -3.5t57.5 -1.5q45 0 125 3zM1209 954q-4 -1 -7 -2.5t-6 -2.5q-11 -3 -20.5 -5.5t-26.5 -4.5t-45 -4t-74 -3q-9 -44 -18 -90t-17 -91.5t-14.5 -90t-10.5 -83.5q30 3 69.5 6.5t70.5 5.5q89 0 138 -16.5t49 -37.5q0 -17 -31.5 -33 t-100.5 -29q-3 -1 -9.5 -2.5t-14.5 -5.5l1 1q-11 -3 -22 -5.5t-31 -4.5t-53 -4.5t-88 -5.5q-11 -64 -16 -110.5t-8 -83.5q-2 -30 -4 -56.5t-7 -51.5q-4 -39 -9.5 -69t-17.5 -50t-32.5 -28.5t-53.5 -5.5q-28 7 -41 47.5t-13 92.5q0 39 6 80l27 232q-22 -1 -47.5 -2.5 t-39.5 -2.5q-25 -2 -44.5 -2.5t-43.5 -0.5q-16 0 -40 0.5t-48 2.5q-30 -137 -45 -235t-16 -143q-4 -39 -9 -70t-16 -52t-31.5 -30.5t-54.5 -5.5q-17 1 -31 15t-23.5 36.5t-15 51.5t-5.5 60q0 12 1 24.5t3 25.5l49 317h-134q-22 0 -44 4.5t-40 13t-29 22t-11 31.5q0 23 20 53 q18 36 30 48.5t23 12.5q6 0 12.5 -2.5t14.5 -5.5l13.5 -4.5l13.5 -4.5q12 -3 20 -4q10 -2 16.5 -3t15.5 -2t23 -2t40 -2q6 0 19 -0.5t21 -0.5q3 35 9 75.5t13.5 83.5t16.5 86.5t18 84.5h-159q-18 -1 -35 -1t-31 4t-22.5 14t-8.5 28q0 25 10 55q26 39 41.5 53t29.5 14 q7 0 14 -2t15 -4q5 -2 10.5 -4t12.5 -4q17 -4 24.5 -5t11.5 -3q6 -2 13 -4t18.5 -4t29.5 -3.5t48 -3.5q15 91 31.5 174.5t34 153t35 121.5t32.5 80q7 3 19.5 6.5t26 5.5t27.5 2t24 -2l-1 1q60 -18 84.5 -35t24.5 -35q0 -14 -8 -27q-11 -20 -25.5 -61.5t-31 -99.5t-34.5 -130 t-36 -152q39 -2 72.5 -3.5t56.5 -1.5t54 1.5t70 3.5q14 71 32.5 134.5t41.5 121.5q8 3 22 6t29 4.5t30 2t26 -1.5l-2 1q42 -15 57 -28.5t15 -25.5q0 -9 -5 -20t-12 -22l-3 -6l-3 -6q-2 -9 -5.5 -18t-5.5 -17l1 1q-8 -28 -16 -55.5t-11 -64.5q29 1 65 2.5t65 2.5 q22 0 42.5 -3.5t36 -10t25 -15t9.5 -18.5q0 -13 -23.5 -28.5t-82.5 -29.5z" />
<glyph unicode="$" horiz-adv-x="1344" d="M737 1349q60 -19 117 -40.5t105 -42t85 -37.5t58 -27q13 -17 26 -38t23 -42t16 -41t6 -36q0 -13 -6 -21t-20 -8t-34.5 7.5t-50.5 22.5v-1q-26 15 -62 33t-78.5 38t-90.5 40.5t-98 40.5l-9 -393q75 -79 152.5 -159.5t152.5 -159.5l-1 1q35 -46 51 -96.5t16 -99.5 q0 -52 -17.5 -98.5t-49 -82t-76 -56.5t-98.5 -21q-30 0 -68 9t-84 29v-169q-2 -86 -23.5 -127.5t-46.5 -41.5q-26 0 -48 44.5t-22 132.5q-7 14 -8 76.5t-1 162.5q-74 36 -146.5 81t-155.5 107q-47 30 -67.5 60.5t-20.5 54.5q0 19 13 31t38 12q16 0 37.5 -6t44.5 -19 l257 -148v97t1 107t3 111.5t5 110.5l-230 235q-80 71 -115.5 142t-35.5 134q0 39 13.5 72t38.5 57t60 37.5t79 13.5q24 0 56.5 -5.5t70.5 -13.5q8 -2 19 -4t23 -4t23 -4.5t20 -4.5q-1 15 -2 36t-1 34q0 28 3 50.5t6 39.5q2 48 5.5 77.5t11 47t21 27.5t35.5 21q20 -2 33.5 -5 t23 -16.5t16 -41t14.5 -78.5zM706 239q35 -14 61.5 -21.5t46.5 -7.5q44 0 63.5 23.5t19.5 61.5q0 46 -30 105.5t-85 114.5l-62 63zM571 1249l-91 29q-9 2 -17 3t-16 1q-33 0 -59 -15t-26 -47q0 -22 17.5 -52t60.5 -69v1l127 -133zM1102 1202q-1 1 -1 2t-1 2l4 -4h-2z" />
<glyph unicode="%" horiz-adv-x="1982" d="M413 1194q-43 -34 -80.5 -69t-53.5 -69q-8 -18 -3.5 -40.5t18.5 -41.5t36.5 -32t51.5 -13q7 0 14.5 1t17.5 4l-1 -1q45 10 78 23.5t59 29.5t46.5 34.5t38.5 37.5v-1q17 16 15.5 34.5t-14 35.5t-31.5 30.5t-37 19.5h1q-34 15 -70 17.5t-78 2.5zM1437 474 q-63 -38 -103 -135q-9 -19 -0.5 -38.5t27.5 -35.5t45.5 -26t53.5 -10q11 0 20 1t19 5l-1 -1q27 7 58.5 21t61 30.5t54 34t37.5 30.5q13 24 13 41q0 19 -11 33t-29 24.5t-41 17t-47 10.5q-19 2 -38 3t-39 1t-38.5 -1t-35.5 -3zM1884 318q-15 -24 -47.5 -54t-79.5 -59 t-107.5 -54.5t-131.5 -40.5q-26 -7 -52.5 -10t-51.5 -3q-52 0 -99.5 12.5t-84 36.5t-58 58t-21.5 77q0 29 12 63t36 71l47 47q-43 19 -43 35q0 22 32 45.5t90 33.5l74 6q28 14 57.5 29.5t56.5 30.5l-3 -2q35 8 64 12t52 4q28 0 43.5 -4t15.5 -12q0 -6 -12 -19t-39 -33 q76 -16 126 -43t80 -58.5t42.5 -63.5t12.5 -58q0 -31 -11 -47zM784 1023q-31 -37 -66.5 -69.5t-79.5 -60t-98 -49.5t-122 -38q-22 -5 -42.5 -7.5t-39.5 -2.5q-47 0 -88 12t-71.5 34.5t-48 54t-17.5 70.5q0 34 15.5 74.5t48.5 84.5l46 45q-47 4 -69.5 14.5t-22.5 24.5 q0 22 33.5 47t100.5 40h-2l123 9q28 17 57.5 34t58.5 34q13 3 27.5 4.5t28.5 1.5q19 0 37.5 -2t32.5 -6.5t23 -10.5t9 -15q0 -5 -9.5 -15t-30.5 -28q57 -13 96.5 -32t64 -42t35 -48t10.5 -50q0 -31 -11.5 -59t-28.5 -49zM1623 1381q-35 -24 -84.5 -75t-109 -120.5 t-125.5 -153.5t-134 -175t-134.5 -184.5t-126 -182t-110 -167t-85.5 -140.5t-53 -102.5t-12 -51.5q31 -39 45 -65.5t14 -42.5q0 -12 -7.5 -19.5t-20 -11t-29.5 -4.5t-36 0q-6 0 -23.5 2t-40.5 7.5t-48 15t-46 25t-34.5 37t-13.5 51.5q0 27 13 63q8 21 38.5 71.5t77 121.5 t106 159.5t127 184.5t139.5 195.5t143 194t138.5 179.5t125 152t102.5 111.5t72 57.5q22 14 41 20t35 6q21 0 37.5 -8t28 -21t18 -29.5t6.5 -33.5q0 -19 -8 -37t-27 -31z" />
<glyph unicode="&#x26;" horiz-adv-x="1354" d="M719 1325q-30 18 -56.5 32t-52 25.5t-51.5 21t-56 17.5l1 -1q-33 10 -57 10q-39 0 -60.5 -20.5t-21.5 -61.5q0 -37 23.5 -96t71.5 -131q10 -15 19 -30t17 -29q11 -18 21 -35t22 -35t27 -38t35 -44l132 121q10 10 25 25.5t28.5 35.5t23 44t9.5 51q0 34 -21.5 69t-78.5 69z M797 371q-7 11 -20 30.5t-30.5 43.5t-37 51t-38.5 53q-46 62 -98 133q-18 -10 -40 -26.5t-46 -36.5t-48.5 -41.5t-46.5 -41.5q-32 -29 -58 -52.5t-34 -28.5q-29 -30 -42 -60t-13 -57q0 -29 14 -53.5t38 -42t56.5 -27.5t70.5 -10q39 0 82 11.5t86 37.5h-1zM1158 625 q14 0 28.5 -5t26 -15t19 -23.5t7.5 -30.5q0 -27 -21 -60t-75 -71l-110 -78q19 -29 47 -64t57.5 -69.5t56 -65t44.5 -48.5q43 -46 60.5 -83.5t17.5 -65.5q0 -35 -23 -53t-52 -18q-20 0 -41 9q-15 15 -38 40.5t-50 57t-56.5 67.5t-57.5 71.5t-53.5 68.5t-44.5 60 q-29 -18 -64.5 -39t-75 -43.5t-81 -44.5t-81.5 -41q-36 -20 -80 -28.5t-91 -8.5q-67 0 -133 18.5t-118.5 53t-85 84t-32.5 112.5q0 52 27.5 113.5t90.5 132.5l-2 -1l304 260q-17 24 -36 51t-33 47v-1q-33 47 -57.5 82.5t-44.5 66t-37.5 60t-36.5 65.5q-31 45 -44.5 89 t-13.5 86q0 50 18 93t49.5 74t75 46.5t93.5 10.5q74 -7 177 -40t221 -102q87 -51 141.5 -117t54.5 -145q0 -59 -35.5 -124.5t-115.5 -138.5h1l-154 -133q6 -9 19 -27.5t31 -42.5t39 -51.5t42 -54.5q49 -64 107 -139z" />
<glyph unicode="'" horiz-adv-x="638" d="M446 1798q8 -3 11.5 -16t3.5 -33q0 -37 -11 -88.5t-26.5 -104t-33 -100t-30.5 -76.5q-13 -31 -29 -62.5t-32.5 -57t-32 -41t-28.5 -13.5q-14 0 -23 9.5t-14.5 25t-7.5 36.5t-2 44q0 34 3.5 69t6.5 63q20 92 41 185.5t41 184.5q28 -1 56 -5q24 -3 52.5 -7.5t54.5 -12.5z " />
<glyph unicode="(" horiz-adv-x="896" d="M369 610q0 108 12.5 219t34 219t52 210t66 191.5t75.5 164t81 128.5q15 19 30.5 18.5t28 -12.5t20.5 -32.5t8 -40.5q0 -38 -15 -87t-46 -108q-22 -41 -43.5 -102.5t-42 -137t-38.5 -162t-31 -178t-20.5 -184.5t-7.5 -182q0 -98 15.5 -200.5t38 -207.5t48.5 -211.5 t47 -212.5q2 -11 7.5 -32.5t8 -44t-3 -39t-26.5 -16.5q-11 0 -26.5 9t-31 25.5t-30.5 40.5t-25 55q-35 106 -68 210t-59.5 214t-42.5 229.5t-16 256.5z" />
<glyph unicode=")" horiz-adv-x="896" d="M507 610q0 -137 -16 -256.5t-42.5 -229.5t-60 -214t-67.5 -210q-10 -31 -25 -55t-30.5 -40.5t-31 -25.5t-26.5 -9q-21 0 -26.5 16.5t-3 39t8 44t7.5 32.5q21 106 47 212.5t48.5 211.5t38 207.5t15.5 200.5q0 89 -7.5 182t-20.5 184.5t-31 178t-38.5 162t-42.5 137 t-43 102.5q-31 59 -46 108t-15 87q0 20 8 40.5t20.5 32.5t28 12.5t30.5 -18.5q41 -54 81 -128.5t75.5 -164t66 -191.5t52 -210t34 -219t12.5 -219z" />
<glyph unicode="*" horiz-adv-x="1143" d="M813 709q44 -83 61.5 -134.5t17.5 -80.5q0 -35 -22 -35q-13 0 -29.5 7.5t-33 20t-31 29.5t-23.5 36l-162 255q-18 -46 -37 -96.5t-39 -102.5t-39.5 -103.5t-37.5 -97.5q-18 -39 -38 -70.5t-39.5 -53.5t-37.5 -34t-31 -12q-12 0 -19.5 12.5t-7.5 38.5q0 24 7 57t23 76 l147 436l-191 -14q-18 -2 -33 -3t-29 -1q-41 0 -65 12t-24 41q0 8 1.5 19t5.5 23q3 29 9.5 45t17.5 23t26.5 8t35.5 0q7 0 14.5 -0.5t15.5 -0.5h241q-30 32 -55.5 70t-44.5 70q-12 19 -22 35.5t-16 24.5v-1q-42 66 -42 111q0 33 21.5 52.5t59.5 23.5q28 0 49.5 -13.5 t39 -34.5t32.5 -47.5t29 -54.5q11 -23 25 -47.5t37 -60.5l34 76.5t36.5 82.5t36.5 83t34 78q24 48 46.5 67t43.5 19q17 0 36.5 -9.5t34.5 -19.5q8 -6 17 -12q12 -5 12 -18q0 -23 -19 -64t-54 -108l1 1q-5 -8 -10 -18t-11 -21q-13 -23 -29 -52t-34.5 -60.5t-38.5 -63.5 t-40 -60q57 5 99 7.5t73 2.5q126 0 186.5 -18.5t60.5 -44.5q0 -16 -24 -33t-70.5 -31t-115.5 -24t-159 -12z" />
<glyph unicode="+" horiz-adv-x="1317" d="M752 817q-11 -45 -19 -94t-14.5 -98t-11.5 -95.5t-9 -85.5q-4 -37 -7.5 -74t-8.5 -60q-19 -89 -43.5 -133t-46.5 -44q-13 0 -25 13.5t-21 38t-14 59t-5 77.5q0 12 0.5 25.5t1.5 27.5l39 428q-38 -4 -79 -8t-82.5 -8l-83 -8t-78.5 -7q-8 0 -16 -0.5t-16 -0.5 q-32 -2 -49.5 3t-17.5 35q0 11 1.5 25.5t6.5 35.5l-1 -1q8 28 32 49.5t50 31.5q59 3 103 4t82 1q23 0 43.5 0.5t41.5 1.5t43.5 3.5t48.5 6.5q14 139 35.5 236t34.5 142h-1q9 31 21.5 51.5t26.5 32.5t29.5 16.5t31.5 4.5q8 0 20 -2t23 -4q17 -4 27.5 -13t10.5 -37 q0 -19 -5.5 -53t-16.5 -81l-66 -277l280 4q52 1 87.5 -3t58 -11t32.5 -16.5t10 -19.5q0 -13 -11.5 -27t-31 -26t-45 -21t-53.5 -13h1z" />
<glyph unicode="," horiz-adv-x="659" d="M421 53q-10 -43 -26.5 -87.5t-38.5 -86t-48 -76.5t-55 -59q-24 -23 -47 -34.5t-38 -11.5q-16 0 -16 15q0 13 8.5 32.5t28.5 47.5v-1q26 36 43 65.5t29 54.5t19.5 48t13.5 46q-6 3 -12.5 5.5t-11.5 4.5q-16 6 -35.5 15.5t-37 23.5t-29 35t-11.5 51q-4 25 3 48t21.5 42 t33 34t37.5 24h-1q13 6 35 6q23 0 49 -9.5t48 -29t36.5 -50.5t14.5 -74q0 -17 -3.5 -36.5t-9.5 -42.5z" />
<glyph unicode="-" horiz-adv-x="1227" d="M837 950q32 0 62.5 1t62.5 3q54 -3 91.5 -9t60.5 -14.5t33.5 -18t10.5 -19.5q0 -13 -13 -25.5t-34 -23t-47.5 -18t-53.5 -8.5l-777 -68q-8 -1 -15.5 -1.5t-14.5 -0.5q-26 0 -43 9.5t-17 35.5q0 20 11 53v-1q7 19 17 31t21 22v-1q6 5 12 12.5t11 14.5q83 9 152.5 14.5 t128 8.5t108.5 3.5t94 0.5h73q17 0 33.5 -0.5t32.5 -0.5z" />
<glyph unicode="." horiz-adv-x="628" d="M368 240q16 -26 16 -64q0 -28 -8 -57t-21 -53t-30.5 -40.5t-35.5 -20.5q-5 -1 -9 -1.5t-7 -0.5q-15 -2 -24.5 -2t-19.5 2.5t-23.5 8.5t-34.5 17l1 -2q-15 10 -21 28t-6 41q0 31 9.5 66.5t24 66.5t31 52.5t31.5 24.5q34 7 67.5 -9t59.5 -57z" />
<glyph unicode="/" horiz-adv-x="1182" d="M1020 1739q37 0 58 -23t21 -58q0 -25 -11.5 -57.5t-36.5 -74.5q-11 -19 -38 -66.5t-65.5 -115.5t-86 -154t-101 -181t-109.5 -196.5t-111.5 -201t-107.5 -193.5t-97 -174.5t-80.5 -144.5t-57.5 -103q-6 -10 -21 -31.5t-33.5 -43t-37 -36t-30.5 -10.5q-16 5 -18 28t3.5 53 t15 60t17.5 48q7 18 31 68.5t61 125t84 168t99.5 196.5t108.5 212t110.5 213.5t106 201t94.5 174.5t75.5 134.5t50.5 80.5q21 28 35.5 47.5t26.5 31.5t22 17t22 5z" />
<glyph unicode="0" horiz-adv-x="1079" d="M390 280q19 -8 37 -11.5t36 -3.5q68 0 125 51.5t98.5 136.5t64.5 194t23 225q0 48 -6.5 109.5t-23.5 118t-47.5 97.5t-78.5 47l2 -1q-38 14 -79.5 -7t-82 -70.5t-78 -124.5t-67.5 -169q-20 -63 -29.5 -130t-9.5 -133q0 -59 7.5 -113t22.5 -98t36.5 -75t49.5 -43zM897 606 q-11 -58 -34 -118t-56 -116t-75 -105t-91 -85.5t-103.5 -57.5t-113.5 -21q-30 0 -62.5 7t-63.5 19q-39 21 -67.5 74.5t-48 125t-29 153.5t-9.5 159q0 62 5 117t15 97q8 40 22 83t31 86.5t35 86t35 81.5q11 23 20 44t17 41l-1 -1q32 62 56.5 86t42.5 24q12 0 22.5 -15 t21.5 -38q43 33 90.5 54.5t92.5 21.5q39 0 71 -17q54 -18 93.5 -63.5t66 -110.5t39.5 -145.5t13 -168.5q0 -146 -35 -297v-1z" />
<glyph unicode="1" horiz-adv-x="1079" d="M673 1209q-9 -24 -19 -70t-21 -105.5t-22.5 -129t-22.5 -141.5t-21.5 -142.5t-19.5 -131.5q-11 -78 -19 -134.5t-13 -75.5q-15 -113 -36.5 -163.5t-43.5 -50.5q-23 0 -40 51.5t-17 139.5v19t1 20q0 18 3.5 62.5t9 106.5t13 136.5t15.5 152.5t17 155.5t17.5 145t16 121 t13.5 83.5l-1 -1q19 54 32.5 83.5t24 43.5t20 15.5t22.5 0.5q5 -1 15 -1.5t17 -0.5q12 -3 27 -8t28 -14.5t21.5 -25t8.5 -39.5q0 -20 -6 -44.5t-20 -56.5v-1z" />
<glyph unicode="2" horiz-adv-x="1079" d="M931 419q-116 -57 -208.5 -96t-171.5 -64.5t-149 -40.5t-142 -22q-46 -2 -78.5 6.5t-53 24t-30 37.5t-9.5 47q0 26 6.5 53.5t16.5 52.5t21.5 46.5t21.5 35.5l-1 -1q54 70 125.5 138t154.5 143q21 20 46.5 43t49.5 46q17 15 26.5 35.5t9.5 37.5q0 24 -13.5 41t-39.5 21 q-27 4 -63 6.5t-69 4.5q-38 2 -80 4.5t-88 9.5q-91 6 -132.5 27t-41.5 55q0 57 99 141q22 -5 59 -12t81 -16t92 -18.5t92.5 -19t82 -18.5t60.5 -15q92 -25 130.5 -68.5t38.5 -95.5q0 -59 -38 -121.5t-96 -114.5q-30 -27 -57.5 -50t-51.5 -42q-44 -34 -86 -71.5t-78 -85.5 q-6 -5 -13.5 -14.5t-13.5 -21.5t-10 -24.5t-4 -24.5q0 -20 11 -33.5t41 -13.5q8 0 17.5 1t23.5 5l-1 -1q82 22 135.5 38t94.5 29.5t78 27.5t85 33q9 4 21 8t23 9q39 14 73 21.5t59 7.5q32 0 48.5 -8t16.5 -22q0 -19 -28.5 -45.5t-91.5 -55.5h-1z" />
<glyph unicode="3" horiz-adv-x="1079" d="M781 1144q-44 -45 -80.5 -77t-68.5 -60q-26 -20 -54.5 -46t-57.5 -54q-33 -27 -51.5 -45.5t-18.5 -29.5q0 -13 12 -18.5t32 -7.5q23 -2 46 -0.5t47 3.5q22 2 46.5 3.5t53.5 1.5q17 0 38 -1t44 -3q85 -6 124.5 -31.5t39.5 -76.5q0 -23 -10 -56t-28 -73t-42 -85.5 t-52 -91.5q-74 -115 -161.5 -208.5t-198.5 -177.5q-51 -46 -89.5 -63.5t-58.5 -17.5q-22 0 -22 25q0 26 20 63.5t59 79.5q33 34 71 76t77 90t77.5 100.5t72.5 109.5q27 45 40.5 75t13.5 52q0 26 -16 40t-50 21q-34 0 -66.5 -4.5t-67.5 -10.5q-26 -5 -54 -9.5t-59 -7.5 q-8 -1 -17.5 -1h-17.5q-49 0 -82 7.5t-52.5 20t-27.5 29t-8 35.5t7 40.5t17.5 41.5t23.5 37.5t24 29.5q28 29 61.5 61t69 65t71.5 65t68 61l10.5 10.5t10.5 9.5q38 34 61.5 63.5t23.5 45.5q0 33 -50 38q-31 8 -78 11.5t-100 3.5q-57 0 -113.5 -2.5t-103.5 -4.5 q-23 8 -32.5 28.5t-9.5 45.5q0 22 8.5 45t23.5 41.5t35.5 30.5t44.5 12q9 -1 19.5 -1t22.5 -1q33 -2 74 -4.5t87.5 -6.5t97 -9.5t103.5 -14.5q118 -20 170 -60t52 -91q0 -40 -26.5 -83t-74.5 -83z" />
<glyph unicode="4" horiz-adv-x="1079" d="M468 337q-70 -21 -127 -30t-102 -9q-98 0 -139 52.5t-41 154.5q0 38 5 83t14 97q12 66 32 130t44 122t49.5 107t49 85t42.5 56t30 21q67 -9 99.5 -22t32.5 -33q0 -17 -10 -38.5t-29 -51.5q-18 -33 -40 -75t-43 -90.5t-39.5 -102t-30.5 -108.5q-7 -26 -10 -50.5t-3 -45.5 q0 -52 24.5 -80t86.5 -28q41 0 97 12l66 36q29 99 61.5 203t65 204.5t65 194t62.5 171.5t56.5 138t47.5 93q24 40 48 56t45 16q28 0 46.5 -26t18.5 -61q0 -18 -5 -36t-17 -36q-23 -37 -48 -93t-51.5 -125.5t-54 -149.5t-54.5 -165t-54 -172.5t-53 -171.5q27 9 46.5 16.5 t34.5 13.5t26 10.5t21 9.5q20 9 39.5 17t45.5 16h-1q48 12 78 12q36 0 54 -12t18 -32q0 -27 -33.5 -61t-99.5 -59l-256 -119q-25 -74 -38 -135t-22 -122q-3 -20 -5 -34.5t-4 -22.5q-2 -12 -3.5 -24t-3.5 -23q-3 -23 -7 -43t-13.5 -35t-26.5 -23.5t-47 -7.5q-8 0 -18.5 1 t-21.5 2q-10 1 -21 2.5t-20 8t-15 20.5t-6 39q0 17 3 39.5t11 52.5q1 8 8.5 36.5t18.5 67.5t24 83t24 83z" />
<glyph unicode="5" horiz-adv-x="1079" d="M243 1113q-25 -5 -44.5 -8.5t-30.5 -3.5q-29 0 -50.5 11t-29.5 28l-7 61q-6 15 1 28.5t20 24t28.5 17t26.5 8.5q6 1 14 1t13 1q32 2 63 7t70 21q5 14 12 30.5t12 30.5v-1q42 83 80 118t67 35q23 0 37 -23t14 -60q0 -22 -9 -53.5t-29 -73.5q10 1 23.5 2.5t28 3.5t28.5 3.5 t25 2.5q66 8 141 17t169 23q23 4 46 4q36 0 60 -9t24 -27q0 -14 -18.5 -35t-62.5 -49q-50 -17 -105 -33t-120 -31.5t-143.5 -31t-174.5 -31.5q-20 -59 -43 -122.5t-43 -121.5q-5 -13 -7 -24.5t-2 -19.5q0 -32 21 -43t51 -11q14 0 27 1t25 3q19 2 34.5 3t30.5 2t31 1h37 q30 0 65 -2.5t68 -7.5q84 -16 122 -55t38 -92q0 -26 -7.5 -58.5t-21 -68t-32.5 -72t-41 -68.5q-33 -50 -75 -104t-86 -107.5t-87.5 -103.5t-80.5 -90q-14 -17 -42.5 -29.5t-61.5 -12.5q-18 0 -35.5 5.5t-31 18t-21 32t-6.5 46.5q28 22 65 55.5t77 75t80.5 89.5t76.5 99 q20 29 34.5 49.5t30.5 43.5q22 39 32 66.5t10 47.5q0 24 -10 40t-27.5 25.5t-40.5 13.5t-49 4q-23 1 -50.5 0.5t-57.5 -1.5q-22 -1 -45 -1.5t-46 -0.5q-27 0 -53.5 1.5t-50.5 5.5q-52 16 -75.5 43.5t-23.5 70.5q0 29 9.5 64.5t26.5 80.5z" />
<glyph unicode="6" horiz-adv-x="1079" d="M740 668q-28 23 -70 23q-34 0 -74.5 -14t-78.5 -36t-70 -49t-49 -53q-5 -34 -7.5 -67.5t-2.5 -65.5q0 -60 12 -103.5t37 -61.5q32 -13 66 -13t70 12t70.5 33.5t66.5 53t57 70.5q14 28 21.5 60.5t7.5 67.5q0 42 -13.5 80.5t-43.5 62.5h1zM793 1406q-39 -48 -83 -115.5 t-86 -146.5t-79.5 -165t-63.5 -173q45 23 103 37t111 14q54 0 101.5 -11.5t73.5 -36.5q53 -43 79 -108t26 -140q0 -69 -22.5 -139.5t-68.5 -134.5q-36 -58 -87 -106t-108.5 -82t-118.5 -53t-116 -19q-34 0 -65 8.5t-57 25.5t-50 44t-43 62t-30.5 76.5t-11.5 87.5 q-20 -9 -38.5 -16t-28.5 -7t-16 8t-8 30q-5 28 3 56.5t24 57t38 56.5t45 57q5 6 10.5 13.5t10.5 12.5q11 43 22 87t22 87l-1 -1q14 46 37 103t52 119t63.5 127t72 127t76.5 118t78 100q53 62 98.5 90.5t74.5 28.5q31 0 31 -33q0 -24 -16.5 -61t-53.5 -85z" />
<glyph unicode="7" horiz-adv-x="1079" d="M867 1385q52 -44 71.5 -90t19.5 -94q0 -39 -10 -80.5t-21 -83.5q-2 -10 -5 -21.5t-6 -22.5q-10 -37 -26 -96t-35.5 -128.5t-40.5 -143.5t-40 -140q-17 -60 -33 -113.5t-29 -98t-23 -78.5t-16 -55q-30 -107 -61.5 -162.5t-54.5 -55.5q-17 0 -27 30t-10 82q0 26 3.5 58 t11.5 68q6 27 16 63.5t24 94.5q14 59 30 127t32.5 138t32 139t29.5 130t24.5 111t16.5 81v-1q9 43 9 85q0 53 -20.5 88t-70.5 46q-24 4 -52.5 5.5t-59.5 1.5q-48 0 -101 -6t-113 -20q-84 -25 -138 -25q-78 0 -78 53q0 15 7 36t19 46q11 23 23.5 36.5t26 21t29 11t32.5 6.5 q7 2 14.5 2.5t15.5 2.5h-1q29 5 83.5 8t120.5 3q56 0 115 -3t111.5 -9.5t93.5 -18t61 -28.5z" />
<glyph unicode="8" horiz-adv-x="1079" d="M556 769q23 -41 47 -89t46.5 -95.5t42 -91.5t33.5 -75v1q2 -5 3.5 -9.5t3.5 -8.5v1q26 -71 38 -127t12 -101q0 -49 -13.5 -83t-36 -55t-52 -30.5t-61.5 -9.5q-33 0 -67 9q-81 19 -146 44t-116 53t-88.5 57.5t-62.5 59.5q-30 41 -46 86.5t-16 87.5q0 43 12 84.5t31.5 77.5 t44 66t50.5 51l135 131q-42 72 -81.5 147t-70 145.5t-49 133.5t-18.5 111q0 35 12 61l-1 -1q19 29 62 42.5t101 13.5t126 -13t137.5 -37t136 -58.5t122.5 -76.5l18 18q14 14 26 25t23.5 21.5t24 21t29.5 23.5q18 3 36 -0.5t32.5 -13.5t23.5 -25.5t9 -35.5q0 -21 -11 -45.5 t-37 -52.5l-60 -62q38 -53 38 -83q0 -23 -16 -36t-40 -13q-18 0 -41.5 9t-50.5 29zM624 214q0 32 -16 77.5t-42 96.5q-1 1 -1 2q-6 21 -22 57t-36 75.5t-40.5 76.5t-34.5 60q-35 -35 -77 -75.5t-77 -75.5v1q-48 -41 -48 -92q0 -59 68 -117t201 -111l-1 1q51 -29 81 -29 q24 0 34.5 14t10.5 39zM711 1151q-33 30 -75 56t-85.5 45t-84.5 30t-71 11q-34 0 -53 -14t-16 -42q1 -18 10 -44.5t23 -59t31.5 -68t35.5 -71.5q10 -19 23 -46.5t22 -46.5z" />
<glyph unicode="9" horiz-adv-x="1079" d="M933 1220q-8 -15 -18.5 -55t-23 -97t-26.5 -128t-28.5 -148.5t-28.5 -159t-27.5 -159.5t-25 -148.5t-20.5 -127.5q-9 -51 -15 -86t-8 -48q-17 -69 -40 -105.5t-43 -36.5t-34.5 32t-14.5 95q0 10 0.5 20t1.5 21q1 5 2.5 20.5t3.5 38.5q4 47 11 114t17.5 149t25.5 175.5 t35 194.5q-30 -23 -65.5 -42.5t-73.5 -34t-76.5 -23t-74.5 -8.5q-48 0 -90.5 13.5t-73.5 43.5q-60 63 -87.5 130.5t-27.5 139.5q0 69 25.5 142t66.5 139q21 30 51.5 61t77.5 60.5t113.5 55.5t158.5 45q24 6 43 6q32 0 53 -14t21 -36q0 -21 -19.5 -46t-67.5 -53 q-63 -17 -122.5 -47.5t-105.5 -72t-73.5 -92t-27.5 -106.5q0 -39 14 -78.5t45 -81.5q11 -17 32 -25t46 -8q32 0 69.5 12.5t72 34t62 51t38.5 63.5v-1q9 22 18 53t16.5 65.5t14 68.5t11 61.5t7.5 45t3 19.5q23 56 45.5 75.5t44.5 19.5q11 0 22.5 -3t23.5 -7q13 -4 26 -12.5 t24 -20.5t18 -28.5t7 -37.5q0 -19 -6 -40t-22 -47z" />
<glyph unicode=":" horiz-adv-x="695" d="M460 1129q10 -17 14 -34.5t4 -36.5q0 -32 -11 -63.5t-27.5 -58t-36 -45.5t-37.5 -26h1q-18 -6 -32 -6q-20 0 -34.5 9.5t-31.5 20.5q-18 16 -26.5 41t-8.5 53q0 31 7 64t17.5 61t22 49t19.5 29q24 3 49.5 -1.5t47.5 -13t39 -20t24 -22.5zM444 273q15 -23 21.5 -47t6.5 -50 q0 -28 -7 -54.5t-19 -49t-27.5 -38.5t-31.5 -23q-28 -10 -48 -10q-17 0 -31.5 6.5t-33.5 19.5q-22 14 -31 39t-9 55q0 34 9 70t22.5 67.5t29 54.5t28.5 31q43 3 68.5 -15t52.5 -57v1z" />
<glyph unicode=";" horiz-adv-x="695" d="M505 65q-12 -40 -29.5 -84t-40 -85t-49 -77t-55.5 -60q-24 -24 -47 -37t-38 -13q-16 0 -16 17q0 12 9 32t29 49q24 36 41 65t28.5 54t19.5 46.5t14 42.5q-5 2 -15 6.5t-16 7.5q-15 7 -33.5 17t-34.5 24t-27.5 34t-14.5 48q-3 24 6 47.5t24 44t33.5 37t34.5 25.5 q13 4 32 4q24 0 51.5 -9.5t51 -29.5t38.5 -52t15 -77q0 -17 -2.5 -36t-9.5 -42zM460 1129q10 -17 14 -34.5t4 -36.5q0 -32 -11 -63.5t-27.5 -58t-36 -45.5t-37.5 -26h1q-18 -6 -32 -6q-20 0 -34.5 9.5t-31.5 20.5q-18 16 -26.5 41t-8.5 53q0 31 7 64t17.5 61t22 49t19.5 29 q24 3 49.5 -1.5t47.5 -13t39 -20t24 -22.5z" />
<glyph unicode="&#x3c;" d="M828 1099q-68 -48 -123 -82.5t-105.5 -65t-101.5 -63.5t-111 -78q-26 -24 -39.5 -43.5t-13.5 -49.5q0 -25 18.5 -46t41.5 -34l358 -223q15 -10 34.5 -22.5t39.5 -27.5t39.5 -33t35.5 -38q8 -9 15 -27t11.5 -37t5.5 -34t-3 -18q-7 -5 -24 -2.5t-40 15.5l-628 354 q-52 30 -80.5 55t-42.5 45t-17 35t-3 26q0 27 6 46t17 34t27 29t37 32q62 52 145.5 108.5t173 110t177.5 101.5t159 84q45 23 75 26t41 -6q9 -8 5.5 -21.5t-14.5 -30.5t-27.5 -35.5t-33.5 -35t-32 -29.5t-23 -19z" />
<glyph unicode="=" horiz-adv-x="1189" d="M966 1003q-73 -20 -158.5 -34.5t-177.5 -25.5t-187 -19.5t-187 -15.5q-34 0 -56.5 14.5t-36.5 31.5q-16 20 -25 46q-6 15 -6 29t6.5 25.5t17 19.5t23 12.5t25.5 4.5l720 30q29 4 55 0.5t45.5 -11t31 -19t11.5 -24.5q0 -16 -23 -33t-78 -31zM1023 492q-47 -18 -105 -34 t-123.5 -30t-136 -26t-142 -21.5t-142 -17t-135.5 -12.5q-45 -2 -71.5 11.5t-33.5 53.5q-5 14 -9.5 30.5t-9.5 30.5l1 -1q-5 22 1.5 35t19.5 19t30.5 7.5t33.5 1.5q5 0 10 0.5t10 0.5q179 12 361.5 25t361.5 26q12 1 23 1.5t22 0.5q51 0 83 -8t32 -25q0 -11 -19 -28.5 t-64 -39.5h2z" />
<glyph unicode="&#x3e;" d="M256 353q68 48 123 82.5t105.5 65t101.5 63.5t111 78q26 24 39.5 43.5t13.5 49.5q0 25 -18.5 46t-41.5 34l-358 223q-15 10 -34.5 22.5t-39.5 27.5t-39.5 33t-35.5 38q-8 9 -15 27t-11.5 37t-6 34t3.5 18q7 5 24 2.5t40 -15.5l628 -354q52 -30 80.5 -55t42.5 -45t17 -35 t3 -26q0 -27 -6 -46t-17 -34t-27 -29t-37 -32q-62 -53 -145.5 -109t-173 -109.5t-177.5 -101.5t-159 -84q-45 -23 -75 -26t-41 6q-9 7 -5.5 21t14.5 31t27.5 35.5t33.5 35t32 29.5t23 19z" />
<glyph unicode="?" horiz-adv-x="1134" d="M622 90q12 -17 16.5 -36.5t4.5 -39.5q0 -29 -9 -57t-22.5 -51t-30.5 -39t-33 -19q-21 -3 -35.5 -5t-22.5 -2q-11 0 -21.5 4.5l-31.5 13.5h1q-3 2 -6.5 3.5t-6.5 3.5q-24 17 -34.5 43.5t-10.5 55.5q0 33 9 66.5t22 61t28 45.5t27 19q13 3 23 4t19 1q35 0 62 -17t52 -55z M786 1509q57 -27 100 -62.5t71.5 -76t43 -84.5t14.5 -89q0 -65 -29.5 -127.5t-88.5 -113.5q-23 -21 -54 -43t-64.5 -43.5t-65.5 -40.5t-56 -34l-12 -6q-42 -33 -69.5 -73.5t-27.5 -88.5q0 -37 17 -71q18 -33 30 -54q11 -20 17 -33.5t6 -24.5q0 -17 -16 -46 q-10 -7 -22.5 -10.5t-23.5 -3.5q-37 0 -78 29.5t-80 84.5v-1q-36 58 -36 118q0 55 25 104t62 86q17 17 45 40.5t61 49.5q20 16 44 36t48.5 41t49 42.5t45.5 42.5q42 33 60.5 67.5t18.5 66.5t-15 60.5t-37 51t-48.5 37.5t-48.5 20l1 -1q-12 4 -26 5t-30 1q-41 0 -87 -6.5 t-89 -14.5q-21 -4 -41 -7.5t-34 -4.5q-47 -2 -80.5 7t-55.5 25t-32.5 37t-10.5 43q0 40 23.5 73.5t59.5 41.5h-1q38 7 89.5 13t109.5 6q81 0 165 -15t153 -53v-1z" />
<glyph unicode="@" horiz-adv-x="1821" d="M1218 136q-45 -6 -70.5 15t-37 56t-11 76.5t7.5 75.5q-29 -36 -65 -73.5t-77.5 -71t-85.5 -59t-88.5 -36t-88 -2.5t-82.5 42q-38 32 -55 78t-19 99.5t8.5 110.5t28 110.5t40.5 100t45 79.5q49 71 97.5 128.5t94.5 98t89.5 62.5t81.5 22q39 0 70 -14.5t56 -35.5 q36 -31 49 -59.5t8.5 -51t-22 -36.5t-41.5 -15.5t-51.5 11.5t-50.5 45q-17 23 -40 23q-17 0 -39 -15.5t-46 -40.5t-48.5 -57.5t-47.5 -67t-42 -68t-32 -60.5q-9 -19 -20 -49t-21 -65t-15.5 -71.5t-3.5 -68t14 -54.5t38 -31q42 -13 80 -2t72.5 37t65 62.5t58 76t51.5 77.5 t46 67q11 15 23 31t25 32q42 56 79.5 81.5t63.5 25.5q15 0 23 -8t10 -19t1 -23.5t-4 -22.5q-44 -90 -75.5 -163.5t-45 -126t-5 -81.5t46.5 -29q47 0 86.5 37t71.5 95t55.5 129.5t39.5 141t24 128t8 91.5q0 94 -20.5 182.5t-70.5 156t-133.5 108.5t-209.5 41 q-87 0 -168.5 -32.5t-156 -89.5t-140 -135t-120.5 -167.5t-99 -187.5t-74.5 -196.5t-46.5 -193t-16 -176.5q0 -104 26.5 -185.5t83 -137.5t145.5 -86t214 -30q81 0 169 14.5t176 42t173 68.5t159 95q45 27 88 51.5t85 46.5h-1q5 2 13.5 0.5t16 -6.5t13 -14.5t5.5 -22.5 q0 -24 -32.5 -66.5t-101.5 -92.5q-95 -63 -189.5 -114.5t-192 -87.5t-199 -55.5t-211.5 -19.5q-146 0 -262 35.5t-196 106t-122.5 176.5t-42.5 247q0 112 18.5 230.5t54 236t87.5 230t119.5 213t150 185t178 145.5t203.5 95.5t228 34.5q149 0 255.5 -51.5t175 -137.5 t101 -198t32.5 -232q0 -77 -15.5 -163.5t-45.5 -172.5t-73 -165.5t-98 -142t-120.5 -103t-140.5 -47.5z" />
<glyph unicode="A" horiz-adv-x="1344" d="M898 671q-1 13 -6 45.5t-13.5 77.5t-19 100t-23 112.5t-26.5 114t-28 105.5q-63 -119 -115 -235t-96 -217q-8 -18 -16.5 -38.5t-17.5 -41t-17 -39t-14 -33.5zM911 1398q21 -51 40.5 -117t35.5 -136.5t29.5 -141.5t23.5 -132t17 -107.5t10 -69.5q29 5 67.5 10t69.5 10 q11 2 21 3t18 1q41 0 66 -14t25 -34q0 -19 -26 -40.5t-89 -39.5l2 1l-139 -28q12 -70 25.5 -147t25.5 -148v1q4 -41 -3 -76t-21 -61.5t-32 -41.5t-37 -15q-26 0 -48.5 35.5t-31.5 116.5q-4 29 -7 56t-5 53q-6 54 -12 99t-17 92q-122 -19 -243 -38t-243 -38 q-33 -95 -58.5 -170t-44.5 -133.5t-32.5 -100.5t-22.5 -71q-1 -4 -2 -7.5t-2 -6.5q-17 -64 -46.5 -94t-77.5 -36q-8 -3 -22 -2t-28 10t-24.5 27.5t-10.5 50.5q0 17 4.5 38t11.5 46q6 17 12 36l12 38q20 60 52.5 150.5t87.5 210.5l-35 -7t-27 -3q-23 0 -47 10.5t-34 31.5 q-16 32 -16 53q0 17 11 30t29.5 23t43.5 16.5t54 11.5l95 11q20 60 52.5 138t73.5 165t89.5 180t101.5 184.5t110 177.5t114 159q27 32 53.5 48.5t47.5 16.5q29 0 47 -24t18 -57q0 -19 -8 -40t-25 -39z" />
<glyph unicode="B" horiz-adv-x="1249" d="M842 969q-32 -49 -32 -79q0 -40 40 -46q45 -4 92 -8t92 -8q78 -11 117.5 -42.5t39.5 -77.5q0 -28 -11.5 -63t-32 -75t-49 -83.5t-62.5 -89.5q-43 -57 -90 -111.5t-100.5 -110t-113 -113.5t-128.5 -123q-49 -37 -83 -53t-55 -16q-14 0 -20 7.5t-6 19.5q0 26 20.5 65 t61.5 79q55 60 117.5 138t142.5 180q23 29 48 60.5t51 66.5q33 49 52.5 83.5t19.5 59.5q0 40 -53 53q-27 5 -42 5h-29q-14 -1 -32 0t-56 9q-86 17 -122 48.5t-36 66.5q0 19 6.5 39t16.5 39t21.5 35.5t21.5 29.5q20 27 39.5 52.5t39.5 50.5q29 38 61.5 82t64.5 87 q36 48 36 79q0 18 -9.5 29.5t-24.5 18t-34.5 9t-39.5 2.5q-17 0 -33.5 -1t-30.5 -2q-6 -1 -10.5 -1h-9.5l-217 -20q-18 -67 -36.5 -154t-36.5 -183.5t-35 -198.5t-32.5 -199.5t-28 -185.5t-22 -157.5t-15 -115t-6.5 -58.5q-2 -45 -12 -79t-25.5 -56.5t-33.5 -34t-36 -9.5 q-41 2 -54.5 34.5t-13.5 96.5q0 9 0.5 18t0.5 19q-1 13 7.5 83.5t23.5 177t35.5 237t43.5 263t47.5 255t47.5 213.5q-51 0 -73 18t-22 44q0 17 6 35t17 34t26 28t33 18l-2 -1l50 8q6 29 12.5 63t11.5 62l-1 -2q10 31 21 54.5t26.5 41t37 30.5t53.5 24l-1 -1q11 2 19.5 3 t14.5 1q27 0 39 -13t12 -38q0 -26 -11.5 -62.5t-31.5 -80.5l-21 -80l302 35q26 3 48.5 4t42.5 1q113 0 165 -37t52 -97q0 -42 -23.5 -94.5t-66.5 -107.5z" />
<glyph unicode="C" horiz-adv-x="1031" d="M837 1366q53 -80 76.5 -139t23.5 -94q0 -38 -25 -38q-28 0 -76 37.5t-111 119.5l1 -1q-44 60 -102 60q-34 0 -70.5 -21.5t-73 -58t-71 -86t-63.5 -105.5q-22 -44 -39 -96t-29 -107t-18 -110.5t-6 -107.5q0 -53 6 -102t18.5 -89t30.5 -70t42 -45l-2 1q24 -23 52.5 -32.5 t60.5 -9.5q35 0 71.5 11t71 29.5t65.5 42t54 47.5q18 20 36 41.5t34 41.5q18 21 35 40.5t33 34t30.5 21t27.5 2.5q13 -5 18.5 -18t5.5 -32q0 -26 -8.5 -57.5t-23.5 -64.5t-34.5 -66.5t-41.5 -61.5q-28 -36 -77 -72t-110 -65.5t-128 -47.5t-130 -18q-48 0 -90 12t-76 39h1 q-39 35 -66.5 83t-45.5 106t-26 123t-8 133q0 76 9.5 153t26 150.5t39.5 140t51 120.5q36 69 85.5 132.5t106.5 112t118 77t120 28.5q56 0 107 -29t94 -95z" />
<glyph unicode="D" horiz-adv-x="1165" d="M1028 1208q29 -57 42.5 -128t13.5 -149q0 -56 -7 -114.5t-19.5 -116t-31 -112.5t-42.5 -104q-66 -140 -179 -215t-271 -86q-27 0 -50.5 5t-41.5 12.5t-28 17.5t-10 21q0 24 34 51t112 50l-1 -1q5 1 8 2t8 2q28 7 63 18t71 33.5t70.5 60.5t61.5 100q10 24 23 71.5 t24.5 105t19.5 120t8 117.5q0 34 -3.5 64t-12.5 53v-1q-19 51 -52 89t-75.5 63t-92.5 37.5t-103 12.5q-17 0 -35 -1t-38 -4q-33 -96 -61.5 -207.5t-52 -226t-42.5 -226t-33.5 -207.5t-24 -170t-14.5 -114q-1 -7 -1.5 -11.5t-1.5 -9.5q-6 -44 -17 -77.5t-26 -56t-32 -33.5 t-34 -11q-38 10 -56 39.5t-18 87.5v29t2 32q2 29 13 103t28.5 175t40 220t47 238t49 229.5t47.5 193.5q-13 -1 -33.5 -2t-31.5 -1q-66 0 -92.5 14t-26.5 34q0 19 15.5 40.5t41.5 43.5q87 26 169.5 39t159.5 13q93 0 175 -18t149 -51t116.5 -79.5t78.5 -103.5z" />
<glyph unicode="E" horiz-adv-x="1174" d="M940 1426q13 2 26 -0.5t23 -8t16.5 -13.5t6.5 -17q0 -12 -12 -25t-39.5 -26.5t-72 -25.5t-108.5 -22l-226 -5q-17 -34 -31.5 -77t-26.5 -90.5t-23 -97t-20 -95.5q-3 -17 -8 -40.5t-9 -39.5l415 34q17 2 32.5 2h29.5q52 0 74.5 -6t22.5 -16q0 -18 -39 -43.5t-99 -48.5h1 q-59 -20 -174.5 -41t-277.5 -37q-10 -24 -18 -54.5t-14.5 -63.5t-11.5 -65.5t-9 -59.5q-3 -20 -5 -36t-5 -29q-2 -12 -3 -27t-1 -32q0 -24 4 -48t14 -41t28 -25t45 -2h-1q73 10 150.5 32.5t149.5 49.5t134.5 56t104.5 53q12 7 28.5 14t34.5 12t36 8.5t33 3.5q11 0 17.5 -2 t6.5 -7q0 -11 -16 -32.5t-55 -57.5q-104 -94 -203.5 -152t-192 -91t-176.5 -47.5t-155 -20.5q-44 -3 -80 16t-62 52.5t-40.5 77.5t-14.5 91q0 11 1 23.5t3 25.5q4 25 14.5 82.5t25.5 136.5t34.5 174t41.5 195t47.5 199t52.5 187h-72t-65 -1q-22 -1 -40 -1h-32h-22t-13 2 q-54 13 -79 31.5t-31 55.5q5 28 38.5 41.5t99.5 21.5q22 0 69.5 -0.5t111.5 -2.5q54 -1 115.5 -2.5t123.5 -2.5t122 -1.5t111 -0.5q45 0 81 0.5t57 2.5h1z" />
<glyph unicode="F" horiz-adv-x="1148" d="M904 1527q16 1 31 -2.5t27 -10.5t19.5 -16.5t7.5 -19.5q0 -12 -10.5 -24.5t-34.5 -24t-64 -21t-99 -15.5q-10 -3 -31 -6t-47 -5.5t-54.5 -4.5t-53.5 -4q-26 -2 -47.5 -3.5t-32.5 -3.5q-8 -27 -15.5 -64t-14.5 -80.5t-14 -92t-14 -97.5q-7 -52 -15.5 -110.5t-16.5 -101.5 l536 76q58 9 92 9q36 0 52 -6t16 -16t-9.5 -23t-27 -26.5t-41 -27.5t-51.5 -27h1q-78 -23 -164.5 -44.5t-176.5 -42.5q-61 -15 -124.5 -30.5t-118.5 -30.5q-16 -86 -28 -169.5t-20.5 -157t-12.5 -132.5t-4 -95q0 -41 7 -55q40 -48 57 -84t17 -62q0 -33 -26 -51.5t-63 -25.5 q-9 -1 -26 0t-37 7.5t-41 20.5t-37.5 39t-26 63.5t-7.5 93.5q0 30 4.5 91.5t13 143t19.5 176t24 190.5q-42 0 -71.5 11t-29.5 40q0 20 12 49t41 71l75 12q4 33 10 78.5t13 98t15.5 107t17 105.5t17 94t16.5 72q-58 1 -108.5 2.5t-108.5 2.5q-23 1 -38 9t-23.5 20t-11.5 27.5 t-3 32.5q0 33 34 48t104 23h18t21 -0.5t28 -1t40 -1.5q42 -1 90 -2.5t98.5 -2.5t101.5 -1.5t99 -0.5q75 0 135.5 2.5t90.5 7.5h-1z" />
<glyph unicode="G" horiz-adv-x="1333" d="M1016 771q-13 -41 -28.5 -105.5t-31.5 -140.5t-31 -158.5t-27 -158.5t-20.5 -141t-11.5 -106q45 -59 45 -97q0 -26 -21 -43t-65 -22q-8 -1 -30 0.5t-45 14t-41 39t-18 74.5q0 27 9 69q5 26 8 50.5t6 50.5q3 22 6 47t8 55.5t12 68t18 85.5q-39 -25 -86.5 -47.5t-98.5 -39 t-103.5 -26.5t-101.5 -10q-58 0 -109.5 14t-89.5 46h1q-61 57 -86.5 136.5t-25.5 174.5q0 65 11 136t29.5 143t43 143t52.5 137q40 89 99.5 162t128.5 124.5t143 80t142 28.5q70 0 131 -32.5t99 -95.5q31 -57 47.5 -103t16.5 -74q0 -45 -32 -45q-25 0 -61.5 27.5t-74.5 84.5 q-32 32 -69 46.5t-76 14.5q-47 0 -96.5 -20t-95.5 -58.5t-86.5 -94.5t-70.5 -127q-16 -39 -35 -93t-35 -115t-26.5 -124t-10.5 -120t15 -106t47 -78q29 -23 71.5 -34.5t88.5 -11.5q49 0 101 10.5t98 27.5t82 38.5t53 44.5l51 249q-24 -5 -52 -11t-57.5 -13t-58.5 -13.5 t-53 -11.5q-43 -2 -60 13t-17 38q0 29 15 61.5t32 55.5q52 7 121.5 16t147 17.5t159 16.5t158.5 14q11 1 19.5 1.5t18.5 0.5q47 0 68.5 -12t21.5 -29q0 -23 -28 -47.5t-79 -36.5q-14 -5 -38 -10t-47 -10q-29 -7 -51 -13.5t-38 -14.5z" />
<glyph unicode="H" horiz-adv-x="1354" d="M263 739q24 146 50.5 290.5t54 275t54 240.5t50.5 187v-2q26 54 73 62q22 0 42 -3.5t34 -11.5t22.5 -23t8.5 -37q0 -39 -22 -101q-14 -40 -31 -107t-35 -148t-36 -170t-34.5 -171.5t-29.5 -153t-21 -115.5q25 -1 64.5 0.5t86.5 5.5t96.5 9t94 10.5t80 11t53.5 9.5 q2 22 10 64.5t18.5 95.5t23 112t25.5 112.5t25 96.5t21 66q12 11 33 25t47 15q33 -2 53.5 -6.5t20.5 -30.5q0 -16 -7 -42.5t-23 -67.5q-4 -20 -10.5 -50t-15.5 -65q-15 -60 -31.5 -134t-24.5 -159l122 20q37 9 64 9t43 -7t16 -19q0 -16 -25.5 -39t-82.5 -47 q-30 -17 -70.5 -29.5t-88.5 -22.5l-53 -445q-6 -54 -12.5 -90t-17 -59t-27 -35t-42.5 -18q-29 5 -47 42t-18 95q0 42 12 96l50 383q-28 -8 -68.5 -16.5t-87 -17t-95.5 -16.5t-94 -14.5t-82.5 -11.5t-61.5 -7q-6 -25 -12 -59.5t-11.5 -74t-10.5 -81.5t-9 -82v1 q-7 -57 -12 -102t-10 -64q-2 -9 -2.5 -19.5t-1.5 -19.5v1q-6 -44 -11.5 -71t-16 -42.5t-27.5 -23t-45 -11.5q-39 4 -62.5 45.5t-23.5 113.5q0 31 6 72l52 394q-23 -6 -53.5 -12.5t-53.5 -6.5q-14 0 -27.5 3t-23.5 10t-16 19t-6 30q0 23 11 61v-2q10 19 25.5 30.5t34.5 17.5 t40.5 9t42.5 5q14 2 29 3.5t29 3.5z" />
<glyph unicode="I" horiz-adv-x="1019" d="M709 1324q-17 -43 -34 -114.5t-34.5 -162t-34.5 -195.5t-32.5 -214.5t-28.5 -218.5t-23 -208q69 0 144.5 2.5t154.5 11.5h-1q18 2 36.5 -1.5t32.5 -10.5t23 -17t9 -22t-11.5 -25t-38 -25.5t-70.5 -23.5t-109 -19q-27 -4 -65.5 -7.5t-83.5 -7t-93.5 -7t-95 -6t-88.5 -4 t-73 -1.5h-24.5t-19.5 1q-27 2 -45 15t-29 31.5t-15.5 40t-4.5 42.5q13 22 42.5 30t71.5 8q24 0 51 -1.5t56 -3.5l85 -6q0 77 6 174.5t16.5 203t23.5 213t27.5 205t29 178.5t26.5 133q-15 -1 -32 -1.5l-34 -1t-33 -1t-28 -0.5q-32 0 -52.5 1.5t-25.5 6.5q-51 0 -74 18.5 t-23 56.5q10 19 22 33t29.5 24t43.5 17.5t65 12.5q32 -5 85.5 -7t116.5 -2q46 0 96 1t97 2t89 2.5t73 3.5q17 0 34 -3.5t31 -9.5t23 -13.5t9 -15.5q0 -11 -12.5 -23t-41 -25t-73.5 -26t-109 -25l-46 -5z" />
<glyph unicode="J" horiz-adv-x="1044" d="M765 1330q-10 -71 -19.5 -154.5t-18.5 -173.5t-17 -182t-15 -179q-6 -78 -12.5 -150.5t-12.5 -136.5t-12 -116t-13 -88v1q-11 -53 -37 -98.5t-63.5 -79t-84 -53t-97.5 -19.5q-59 0 -121.5 29t-123.5 95l1 -2q-42 60 -68 108t-26 86q0 17 7.5 34t23.5 31q15 7 27 7 q18 0 35.5 -15.5t41.5 -41.5q17 -18 37.5 -39t41.5 -38q37 -28 66 -40t52 -12q31 0 51 17.5t33.5 47t21 68.5t13.5 81v-1q4 20 8.5 57t9 87t9.5 110.5t10 126.5q6 76 13 159.5t14.5 164.5t16 156t17.5 134q-5 0 -18 -0.5t-18 -0.5q-24 -1 -43.5 -2t-36.5 -1.5t-33 -1 t-34 -0.5h-28t-31 1q-48 2 -75 20.5t-22 53.5q6 39 40.5 57t115.5 22q169 8 308.5 17t240.5 18q15 0 30.5 -3t28 -8t20.5 -12.5t8 -16.5q0 -12 -10 -25.5t-33.5 -28t-61 -29.5t-91.5 -30h1z" />
<glyph unicode="K" horiz-adv-x="1291" d="M215 817q7 47 16 105.5t20 123.5t24 133.5t28.5 136.5t33.5 132t38 119q16 36 43 55.5t53 19.5q30 0 53.5 -21.5t23.5 -62.5q0 -16 -6 -38v1q-15 -51 -35 -125t-40 -159.5t-37 -176.5t-26 -176q2 1 7.5 4.5t12.5 8t13 8.5t8 6q29 21 77.5 54.5t108 73.5t127 83t136 83.5 t134.5 74t122 54.5q27 10 52 10q32 0 49 -20t17 -47q0 -20 -9 -41.5t-27 -37.5q-11 -6 -64.5 -35.5t-132 -74.5t-171.5 -99.5t-183.5 -110t-169 -107t-126.5 -89.5q47 -36 111 -80t130.5 -87.5t127 -82.5t101.5 -63q24 -14 58.5 -37t72 -50.5t74 -56.5t65 -55.5t45 -47.5 t13.5 -32q-3 -14 -25 -14q-24 0 -60 12t-77 30.5t-83 39.5t-77 39q-18 10 -35 18.5t-30 13.5q-22 11 -51.5 27.5t-62.5 36t-68.5 41t-70.5 43.5q-25 15 -51.5 31.5t-52.5 31.5t-50 28.5t-42 23.5q-11 -59 -16.5 -116.5t-9.5 -113.5q-2 -38 -5.5 -73t-8.5 -67q1 -11 1 -23.5 v-23.5q0 -36 -3.5 -66t-12.5 -50.5t-24.5 -30t-39.5 -3.5l1 -1q-27 9 -49 25.5t-37 43.5t-22 66t-4 92q3 17 5.5 40t5.5 50q7 63 18.5 144.5t34.5 178.5q-40 6 -69 24t-35 48q17 67 46.5 110t82.5 61z" />
<glyph unicode="L" horiz-adv-x="1027" d="M889 479q34 19 66 19q17 0 27.5 -7.5t10.5 -21.5q0 -20 -18 -49t-61 -67h1q-102 -79 -195 -130.5t-175 -84.5t-152.5 -51t-125.5 -29q-7 -1 -15 -2t-14 -1q-35 0 -63 16t-48 44t-30.5 67t-10.5 86q0 18 2 40t7 44q5 23 11 59t14 82q12 67 27.5 151t32.5 174.5t35.5 183.5 t37.5 177t36.5 155t33.5 118q9 31 29.5 44.5t43.5 13.5q18 0 35.5 -7t32 -20t23 -32t8.5 -42q0 -31 -11 -54q-10 -28 -22 -75.5t-25.5 -107t-28 -127.5t-28.5 -138t-27 -138t-24 -127q-15 -81 -26 -138t-16 -72q-6 -26 -6 -59q0 -25 5 -48.5t15.5 -40.5t28 -25t42.5 -2h-1 q74 13 146.5 39t139.5 57t126 64t107 62h-1z" />
<glyph unicode="M" horiz-adv-x="1576" d="M789 249q-8 20 -18 51t-24 70q-21 62 -47 138.5t-57 157.5t-65 160t-70 146q-36 -93 -70.5 -201.5t-66 -218t-58 -212.5t-45 -183.5t-27.5 -131.5t-6 -57q31 -39 44 -69.5t13 -53.5q0 -19 -9 -33t-24 -23t-34 -13.5t-39 -5.5q-8 -2 -30.5 0t-46.5 14.5t-42.5 40.5 t-18.5 78q0 19 2.5 40t8.5 44q19 103 50 232t71 269t88 284.5t99.5 280t105 254t106.5 207.5q17 23 37.5 34t40.5 11q29 0 51.5 -20.5t22.5 -54.5q0 -14 -5 -30.5t-16 -35.5l-26 -52t-20 -43t-23.5 -55t-35.5 -86q34 -71 66.5 -148.5t63 -158t58.5 -163t55 -161.5 q33 86 74 190t85.5 209.5t90 204t86.5 172.5q7 14 19 30t27 29.5t31.5 22t33.5 8.5q22 0 42 -21t35 -72v1q11 -48 26 -128.5t31 -177.5t32 -200.5t29 -196.5t22.5 -166.5t12.5 -109.5q2 -9 2 -17v-16q0 -61 -24 -93t-53 -32q-27 0 -49.5 27.5t-27.5 86.5v-1q-3 72 -14 160.5 t-25 178.5t-29.5 174.5t-27.5 149.5q-3 15 -6.5 34.5t-7 38.5t-6.5 35t-5 25q-16 -24 -33.5 -59.5t-36.5 -77t-38 -87.5t-37 -91t-34.5 -87.5t-29.5 -77.5q-11 -25 -18.5 -45.5t-12.5 -33.5q-26 -75 -61.5 -137.5t-69 -103.5t-59.5 -56t-33 6v2z" />
<glyph unicode="N" horiz-adv-x="1186" d="M1129 1230q10 -26 10 -65q0 -42 -10.5 -88t-27.5 -89v1q-21 -45 -37 -102t-28 -121.5t-21.5 -133.5t-17.5 -138q-5 -38 -9.5 -75t-9.5 -73q-1 -13 -1.5 -26t-0.5 -25q0 -17 0.5 -33t1.5 -30q1 -10 1 -19v-17q0 -29 -8 -47.5t-35 -32.5q-11 -11 -27 -11q-14 0 -31.5 8.5 t-35 27t-33.5 47.5t-28 70q-45 105 -87.5 192t-81.5 158.5t-74 130t-64 106.5q-10 15 -21 34t-22.5 37.5t-21 35.5t-16.5 29q-18 -66 -34.5 -147t-30 -167t-24.5 -170.5t-19.5 -157t-13.5 -127.5t-6 -82q-4 -28 -5.5 -52.5t-3.5 -44.5q-3 -33 -6 -57t-11 -39.5t-23.5 -23.5 t-43.5 -9q-19 0 -35.5 18.5t-28.5 49.5t-18.5 71.5t-6.5 85.5q0 28 3 57v-1q9 71 22.5 160.5t29.5 188.5t35.5 204.5t40 209t43 200.5t45 180t45.5 147.5t45 102.5l-1 -1q20 26 43.5 39t46.5 13q29 0 50 -25t21 -77q0 -14 -1.5 -31t-6.5 -37l1 1q-3 -9 -8 -21t-10 -22 q-17 -41 -34.5 -96t-31.5 -137q16 -29 46.5 -81t66.5 -113q35 -59 77 -128t81.5 -136t71.5 -125.5t46 -96.5q0 78 13 170.5t33 185.5t44.5 179t48.5 149l-1 -1q11 21 23 41t24 35.5t23.5 25t22.5 9.5t23 -15.5t25 -52.5z" />
<glyph unicode="O" horiz-adv-x="1060" d="M863 1424q26 -26 46 -66.5t33.5 -91.5t20 -110t6.5 -122q0 -120 -24.5 -242.5t-74.5 -224.5q-47 -104 -111 -190t-138 -148t-156.5 -96.5t-166.5 -34.5q-62 0 -119 18l4 -1q-27 19 -45.5 58.5t-30.5 91t-17 113t-5 124.5q0 59 4.5 118t11.5 111t16.5 93.5t20.5 67.5 l57 125q-9 0 -19.5 1.5t-19 3.5t-14.5 5.5t-6 8.5q-5 36 19 85.5t65.5 100t95 94.5t106.5 69q25 14 59 29.5t72.5 28t80 21t81.5 8.5q42 0 80 -11.5t68 -37.5v1zM639 1285q-37 0 -81.5 -13.5t-93.5 -37.5q-32 -36 -60 -89.5t-52 -117.5t-43 -134.5t-32.5 -140.5t-20.5 -136 t-7 -120q0 -65 11 -108.5t36 -56.5q36 -16 74 -16q58 0 111.5 35.5t100 90.5t83.5 121.5t62 127.5q28 71 41 152.5t13 156.5q0 44 -4 84t-12 73t-19.5 57.5t-25.5 38.5q-26 33 -81 33zM721 1251l-1 1l-2 2z" />
<glyph unicode="P" horiz-adv-x="1186" d="M844 1543q63 2 116 -19.5t91.5 -61t60 -93.5t21.5 -117q0 -36 -10 -76t-28.5 -81.5t-45 -82.5t-60.5 -79q-44 -42 -82.5 -76.5t-73 -64.5t-67 -56t-64.5 -51q-23 -18 -49.5 -39t-58.5 -46q-33 -27 -56.5 -38.5t-37.5 -11.5q-12 0 -18 10t-6 27q0 15 5 34.5t13.5 40 t20.5 40.5t26 38q25 26 49.5 48.5t49.5 45.5q42 37 94 86.5t120 125.5h-1q45 45 64.5 90t19.5 87q0 35 -12.5 65t-35 51.5t-53 33t-66.5 10.5q-18 -2 -39.5 -4.5t-46.5 -5.5h1q-52 -6 -107.5 -13.5t-100.5 -21.5q-30 -90 -56 -205t-48 -240t-39.5 -253t-30 -243t-19 -210 t-6.5 -154q0 -73 11 -87q42 -39 59 -69.5t17 -53.5q0 -27 -20.5 -47.5t-52.5 -34.5q-7 -5 -24.5 -10t-38.5 -5t-43 8t-40 30t-28.5 60.5t-7.5 98.5q0 69 5.5 206.5t25.5 324t60 411t108 467.5q-12 -3 -27 -6t-30.5 -6.5t-31 -6.5t-27.5 -6q-22 8 -30.5 19.5t-8.5 25.5 q0 21 16 44.5t38.5 45t45.5 38t38 23.5q43 8 92 15.5t107 13t126 9t149 3.5h38t40 -1z" />
<glyph unicode="Q" horiz-adv-x="1295" d="M770 568q-37 53 -79.5 83t-88.5 27q-23 -12 -40 -36t-28.5 -54t-17 -63t-5.5 -63q0 -29 5 -53t14.5 -40t23.5 -22t32 2q19 6 47 27.5t56 51t51 64t32 65.5zM985 555q21 -37 53.5 -86t73.5 -97q32 -40 67.5 -59.5t62.5 -30.5q19 -7 30 -14t12 -18q-6 -41 -34 -63.5 t-68 -22.5q-33 0 -73 15t-82 47q-17 9 -34 27.5t-35 43.5t-38 55t-42 62q-31 -54 -69 -95.5t-80 -69t-85.5 -41.5t-83.5 -14q-42 0 -80 14.5t-66.5 43t-45 72t-16.5 101.5q0 14 1.5 30t3.5 33q6 42 19 95t32.5 101.5t47 84t62.5 41.5q31 6 64 6q60 0 124.5 -25.5 t138.5 -88.5q59 91 84 187t25 178q0 75 -16.5 132.5t-44.5 79.5q-16 19 -39 26.5t-51 7.5q-30 0 -64.5 -8t-67.5 -21t-61.5 -29t-47.5 -31l1 1q-58 -35 -107.5 -90.5t-90.5 -124t-72 -145.5t-51 -153q-12 -45 -17.5 -88.5t-5.5 -83.5q0 -50 7 -94t18.5 -80.5t25 -65.5 t25.5 -48q41 -49 59 -84.5t18 -58.5q0 -20 -14 -30.5t-35 -10.5q-26 0 -60.5 14.5t-69.5 40.5q-38 41 -65.5 91t-45 105.5t-25.5 114.5t-8 118q0 76 11.5 146.5t31.5 129.5q34 103 81.5 188.5t100.5 154.5t107.5 123t103.5 93q30 21 71.5 41t89 35.5t98.5 24.5t99 9 q57 0 107 -14t83 -46h-1q54 -58 79 -144.5t25 -187.5q0 -65 -10 -134t-29.5 -138t-47.5 -136t-64 -128v-14z" />
<glyph unicode="R" horiz-adv-x="1241" d="M760 1438q82 -2 149 -19.5t114 -47t73 -70t26 -87.5q0 -57 -37 -122.5t-118 -135.5h1l-244 -197q-14 -14 -20 -28.5t-6 -29.5q0 -20 8.5 -41t22.5 -41t31 -39.5t34 -36.5q49 -39 99 -80.5t97 -83t87 -80t69 -71t43 -57t9 -36.5q-9 -12 -21.5 -19.5t-25.5 -7.5 q-37 0 -93.5 39t-135.5 102q-29 23 -61 48t-67 51q-29 21 -59 45.5t-58 48t-51.5 44t-39.5 34.5l-12 12q-40 32 -62 65t-22 69q0 48 44 106v-1q21 23 55.5 53t74.5 65h-1q43 36 88 75.5t81 77.5q15 16 29.5 34.5t26 37.5t18.5 38t7 36q0 19 -9 36t-30.5 29.5t-56 20.5 t-85.5 9l-262 -9q-15 -55 -32 -128.5t-35.5 -158t-37.5 -177t-36.5 -185.5t-33 -183t-28 -170t-20 -145.5t-9.5 -110.5q1 -9 1 -17v-16q0 -32 -6.5 -50.5t-17.5 -28t-26.5 -12.5t-34.5 -5q-2 0 -3.5 -0.5t-2.5 -0.5q-49 11 -69 46t-20 87v19t1 20v-1q1 6 7.5 45.5t17 103.5 t24.5 147.5t31 177t36 193t39 195.5t40 184t40 159h-52q-34 -7 -50.5 9.5t-16.5 42.5q0 15 6 32t18.5 31t30.5 25t42 14l63 5q4 14 9 33.5t9 33.5l-1 -1q7 24 12.5 40.5t14.5 27.5t25 17.5t43 9.5q19 3 32 3q35 0 48.5 -15t13.5 -37q0 -20 -10.5 -49t-24.5 -59z" />
<glyph unicode="S" horiz-adv-x="951" d="M721 1353q-12 -7 -40 -22.5t-59 -34t-60 -37t-43 -30.5h1q-28 -23 -46 -43.5t-28.5 -38.5t-14.5 -35.5t-4 -34.5q0 -42 14.5 -76.5t40 -66t60 -61t74.5 -61.5q48 -38 91.5 -78.5t68.5 -82.5v1q27 -49 40 -96t13 -90q0 -97 -58.5 -174t-155.5 -133q-42 -24 -90.5 -45 t-98.5 -39.5t-100.5 -34t-95.5 -29.5q-20 -6 -37.5 -8.5t-34.5 -2.5q-42 0 -65 16.5t-23 40.5q0 25 28.5 53t88.5 48q46 15 92.5 35t90 42t82.5 43.5t71 39.5q56 31 80 68.5t24 76.5q0 35 -14 68.5t-34 65.5q-23 35 -69 76.5t-94 81.5q-40 33 -80.5 68.5t-73.5 72 t-53.5 73.5t-20.5 72q0 40 11 79t36 77t65 74t98 71q22 14 48.5 30.5t53.5 32.5t53 29t47 21q70 29 121 41t86 12q59 0 59 -28q0 -25 -36 -59.5t-108 -66.5z" />
<glyph unicode="T" horiz-adv-x="1076" d="M674 1235q-11 -22 -25.5 -78t-30 -134.5t-32 -173t-32 -193t-29 -194.5t-24.5 -178t-18 -143t-9 -90v2q-16 -78 -43 -117t-52 -39q-21 0 -37 32.5t-16 96.5q0 10 0.5 21.5t1.5 21.5q2 24 6 76t10.5 123t14 156.5t17 176t19.5 181.5t20.5 173.5t21.5 151.5t22 116 l-348 -26q-22 -2 -38 4.5t-26.5 19t-16.5 29.5t-9 36q5 19 13 35t22 28.5t35 20t53 10.5q35 2 104 2.5t155 1.5q70 0 146 1t147.5 2.5t132 4t101.5 6.5q23 4 43.5 1t36.5 -11t25 -19.5t9 -24.5q0 -12 -9 -24t-29 -23t-52.5 -20t-79.5 -15z" />
<glyph unicode="U" horiz-adv-x="1228" d="M1122 1450q29 -2 40.5 -23t11.5 -58q0 -108 -14 -226t-36 -238.5t-50.5 -240t-56.5 -231.5q-21 -81 -70.5 -138.5t-113.5 -96.5t-135 -62t-135 -36h1q-43 -7 -80.5 -10t-71.5 -3q-154 0 -228 72t-74 224q0 49 9 109q8 66 20 152t27 177.5t33 181t37.5 163.5t39.5 124 t41 63q20 5 34 5q44 0 68.5 -30t24.5 -73q0 -26 -11 -57q-11 -29 -24 -79.5t-26.5 -113.5t-26.5 -133t-24.5 -138t-20.5 -129t-14 -105v2q-8 -40 -8 -75q0 -34 8 -63t27 -50.5t49 -33.5t75 -12q21 0 44.5 2.5t48.5 8.5q73 16 128.5 37t96.5 55.5t68 86.5t43 129 q11 58 22 122t21 127.5t19.5 123.5t17 111t12.5 90t8 60q7 71 17.5 117t27 72t40.5 35t60 5z" />
<glyph unicode="V" horiz-adv-x="1140" d="M1078 1224q-43 -114 -93 -231t-101 -228t-101.5 -212.5t-95 -184.5t-81 -143t-60.5 -89q-29 -39 -62 -56.5t-65 -17.5q-42 0 -83 25t-75.5 66.5t-58.5 95t-33 111.5v-1q-20 180 -29.5 368t-14.5 369q-2 42 -2.5 86t-2.5 83q2 46 30.5 70t63.5 24q20 0 39.5 -7t34.5 -20 t23.5 -32t6.5 -43v-59q0 -62 1.5 -131.5t4.5 -140t6.5 -139t7 -128t7.5 -108t7 -79.5q8 -71 26.5 -100t41.5 -29q28 0 55 32q22 34 52 88.5t64.5 121.5t72.5 144t76 157.5t76 160.5t72 153q39 84 71.5 153t55.5 116l-1 -1q13 18 24 18q10 0 20.5 -11t18.5 -30.5t13 -47 t5 -59.5q0 -26 -4 -55.5t-13 -59.5v1z" />
<glyph unicode="W" horiz-adv-x="1517" d="M712 1367q11 2 25.5 -5.5t28.5 -26t27.5 -49t23.5 -75.5q14 -53 28.5 -121t29.5 -137q10 -50 21.5 -101t22 -99.5t21 -92t19.5 -78.5q4 -17 10.5 -42t15 -48t19 -39.5t23.5 -16.5q26 0 47.5 43.5t41.5 116.5t40 168t43.5 198t51.5 207t64 194q21 85 51.5 125.5t56.5 40.5 q21 0 35 -27.5t14 -80.5q0 -25 -4 -55t-13 -65q-24 -97 -50 -204t-54 -216t-57 -216t-58.5 -203t-58 -177.5t-55.5 -139.5q-16 -29 -38.5 -44.5t-39.5 -15.5q-28 0 -57 24t-55 60.5t-48 81t-36 86.5q-11 28 -25.5 78t-30.5 111t-32 130t-30.5 135t-26 126t-18.5 103 l-266 -864q-6 -21 -16.5 -41t-24.5 -35.5t-30.5 -24.5t-34.5 -9q-25 0 -50.5 24t-48.5 83v-1q-17 56 -31.5 130.5t-26.5 159t-20.5 175.5t-14.5 180.5t-9 173.5t-3 156v45.5t1 41.5q5 92 29.5 139t53.5 47q26 0 47 -41.5t21 -124.5q0 -46 4 -116.5t10 -151.5t13.5 -165.5 t15 -158.5t14 -129.5t10.5 -79.5q11 30 24.5 75t28.5 96.5t30.5 106t29.5 104.5q13 47 24 89.5t20 75.5l-1 -1q65 195 122 293.5t103 94.5h3z" />
<glyph unicode="X" horiz-adv-x="1140" d="M1003 1658q36 -17 57 -34t21 -40q0 -20 -15 -49.5t-44 -67.5q-13 -18 -36 -56t-53 -90.5t-65 -116.5t-73 -134.5t-77 -143t-76 -142.5q66 -106 141.5 -218t144.5 -230q48 -85 70.5 -141t22.5 -85q0 -24 -15 -24q-24 0 -66 34.5t-90 100.5l-306 408q-55 -111 -114.5 -231 t-114.5 -232h1q-22 -39 -39 -68t-32 -48.5t-30.5 -29t-34.5 -9.5q-10 0 -19 2t-20 5l3 -1q-24 17 -34 39t-10 48q0 44 21 96t47 105h-1l254 476l-174 231q-81 104 -115.5 164.5t-34.5 91.5q0 21 21 31.5t52 15.5q11 2 21 3t18 1q21 0 35.5 -6.5t26.5 -20t23.5 -33.5 t26.5 -48q6 -11 12.5 -23t14.5 -26l173 -240q16 30 34 63.5t36 68.5t35.5 69.5t33.5 66.5q39 77 76.5 150t71 134t61.5 105.5t48 65.5q11 11 25 16t27 5q15 0 34 -8z" />
<glyph unicode="Y" horiz-adv-x="1128" d="M556 624q-9 -54 -14.5 -119.5t-9.5 -133t-6.5 -133t-3.5 -118.5q-2 -46 -3 -79t-3 -48q0 -39 -6.5 -64t-18 -39.5t-27 -19.5t-33.5 -5q-14 0 -30 3q-23 4 -38.5 17t-25.5 33.5t-14.5 46.5t-4.5 57q1 10 2 33.5t3 58.5q2 46 5.5 108.5t9 132t12.5 142t16 138.5 q-4 6 -10 15.5t-11 17.5q-14 21 -31 48.5t-34.5 57t-34 58t-28.5 52.5q-33 71 -58.5 130t-44 109.5t-31.5 92.5t-22 80v-2q-3 25 -3 39q0 51 19 77t46 26t57 -29.5t50 -77.5l89 -262q2 -5 5.5 -12.5t6.5 -14.5q11 -25 26 -56.5t32.5 -60t36.5 -48t37 -19.5q11 0 19.5 5 t16.5 16q27 38 60.5 89t70.5 110.5t77 124t79 128.5q57 94 110.5 180.5t95.5 149.5l-1 -1q18 20 39 20q27 0 49.5 -27t22.5 -73q0 -23 -6.5 -47t-20.5 -50v1z" />
<glyph unicode="Z" horiz-adv-x="1245" d="M1073 308q-115 -67 -232 -109.5t-221.5 -68t-190.5 -38.5t-139 -20h1q-8 -1 -14.5 -1h-13.5q-36 0 -60.5 8t-39.5 21.5t-21.5 32t-6.5 40.5q0 30 9 62t21.5 63t27.5 58.5t27 47.5q9 16 28.5 45t46 66.5t59 83t68.5 94.5l108 130q35 42 72.5 86.5t72.5 86.5v-1 q32 35 45 63t13 51q0 21 -10 36.5t-26.5 26t-38 17.5t-45.5 12l-366 56q-81 6 -116.5 19.5t-35.5 36.5q0 24 28.5 60t79.5 87q10 -2 21.5 -5t26.5 -7q37 -9 86.5 -21t106 -24.5t118 -25.5t121.5 -24q80 -15 136.5 -33.5t92 -40t52 -47t16.5 -53.5q0 -29 -15 -62.5t-42 -70 t-64.5 -77t-82.5 -83.5l-50 -60l-101 -126q-46 -59 -93 -122.5t-83 -118.5q-10 -15 -19 -34t-16.5 -39.5t-12 -40t-4.5 -34.5q0 -31 14 -47.5t49 -6.5h-1q130 16 277.5 55.5t290.5 104.5q41 19 78 28.5t64 9.5q44 0 44 -19t-32 -50t-108 -78z" />
<glyph unicode="[" horiz-adv-x="956" d="M634 1610q-7 -7 -18.5 -48t-25.5 -107.5t-30.5 -153.5t-34 -186.5t-35.5 -206.5t-35 -213.5t-32.5 -207.5t-28.5 -188t-23 -156t-15 -111q0 -9 -0.5 -19.5t-0.5 -19.5q0 -42 4 -82t11.5 -71.5t19.5 -50.5t28 -19q7 0 13 0.5t12 0.5q36 1 66 3t60 5.5t63 10t75 17.5 q11 3 21.5 4t18.5 1q35 0 58.5 -14t23.5 -35q0 -17 -22 -37.5t-74 -39.5q-12 -5 -27 -12q-23 -10 -52.5 -21.5t-67.5 -22t-84.5 -17.5t-101.5 -7h-29t-32 2q-37 2 -65 24.5t-47.5 60.5t-29.5 88.5t-10 109.5q0 55 9 114q1 17 9 84t21.5 167.5t31.5 226t38 259t41.5 267 t41.5 250t38.5 208t32.5 140.5q-11 -1 -29 -2.5t-31 -2.5q-25 7 -49 18t-43.5 24t-33 27t-17.5 26q0 20 9.5 33.5t24.5 22t34 12t40 3.5q29 0 64 -1.5t73 -3.5q44 -2 89 -4t87 -2t79 2.5t65 8.5q13 4 28.5 1.5t28.5 -9.5t21.5 -17.5t8.5 -23.5q0 -23 -40 -48.5t-137 -45.5z " />
<glyph unicode="\" horiz-adv-x="1282" d="M161 1739q12 0 22 -5t22 -17t26.5 -31.5t35.5 -47.5q18 -24 50.5 -80.5t75.5 -134.5t94.5 -174.5t106 -201t110.5 -213.5t108.5 -212t99.5 -196.5t84 -168t61 -125t31 -68.5t17 -48t15.5 -60t3.5 -53t-18 -28q-12 -4 -30.5 10.5t-37 36t-33.5 43t-21 31.5 q-22 39 -57 103.5t-79.5 145.5t-96 175.5t-106.5 194.5t-111 201.5t-109 197t-101 181t-86.5 153.5t-66.5 114.5t-41 63.5q-26 42 -37 74.5t-11 57.5q0 35 21 58t58 23z" />
<glyph unicode="]" horiz-adv-x="956" d="M615 -314q0 -25 -9.5 -41.5t-24.5 -27t-35 -14.5t-41 -3q-50 2 -98.5 4.5t-96 2.5t-93.5 -5.5t-90 -18.5q-13 -2 -27 1.5t-26 11t-19.5 18.5t-7.5 24q0 12 9 26.5t29.5 28.5t54.5 26t84 18l85 11q5 9 14 53t21.5 114t27.5 161t31 194t32 214t31 220t28 211.5t23 190 t15.5 155t5.5 106.5q0 62 -3.5 106.5t-14.5 73.5t-31.5 43t-54.5 14q-22 -1 -45.5 -6t-50.5 -11t-59 -10.5t-71 -4.5q-38 0 -62 14.5t-24 37.5q0 18 21.5 39t72.5 41q38 10 72.5 21t69 20t71 14.5t77.5 5.5q106 0 156.5 -86t50.5 -251q0 -43 -6.5 -124.5t-18.5 -188.5 t-27.5 -233t-33 -258t-36 -262.5t-36 -246.5t-33.5 -211t-28 -156q29 12 45.5 12.5t32.5 0.5q15 0 23.5 -8t13 -19.5t5.5 -24.5t1 -23z" />
<glyph unicode="^" horiz-adv-x="956" d="M783 1403q11 -36 17 -78t6 -75q0 -29 -5 -46.5t-17 -12.5q-20 0 -40.5 17t-40.5 43t-39 58.5t-35 62.5h1l-106 223q-13 -3 -29.5 -18.5t-34.5 -37t-37 -47.5t-36 -51q-16 -21 -29.5 -40.5t-24.5 -33.5q-9 -10 -17 -21.5t-16 -22.5q-19 -26 -40 -51.5t-42 -44.5t-41 -27.5 t-38 0.5q-7 3 -7 19q0 25 14.5 66.5t38.5 92t56 105.5t66 108.5t69 101.5t66 83h-2q52 51 101 51q28 0 51 -18t39 -56q21 -39 37.5 -74t31 -67.5t26.5 -63.5l24 -62q8 -20 15.5 -40.5t17.5 -43.5v1z" />
<glyph unicode="_" horiz-adv-x="1262" d="M1015 -206q105 -5 147.5 -19.5t42.5 -33.5q0 -12 -14.5 -25t-37 -24.5t-50.5 -20t-55 -11.5q-72 -1 -149 -4t-153.5 -8t-150.5 -11.5t-140 -12.5q-155 -15 -303 -33q-17 -3 -29 -3q-23 0 -38.5 9.5t-15.5 33.5q0 11 4 26.5t11 35.5q11 17 23.5 28.5t23.5 19.5 q8 6 15.5 11.5t12.5 11.5q199 20 350 25t270 5h236z" />
<glyph unicode="`" horiz-adv-x="702" d="M481 1487q14 -45 25 -91.5t11 -82.5q0 -30 -10 -44h1q-11 -15 -32 -5t-44 32.5t-44 52.5t-32 55q-14 21 -32 51.5t-36.5 64.5t-36.5 69t-33 64t-26 50.5t-14 28.5q18 25 39 45q18 17 41 32t47 19q13 2 32.5 -26.5t40.5 -71.5t42 -94t38 -94q6 -16 12 -30.5t11 -25.5v1z " />
<glyph unicode="a" horiz-adv-x="1209" d="M1100 232q-36 -42 -68.5 -68.5t-63.5 -42t-62.5 -23.5t-65.5 -14q-38 -4 -66.5 21t-47 66t-28 92t-9.5 99q-24 -35 -48.5 -67t-47 -59t-42.5 -47.5t-34 -30.5v1q-61 -44 -119.5 -65t-110.5 -21q-76 0 -127 45q-42 39 -62 110t-20 157q0 97 24.5 200.5t71.5 195.5 q36 75 76 125t81 80t83 43t81 13q46 0 88 -15t76 -36q65 -33 96.5 -64t31.5 -52q0 -17 -21 -26.5t-63 -9.5q-45 0 -112 16l-10 2t-13 4q-10 2 -23.5 5t-36.5 3q-20 0 -41.5 -5.5t-44 -20t-45 -40.5t-43.5 -66q-21 -41 -38 -86t-29 -90t-18.5 -88.5t-6.5 -79.5 q0 -37 8.5 -65.5t26.5 -47.5q29 -16 66 -16q45 0 89.5 27t88 74.5t84.5 112.5t79 142q16 35 42 50.5t52 15.5q17 0 32.5 -6t26 -16.5t15 -26t-0.5 -33.5l-32 -186q0 -29 1 -57.5t7.5 -51.5t20.5 -37.5t40 -14.5q23 0 61 19.5t92 64.5q29 19 60.5 32t50.5 13q14 0 22 -5 t8 -16q0 -19 -18.5 -51.5t-63.5 -80.5v-1z" />
<glyph unicode="b" horiz-adv-x="1008" d="M902 594q-24 -70 -64.5 -146t-110.5 -149.5t-175 -139t-256 -113.5q-50 -15 -83 -15q-36 0 -52 14.5t-16 35.5q0 15 6.5 31.5t19 31.5t30.5 26.5t40 17.5q72 21 148.5 56t146 90.5t125.5 135.5t88 191q6 24 6 48q0 34 -12.5 55.5t-33 33t-45 14.5t-48.5 -1 q-20 -5 -49.5 -16.5t-63 -30.5t-68.5 -46.5t-65.5 -63.5t-54 -81.5t-34.5 -100.5q-1 -9 -3 -20.5t-3 -20.5q-15 -38 -31.5 -70t-30.5 -37q-17 -10 -32.5 -4t-27.5 25.5t-19 52t-7 74.5q0 15 1.5 32t3.5 37q7 66 16.5 149.5t21 175.5t25 187.5t27.5 186t29 171t30 142.5 q8 45 33.5 73.5t82.5 42.5q30 8 46 8q46 0 46 -47q0 -24 -8.5 -54.5t-24.5 -68.5q-10 -25 -22 -74.5t-25.5 -113.5t-27.5 -138.5t-25.5 -149t-20.5 -144.5t-14 -125q81 103 153.5 153t138.5 67q52 11 90 11q55 0 97 -17.5t70 -49.5t42 -76.5t14 -98.5q0 -75 -24 -157z" />
<glyph unicode="c" horiz-adv-x="923" d="M765 986q15 -45 22 -81t7 -64q0 -70 -37 -70q-22 0 -52.5 24t-62.5 70q-14 23 -45 23q-26 0 -62 -19t-72 -48.5t-67 -65.5t-49 -71l1 1q-18 -29 -32 -64t-24 -72.5t-15.5 -75.5t-5.5 -73q0 -60 18.5 -106t57.5 -61q10 -2 23 -3.5t31 -1.5q48 0 111 21t127 70 q16 12 31.5 24t29.5 25h-1q33 27 61.5 48t52.5 19q20 -2 28.5 -14t8.5 -30q0 -19 -7 -41t-19 -44t-27.5 -42t-33.5 -35q-36 -36 -87 -67.5t-109.5 -55t-120 -37t-118.5 -13.5q-29 0 -55.5 3.5t-49.5 11.5h2q-71 35 -104 108.5t-33 167.5q0 102 33 213.5t91 213.5v-1 q32 52 85.5 102t115 90t125.5 64.5t117 24.5q39 0 67.5 -16t42.5 -53v1z" />
<glyph unicode="d" horiz-adv-x="1302" d="M1120 1527q-11 -28 -23.5 -75t-26 -107.5t-27.5 -130.5t-28 -144.5t-27 -150.5t-25 -147q-5 -34 -9.5 -71t-7.5 -74t-5 -72t-2 -64q0 -25 1 -47t3 -40q5 -44 20.5 -72t47.5 -28q20 0 46.5 15.5t61.5 51.5q35 39 71 61.5t59 22.5q21 0 21 -21q0 -23 -20.5 -64.5 t-67.5 -104.5q-45 -63 -92.5 -98t-93.5 -51q-18 -5 -31 -5q-35 0 -61.5 25.5t-45 64.5t-29 86t-11.5 89q-13 -36 -37 -74.5t-53.5 -74t-62.5 -64.5t-63 -45q-51 -32 -100 -45.5t-95 -13.5q-58 0 -111 18.5t-91 45.5q-26 21 -46.5 52t-34.5 68.5t-21.5 80.5t-7.5 88 q0 71 17 142.5t52 133.5v-1q32 52 76.5 94.5t90 73.5t87.5 49.5t69 23.5q42 10 76 14t60 4q41 0 61.5 -7.5t20.5 -19.5q0 -20 -40.5 -47.5t-126.5 -56.5q-27 -14 -58 -34t-59.5 -44t-51.5 -50.5t-36 -53.5q-26 -42 -39.5 -93.5t-13.5 -99.5q0 -58 17 -105t52 -67 q46 -24 94 -24q57 0 109 34.5t96 98t78 153t55 199.5q9 54 22 122.5t27 143.5t29 153t29.5 149.5t28 133.5t24.5 106q5 14 8 25.5t6 22.5q3 14 7 25.5t12 21t21 17.5t36 14l-1 -1q20 4 36 4q38 0 51 -21t13 -49q0 -17 -3.5 -36.5t-7.5 -34.5z" />
<glyph unicode="e" horiz-adv-x="1051" d="M778 865q-15 20 -39.5 30t-55.5 10q-27 0 -56.5 -7t-58 -21t-55 -34.5t-46.5 -47.5q-21 -30 -36.5 -54t-27.5 -49t-20.5 -53.5t-16.5 -66.5q39 -3 78.5 1.5t77.5 15t73 25.5t67 33q23 14 46.5 32.5t42 39.5t30.5 43.5t12 45.5q0 26 -15 56v1zM878 990q90 -84 90 -178 q0 -67 -49 -135t-153 -132q-45 -28 -85.5 -46.5t-80.5 -31t-82 -21t-91 -16.5q-14 -2 -32.5 -5t-34.5 -6q-6 -10 -10 -26.5t-4 -36.5q0 -16 2.5 -33.5t8 -34t14.5 -30.5t22 -22q51 -29 109 -29q64 0 133 32.5t150 78.5q15 9 27.5 18.5t24.5 17.5q33 25 67.5 45.5t64.5 16.5 l-2 1q25 -9 25 -39q0 -17 -6.5 -36.5t-17 -38t-24 -35.5t-28.5 -28q-39 -39 -94 -71.5t-119 -56t-131 -36t-130 -12.5q-43 0 -81.5 6t-70.5 20q-37 14 -63.5 43.5t-43 68t-23.5 83t-6 88.5q-16 -2 -28.5 -3.5t-20.5 -1.5q-28 0 -40.5 10t-12.5 25q0 16 9 34.5t26 37t41 35.5 t53 29q13 61 34 121q18 51 46.5 109.5t70.5 107.5v-1q36 40 81.5 71.5t94.5 53.5t99.5 33t98.5 11q51 0 95.5 -13.5t76.5 -42.5v1z" />
<glyph unicode="f" horiz-adv-x="1064" d="M910 1682q30 -33 52 -61.5t38 -57t27.5 -58.5t21.5 -67q-8 -22 -19.5 -42t-25 -35.5t-29 -24.5t-30.5 -9q-13 0 -26 11q-6 5 -9.5 18.5t-8.5 31.5q-8 33 -24 76t-59 90q-18 17 -42.5 27.5t-49.5 10.5q-30 0 -56.5 -20.5t-40.5 -73.5q-6 -22 -15 -62t-19.5 -90.5 t-22.5 -108.5t-23 -116.5t-21 -114.5t-17 -102l356 29q26 4 46.5 5.5t37.5 1.5q72 0 72 -22q0 -19 -33.5 -42.5t-95.5 -44.5l2 1q-50 -14 -96.5 -24.5t-91.5 -19.5t-90 -17t-92 -17q-5 -1 -15.5 -2.5t-16.5 -2.5q-24 -155 -43.5 -298.5t-34 -261t-22 -200.5t-7.5 -117 q38 -38 54.5 -68.5t16.5 -53.5q0 -32 -29.5 -52t-72.5 -22q-10 -2 -36 -1t-53.5 17.5t-48.5 55t-21 111.5q0 11 0.5 20.5t1.5 20.5q2 29 9.5 103t21 182t31.5 245.5t41 294.5l-172 -24q-19 -4 -33 -4q-37 0 -56 17.5t-19 45.5q0 25 17 55.5t55 59.5l-2 -2q1 1 19 1.5t44 2.5 q38 2 87 4.5t92 8.5q7 53 17.5 116t23 127.5t26 128t26 118.5t23 98t17.5 68q13 58 37.5 100t56.5 69t70 39.5t77 12.5q55 0 108.5 -22.5t94.5 -62.5h-1zM1050 1436q-1 1 -1 2q1 1 1 2t1 3z" />
<glyph unicode="g" horiz-adv-x="989" d="M757 777q5 19 12.5 31.5t18 22t24 17.5t30.5 17l2 1q13 5 26 8.5t24 3.5q19 0 31.5 -12.5t12.5 -44.5q0 -13 -2.5 -30t-9.5 -39q-20 -78 -30.5 -177.5t-19.5 -208.5q-7 -74 -13.5 -148t-17.5 -146q-12 -89 -50 -174.5t-96 -153.5t-133.5 -112t-163.5 -50q-33 1 -67 10.5 t-65 26t-57 39.5t-43 50q-38 63 -55.5 106.5t-17.5 68.5q0 16 7.5 22.5t18.5 6.5q15 0 33.5 -7.5t37.5 -20t37.5 -30t33.5 -38.5q29 -38 61 -54t68 -19q51 -3 101.5 23.5t93.5 77t73.5 120t40.5 151.5q1 16 2.5 35.5t4.5 40.5q4 38 7 92t3 136q-78 -116 -155.5 -175.5 t-141.5 -77.5q-20 -5 -39 -7.5t-36 -2.5q-60 0 -107.5 24.5t-80 67t-49.5 98.5t-17 119q0 92 38 188q16 39 38 82.5t53 86t73 82t98 72t128 55.5t164 33q9 1 18.5 1.5t17.5 0.5q59 0 86.5 -18t27.5 -42q0 -14 -9 -28t-25.5 -26t-41 -20t-55.5 -9q-80 -5 -142.5 -27 t-111 -60.5t-85 -92.5t-64.5 -123q-8 -23 -12 -48t-4 -50q0 -37 9 -72.5t25.5 -62.5t38 -43t47.5 -14q76 10 138.5 60.5t122.5 150.5q11 19 24 49.5t25.5 64.5t23.5 66.5t17 55.5z" />
<glyph unicode="h" horiz-adv-x="1167" d="M418 918q75 42 141 61t120 19q97 0 152.5 -55.5t55.5 -152.5q0 -81 -7 -165.5t-11 -166.5q-1 -15 -1.5 -28.5t-0.5 -24.5q0 -44 9 -61t28 -17q9 0 19.5 5t21.5 13.5t22 18.5t20 20q36 41 68 65t60 24q11 0 18.5 -6.5t7.5 -18.5q0 -23 -19.5 -72t-71.5 -113 q-29 -36 -52.5 -63t-46 -45.5t-46.5 -28t-55 -9.5q-29 0 -55 22t-45 59.5t-30 86.5t-9 103q2 33 4.5 74t5 82.5t5 78.5t5.5 61q2 18 -3 43t-18.5 48t-36.5 39.5t-57 16.5q-36 0 -93 -30l-160 -110q-7 -31 -13.5 -67t-13.5 -73.5t-13 -73.5t-11 -67q-8 -47 -13.5 -83.5 t-9.5 -50.5q0 -38 -11.5 -75t-28 -68t-35 -51.5t-33.5 -25.5q-12 0 -26 7t-26 21.5t-20 37t-8 54.5q0 34 12 85l42 315q-17 -3 -30.5 -5t-18.5 -2q-45 0 -45 35q0 32 35.5 82t113.5 111q20 99 43 203t45.5 199.5t42.5 175t34 129.5l-1 -1q9 27 16.5 47t19 34t29 24t45.5 17 q9 3 17.5 4t14.5 1q28 0 40 -16.5t12 -43.5q0 -25 -7.5 -55.5t-21.5 -64.5q-10 -27 -26.5 -83t-36 -129.5t-40 -159t-36.5 -171.5z" />
<glyph unicode="i" horiz-adv-x="546" d="M328 1593q16 -3 26 -5.5t21.5 -4.5t29.5 -3.5t50 -1.5q29 -2 51 -12.5t22 -26.5q0 -12 -9 -25t-31.5 -26t-60.5 -25t-96 -21q-50 -8 -84.5 -11t-59.5 -3q-31 0 -51 4q-35 7 -48 25t-13 42q0 11 1.5 23t5.5 24q7 27 36 42.5t98 15.5q33 0 58.5 -3t53.5 -8zM398 837 q-13 -29 -25 -73.5t-23 -99t-20.5 -114t-17 -118t-13 -112.5t-7.5 -95q-5 -48 -14.5 -87t-22 -67t-27 -43t-29.5 -15q-32 0 -55.5 53t-20.5 157q2 17 4 43t4 56q4 46 8.5 101t10 112.5t11.5 115t12 108t12.5 91.5t12.5 66q12 49 23.5 79t23.5 46t24 21.5t23 5.5q20 0 43 -8 t42.5 -23.5t32.5 -39.5t13 -57q0 -20 -5.5 -46t-19.5 -57z" />
<glyph unicode="j" horiz-adv-x="966" d="M873 1578q32 -2 55 -13.5t23 -28.5q0 -12 -12.5 -24.5t-41 -25t-75 -24t-115.5 -20.5q-51 -8 -86 -11t-61 -3q-30 0 -49 4q-37 8 -50 27.5t-13 44.5q0 19 5 42q8 27 39 44.5t100 15.5q35 -1 61.5 -4t55.5 -8q31 -5 68 -9t96 -7zM789 915q-14 -36 -27.5 -106t-28 -161 t-28.5 -194t-28 -205q-10 -71 -19.5 -141t-18.5 -133t-17.5 -115.5t-16.5 -88.5q-12 -39 -36.5 -73.5t-58 -60.5t-74 -41.5t-83.5 -15.5q-64 0 -129.5 38.5t-118.5 128.5v-1q-37 70 -52.5 123t-15.5 90q0 30 8 46t20 17q21 -4 43 -24.5t44.5 -49.5t45.5 -62t47 -60.5t49 -46 t51 -18.5q37 0 60.5 50t40.5 136q6 33 15.5 102t20.5 159q8 67 17.5 142t20 151.5t21.5 151.5t22.5 141t23.5 120.5t24 90.5q12 42 31.5 59.5t41.5 17.5q20 0 40 -11.5t35.5 -30.5t25 -43t9.5 -49q0 -17 -5 -34v1z" />
<glyph unicode="k" horiz-adv-x="1082" d="M220 747q2 16 5 32t6 33q11 66 23.5 137l25 142t25.5 139t26.5 128.5t26.5 110t26 82.5v-1q23 46 48.5 65.5t48.5 19.5q18 0 34.5 -9t28.5 -24.5t19.5 -36t7.5 -43.5q0 -26 -9 -50q-17 -48 -36.5 -123t-39.5 -165.5t-39.5 -191t-34.5 -200.5l164 99q31 18 68.5 38t77 40 t78.5 39.5t73 34.5q17 8 31 10.5t28 2.5q27 0 41.5 -13.5t14.5 -35.5q0 -28 -26 -63l1 2q-5 -5 -21.5 -15t-41 -24.5t-56 -33t-66.5 -38.5q-50 -28 -103.5 -58.5t-105 -61t-97.5 -59t-80 -52.5q23 -16 64.5 -41.5t89.5 -53t96.5 -54.5t86.5 -46v1q32 -19 72 -43t80 -50.5 t77 -52.5t63.5 -47.5t38.5 -37t3 -20.5q-19 -10 -50 -10q-45 0 -102.5 18t-115 42.5t-107.5 51t-78 43.5q-26 12 -60.5 27.5t-70 33t-69.5 35.5t-59 34l-27 -224q-3 -23 -4.5 -43.5t-2.5 -40.5q-1 -30 -3 -55t-8.5 -44t-18.5 -29.5t-33 -10.5q-6 0 -21 2.5t-20 4.5 q-17 5 -32.5 11t-27.5 19t-19.5 35.5t-7.5 59.5q0 21 2.5 47t7.5 58l36 263q-8 5 -19.5 11t-19.5 10q-11 5 -22 11t-19 14t-13 20.5t-5 30.5q0 12 3 29q9 23 23 40.5t32 32t39 27t43 24.5z" />
<glyph unicode="l" horiz-adv-x="580" d="M439 1517q-14 -39 -28 -99t-27.5 -134t-25.5 -158.5t-22.5 -172.5t-19 -175.5t-14.5 -168t-9.5 -149.5t-3.5 -120q0 -50 3.5 -80.5t13.5 -38.5q22 -14 46 -8.5t49.5 16.5t51 23t49.5 12q17 0 31.5 -5.5t28.5 -19.5q-17 -45 -52.5 -84t-75 -68.5t-76.5 -49t-58 -26.5 q-5 -2 -15 -3.5t-25 -1.5q-20 0 -44.5 7.5t-47 31t-39 67t-20.5 115.5q-1 11 -1 25v30q0 52 3 125t9 160t14.5 184t19.5 196t24 196.5t28 185.5t32 163t35 129q18 30 39.5 45.5t41.5 15.5q18 0 34.5 -9t29 -25.5t20 -38.5t7.5 -47q0 -24 -6 -45z" />
<glyph unicode="m" horiz-adv-x="1661" d="M1634 446q0 -19 -16 -64t-48 -94q-59 -101 -130 -144t-149 -43q-33 0 -61 11.5t-48 35.5t-30 61.5t-7 89.5q16 94 33 186t31 186q5 36 -1.5 64.5t-21 45t-35 19t-44.5 -12.5q-21 -13 -46.5 -31t-49.5 -45t-44.5 -65t-30.5 -91q-15 -77 -30.5 -153t-29.5 -151 q-9 -44 -23 -75.5t-30 -52t-33.5 -30t-33.5 -9.5q-26 0 -45.5 26.5t-19.5 77.5q0 14 1.5 30.5t6.5 36.5l67 295q11 50 17 90.5t6 72.5q0 48 -17 72t-59 21q-47 -5 -78 -16.5t-53 -37.5t-39.5 -70t-37.5 -114q-26 -91 -41 -168t-29 -145q-6 -36 -17 -74t-24.5 -69.5 t-28 -52.5t-27.5 -22q-17 -5 -32.5 1t-28.5 22t-20.5 42t-7.5 62t11 91q20 97 35 195.5t38 195.5q7 29 13 58t6 55q0 31 -12 49t-44 18q-22 0 -50 -14.5t-63 -37.5q-34 -23 -59 -36t-44 -13q-31 0 -31 34q0 19 9 47t31 63q15 17 38 37t50.5 38.5t59 33.5t64.5 22 q33 10 63 10q28 0 54 -11t47 -32t35 -51t18 -67q33 37 76.5 64t88.5 44.5t87.5 26t72.5 7.5q34 -2 54.5 -12.5t33 -26.5t18.5 -37t10 -44q0 -3 1.5 -11t3 -17.5t3 -17.5t1.5 -11q32 49 73 81t85.5 51.5t89 27.5t84.5 8q24 0 43 -6t32.5 -21t21 -41.5t7.5 -67.5 q0 -27 -3 -61.5t-11 -78.5q-5 -30 -11.5 -66.5t-14.5 -73.5q-14 -71 -24 -129t-10 -106q0 -32 9 -46t24 -14q24 0 48 23t48 55t48.5 67.5t50.5 60.5q11 11 25 10t27 -8q14 -7 19 -15.5t5 -17.5z" />
<glyph unicode="n" horiz-adv-x="1258" d="M502 848q35 42 79 70t92.5 45.5t101.5 25t106 7.5q60 0 85 -50.5t25 -151.5q0 -20 -1 -43t-3 -46q-6 -84 -10.5 -142.5l-7.5 -97.5t-4.5 -61.5t-2.5 -34t-1 -16v-6.5q0 -45 13 -61.5t33 -16.5q19 0 36.5 16t32 38t25.5 45t19 38q17 34 39.5 51.5t48.5 9.5h-1 q35 -14 35 -58q0 -23 -9.5 -56.5t-24.5 -66.5q-21 -48 -51 -82t-64 -56.5t-70.5 -33t-70.5 -10.5q-35 0 -66.5 13t-54.5 39t-36.5 66.5t-13.5 95.5q8 85 13.5 144.5t9 99t5.5 62t3 34.5t1 16v7q0 66 -25.5 98.5t-67.5 32.5q-45 0 -103 -40t-118 -118q-13 -41 -24.5 -92 t-22.5 -104.5l-22 -107t-21 -99.5q-7 -31 -18 -66t-23 -65.5t-25 -51t-25 -21.5q-39 -5 -65.5 28.5t-26.5 106.5q0 49 8.5 102t21 106.5t26 105.5t22.5 100q11 50 20 99t9 81q0 29 -9.5 45t-30.5 16q-10 0 -24.5 -8t-31.5 -20t-35.5 -25.5t-36.5 -23.5q-27 -16 -46 -22.5 t-34 -6.5q-26 0 -26 35q0 18 8 44t27 64q24 22 55 47t67 46.5t76.5 35.5t82.5 14q54 0 85 -35t31 -96q0 -11 -1 -25.5t-4 -29.5z" />
<glyph unicode="o" horiz-adv-x="997" d="M587 902q-47 0 -86 -24t-69.5 -58.5t-52.5 -71.5t-37 -64q-13 -24 -25 -61t-21 -80t-14.5 -87t-5.5 -82q0 -42 8 -73t26 -42q27 -17 53.5 -24t51.5 -7q52 0 99 26.5t86.5 65.5t70 83.5t48.5 80.5q17 36 26 81.5t9 90.5q0 48 -9 92.5t-29.5 78.5t-52 54.5t-76.5 20.5z M791 1004q28 -26 53 -58.5t43.5 -72.5t29.5 -87.5t11 -102.5q0 -63 -16.5 -135.5t-52.5 -156.5q-42 -86 -96.5 -148.5t-115.5 -103t-125.5 -60.5t-127.5 -20q-62 0 -118.5 18t-103.5 52q-20 15 -34 39.5t-23 56t-13 68.5t-4 77q0 48 5.5 99t14.5 99t20.5 90t24.5 73 q4 8 8.5 19t7.5 20q16 37 32 75t34.5 74.5t39.5 70t47 61.5q11 12 21 17t20 5q20 0 38 -17t30 -40q31 14 75 21t90 7q57 0 108.5 -9.5t77.5 -30.5h-1z" />
<glyph unicode="p" horiz-adv-x="1140" d="M1012 493q-35 -49 -78 -90t-93 -77.5t-106.5 -70.5t-118.5 -69q-73 -45 -108 -45q-15 0 -22 8.5t-7 22.5q0 16 7 36t19.5 40t31 39.5t42.5 34.5q108 74 184.5 142t118.5 146q18 24 26 49t8 51q0 29 -10 56t-28 48t-44 33.5t-57 12.5q-55 -2 -106.5 -19t-97 -43.5t-84 -60 t-66.5 -67.5q-18 -97 -35 -188t-33 -172q-32 -161 -53.5 -280t-21.5 -184q0 -23 5 -45q45 -36 64.5 -67t19.5 -55q0 -25 -18.5 -42.5t-45.5 -25.5q-8 -2 -23.5 -5t-35.5 -3q-23 0 -47.5 6.5t-44.5 25.5t-33.5 53t-13.5 90v13.5t1 14.5q0 72 22.5 205t60.5 339q3 18 7.5 42 t9 50t9 51t8.5 46q-29 -23 -47 -33t-27 -10q-26 0 -26 38q0 32 23 80.5t78 108.5l54 70q20 87 44 155t45 111q27 30 57 46t53 16q22 0 36.5 -13t14.5 -37q0 -23 -17 -56q-16 -32 -24 -58.5t-12 -42.5q-1 -3 -3 -10.5t-5 -16t-6 -16.5t-5 -14q41 35 85 66.5t87.5 55.5 t84.5 37t76 12q78 4 135 -15t95 -55t56.5 -86.5t18.5 -108.5q0 -64 -21 -133.5t-63 -137.5v1z" />
<glyph unicode="q" horiz-adv-x="1055" d="M759 894q13 65 27 100t28.5 50.5t30 18t31.5 1.5h16q12 -2 27 -5.5t28.5 -13t22.5 -26t9 -44.5q0 -40 -20 -99q-8 -23 -20 -75t-26.5 -123t-30.5 -157t-32 -177.5t-30.5 -184.5t-26 -177.5t-19 -156t-9.5 -121.5v3q-12 -51 -39 -78.5t-53 -27.5q-23 0 -39.5 25.5 t-18.5 76.5q3 46 9.5 120t16 161t20.5 179.5t22 176.5q-31 -51 -76.5 -95t-97 -76.5t-105.5 -51t-102 -18.5q-35 0 -68 11t-62 34q-51 46 -77 121t-26 160q0 87 24.5 177.5t70.5 170.5q45 67 124 131t183 131l-1 -1q52 24 92 24q35 0 57 -14t22 -37q0 -21 -25 -47.5 t-80 -52.5q-62 -30 -118 -81.5t-99 -114t-68.5 -131.5t-25.5 -133q0 -70 32 -129h-1q9 -19 25.5 -27.5t37.5 -8.5q36 0 82.5 24t93.5 62t88 85t65 94h-1q25 48 44.5 97.5t34 96t22.5 87t11 68.5v-2z" />
<glyph unicode="r" horiz-adv-x="910" d="M177 249q0 2 1 3zM895 933q0 -29 -29.5 -51t-87.5 -22q-13 0 -21.5 1.5t-16 4t-16 4t-21.5 1.5q-63 0 -108 -28t-78.5 -75.5t-57.5 -111.5t-45 -136q-11 -67 -22 -135t-22 -135q-14 -76 -29 -123.5t-44 -54.5q-35 -9 -57 -9q-37 0 -52.5 26.5t-15.5 79.5q0 20 2 49t10 54 q8 32 18 76t18.5 92t14.5 96.5t6 90.5q0 30 -4 50.5t-19.5 35.5t-46 26t-84.5 23l1 -1q-18 6 -27.5 21t-9.5 35q0 18 9 35t26.5 30t42 19.5t54.5 3.5q56 -6 93 -29t67 -65q55 120 144.5 174t203.5 54q44 0 81.5 -5.5t64.5 -18t42.5 -33t15.5 -49.5z" />
<glyph unicode="s" horiz-adv-x="818" d="M661 931q-51 -18 -111 -34.5t-109 -37.5q-24 -11 -51.5 -25.5t-49.5 -32t-34 -37.5t-5 -42q8 -23 29.5 -42t51 -36.5t64.5 -33.5t71 -32q28 -12 55.5 -24.5t51 -25t40.5 -25t26 -25.5q27 -40 38.5 -75t11.5 -64q0 -36 -15.5 -67t-39.5 -56.5t-53.5 -46t-58.5 -37.5 q-38 -20 -84.5 -37.5t-93 -32.5t-89.5 -26.5t-74 -18.5q-21 -8 -39.5 -11t-34.5 -3q-36 0 -58 15.5t-22 40.5q0 23 20.5 50.5t71.5 47.5q35 13 71.5 24.5t73 22.5t71.5 22.5t66 26.5q45 23 72.5 46t27.5 52q0 19 -13 39t-42 44q-35 16 -77.5 35t-85.5 41t-83 46t-71.5 49.5 t-51 53t-20.5 55.5q-2 40 12 73.5t39 62t57.5 53.5t67.5 48q30 18 64.5 33t69.5 28t70.5 24.5t68.5 22.5q21 3 41.5 5.5t36.5 2.5q55 0 81 -15.5t26 -38.5q0 -20 -20.5 -42.5t-61.5 -39.5h1z" />
<glyph unicode="t" horiz-adv-x="829" d="M699 1021q16 3 33.5 0.5t31.5 -8.5t23 -15.5t9 -21.5q0 -11 -9.5 -24t-31.5 -26.5t-59 -27.5t-91 -27h1l-201 -41q-13 -101 -22 -172.5t-14.5 -120.5t-9 -78t-5 -46t-2 -25t-0.5 -14q0 -64 19 -100t64 -36q10 0 16.5 3.5t21 14.5t42.5 32t82 56q42 32 79 57.5t63 25.5 q11 0 17.5 -7.5t6.5 -18.5q0 -26 -18 -59.5t-52 -72.5t-83 -81.5t-111 -87.5q-40 -29 -82 -41t-76 -12q-40 0 -73 14t-57 42.5t-37 71t-13 98.5q0 54 13 119l71 421q-29 -3 -56 -7t-56 -8q-52 -3 -74.5 16.5t-26.5 70.5q4 34 33.5 51t96.5 27l109 15q9 52 19.5 110.5 t21 118.5t21 119t19.5 111q12 68 31.5 95t45.5 27q8 0 17 -2t19 -4q11 -2 23 -4.5t22 -10t16.5 -21.5t6.5 -39q0 -24 -5.5 -56.5t-18.5 -76.5l-59 -355q65 5 127.5 12t121.5 19z" />
<glyph unicode="u" horiz-adv-x="1150" d="M712 396q-41 -49 -91 -102.5t-106 -98t-117 -73.5t-124 -29q-87 0 -134 75.5t-47 217.5q0 42 7 101.5t19 124t28 128.5t33.5 116.5t35.5 88t35 41.5q59 -8 91 -28t32 -51q0 -27 -20 -70q-20 -41 -36.5 -95.5t-28.5 -113.5t-19 -117t-7 -106q0 -53 16 -84.5t58 -31.5 q78 0 140 42t111 110.5t86 156t64 179.5q5 11 8 26t7 32l37 126v-1q11 20 27.5 30.5t34.5 14.5q58 -8 82.5 -18t24.5 -34q0 -17 -6.5 -43t-18.5 -63q-9 -43 -18 -78t-16.5 -67t-14.5 -63.5t-12.5 -67.5t-10 -79t-6.5 -98q0 -14 1 -31t5.5 -32t13.5 -25.5t24 -10.5 q6 0 19.5 7.5t28.5 17.5t29 20.5t20 17.5q21 20 33.5 30t22.5 14.5t20 4.5h26q26 0 26 -18q0 -10 -2 -23.5t-9 -32t-21.5 -42t-38.5 -52.5q-63 -73 -115.5 -102.5t-96.5 -29.5q-48 0 -75 22t-39.5 60.5t-15 91.5t-0.5 115z" />
<glyph unicode="v" horiz-adv-x="949" d="M892 895q-53 -136 -102 -257.5t-94 -222t-85.5 -176t-77.5 -118.5q-28 -35 -59 -50.5t-62 -15.5q-43 0 -84 25.5t-74.5 68t-57 97.5t-30.5 114l-65 520q-3 16 0.5 29t12 22t21 13.5t26.5 4.5q18 0 36.5 -7.5t34.5 -23.5t28 -41t17 -60v1q5 -56 10.5 -103t11 -88.5 t11 -77.5t11.5 -70q2 -9 2.5 -17.5t2.5 -16.5v1q3 -18 9.5 -44.5t17 -51t25 -42.5t32.5 -18q30 0 59 52q22 40 49.5 96t58 121t61.5 135t61 138q35 81 69.5 156.5t62.5 133.5q26 56 46 56q9 0 16 -10.5t12.5 -29t8 -43.5t2.5 -53q0 -35 -5.5 -73.5t-18.5 -73.5z" />
<glyph unicode="w" horiz-adv-x="1210" d="M1171 980q-23 -90 -51 -198t-61 -216t-70 -209t-79 -177q-24 -53 -53 -77.5t-59 -24.5q-24 0 -47 14.5t-43.5 40.5t-36 63.5t-24.5 83.5q-7 19 -15.5 53t-18.5 76.5t-20 89.5t-19 92.5t-16.5 86t-11.5 69.5q-2 -6 -5.5 -18t-8 -25.5l-8.5 -25.5t-5 -18q-8 -30 -18 -69 t-26.5 -98t-41 -141.5t-60.5 -199.5q-8 -23 -19.5 -44.5t-24.5 -38.5t-27.5 -27t-29.5 -10q-19 0 -40.5 23t-41.5 71q-14 40 -27 92.5t-24.5 111t-20.5 121t-15.5 123t-10 116.5t-3.5 102q0 18 0.5 34t1.5 31v-1q4 27 13 49.5t21.5 39t27 26t28.5 9.5q22 0 37.5 -31 t14.5 -102q-2 -40 1 -90t7.5 -103t10.5 -104.5t11 -93.5q2 -17 5 -35.5t6.5 -35.5t6 -31t2.5 -22q7 22 18.5 52.5t24 63.5t24.5 67.5t22 66.5q15 50 31 100.5t31 97.5t28.5 88.5t25.5 73.5v-1q22 47 48.5 73.5t50.5 26.5q20 0 36 -23t25 -69q3 -23 9.5 -62.5t15 -86.5 t17.5 -97.5t18.5 -96.5t18 -83t14.5 -56q29 -74 60 -74q37 0 69 109q42 135 84.5 270t84.5 270v-1q27 66 54.5 97t48.5 31q19 0 30.5 -23.5t11.5 -68.5q0 -20 -3 -44.5t-10 -52.5z" />
<glyph unicode="x" horiz-adv-x="933" d="M839 1231q45 -19 63.5 -35t18.5 -35q0 -10 -8 -27t-20 -37t-26.5 -40t-26.5 -35q-75 -99 -151.5 -212t-151.5 -244q43 -57 83 -115q35 -50 72 -107t63 -108q29 -48 42 -87t13 -65q0 -40 -22 -40q-18 0 -47 24t-67 79l-235 287q-45 -73 -93 -153t-93 -153 q-18 -26 -40 -57.5t-44.5 -59.5t-43.5 -47t-38 -19q-13 0 -24 10l2 -3q-14 20 -14 48q0 22 7.5 48t20 53.5t28 56t30.5 55.5l179 338q-31 34 -66 72.5t-66 73.5q-69 78 -99.5 125.5t-30.5 70.5q0 17 18.5 27.5t39.5 18.5q17 5 31 5q29 0 66.5 -31t85.5 -89l112 -139 q28 50 61.5 107t70.5 116.5t75 119t75 114.5q7 6 26 24.5t41.5 36t44.5 28t36 1.5z" />
<glyph unicode="y" horiz-adv-x="1033" d="M952 947q-9 -36 -17.5 -91t-17.5 -122t-18.5 -142.5t-18.5 -151.5q-7 -60 -14 -119.5t-14 -114t-13.5 -102.5t-13.5 -86q-13 -88 -48.5 -164t-90.5 -132t-128 -88t-161 -32q-60 0 -119 25t-99 75q-48 64 -71 111t-23 74q0 20 12 29.5t31 9.5q35 0 76.5 -22.5t69.5 -59.5 q23 -26 53.5 -50.5t62.5 -29.5q42 -7 86.5 7.5t84.5 55t71 109.5t45 170l38 359q-12 -32 -38.5 -68t-59.5 -70t-69.5 -63.5t-67.5 -50.5q-61 -41 -111 -58.5t-92 -17.5q-52 0 -90 24.5t-62.5 64.5t-36.5 91t-12 104q0 44 8.5 107.5t23 133t32.5 139.5t37 127t37.5 94.5 t32.5 41.5q69 -15 97 -32.5t28 -48.5q0 -24 -11 -57q-10 -24 -22.5 -62.5t-26.5 -84.5t-27.5 -95t-24.5 -95t-17.5 -85t-6.5 -63t5 -47.5t16.5 -41.5t29 -29.5t42.5 -11.5q26 0 62 15.5t81 52.5v-1q51 36 95 93t79.5 118.5t62 118.5t43.5 94q8 45 17.5 90.5t17.5 90.5l-1 -2 q7 22 13 41t16.5 35t27.5 27.5t44 18.5q18 6 31 6q26 0 40 -18t14 -51q0 -38 -19 -91z" />
<glyph unicode="z" horiz-adv-x="977" d="M655 609q-36 -34 -73.5 -61.5t-72.5 -53.5q-45 -33 -90 -68.5t-76 -68.5q-14 -11 -22 -34t-8 -43q0 -17 7 -29t23 -12q44 2 93.5 4.5t102 8t106.5 13.5t108 21q71 23 125 23q27 0 45 -5t18 -16q0 -16 -32 -44t-108 -68q-54 -29 -120 -46t-133.5 -26t-132 -12t-116.5 -5 q-17 -1 -35 -1.5t-32 -1.5q-39 0 -68 8t-47.5 22t-28 32.5t-9.5 39.5q0 24 6.5 49.5t16 49t20.5 44t20 35.5q15 22 37 45.5t50 47.5t59.5 49.5t65.5 51.5q48 38 97.5 76.5t89.5 76.5l-2 -1q6 4 18 14t24 23t21 27t9 26q0 15 -14 25.5t-49 10.5q-36 0 -82 2t-93 5.5t-90 8 t-73 8.5q-75 14 -111 27t-36 33q0 19 25 49.5t69 75.5q31 -12 76.5 -20.5t100.5 -15t117 -12t128 -11.5h-1q131 -17 188.5 -53t57.5 -88q0 -49 -44.5 -109t-123.5 -127h-1z" />
<glyph unicode="{" horiz-adv-x="922" d="M747 1816q15 2 28.5 -1.5t24 -11.5t17 -19.5t6.5 -25.5q0 -23 -14 -37t-38 -24q-29 -12 -69 -19t-84 -18q-21 -5 -42 -11t-36.5 -16.5t-23.5 -25.5t-4 -38q1 -6 1.5 -32.5t1 -63.5t1 -79t0.5 -78.5v-63v-32.5q0 -58 -9.5 -114.5t-28 -108t-45.5 -96t-62 -78.5 q45 -43 66.5 -114.5t21.5 -156.5q0 -29 -4.5 -82.5t-11.5 -119.5t-16 -138t-18 -138.5t-18 -121.5t-15 -86q-5 -23 2.5 -44t24.5 -37t42.5 -25t56.5 -9q41 0 95.5 18t124.5 60l-1 -1q47 23 81 23q41 0 41 -30q0 -21 -19.5 -50.5t-64.5 -64.5l1 1q-77 -48 -162 -76t-171 -28 q-56 0 -94.5 17t-62 48.5t-34 76t-10.5 100.5q0 87 12 178t26.5 180t26.5 173t12 158q0 60 -24.5 114t-87.5 90q-59 34 -59 71q0 17 14 35.5t45 34.5q35 18 62 50.5t45 74t27 89t9 95.5q0 19 -0.5 52t-1 73.5t-1.5 84.5t-2.5 84.5t-3.5 75t-4 56.5q-5 37 3.5 65t26 48.5 t43.5 33t56 18.5h-1z" />
<glyph unicode="|" horiz-adv-x="714" d="M450 -259q0 -56 -7 -96t-18.5 -66t-26 -38.5t-29.5 -12.5q-31 0 -57 47.5t-26 134.5q-4 14 -7.5 80t-7 167t-7 230t-7 268.5t-6 282.5t-4.5 273t-3 239t-1 181v80t1 54q2 44 7.5 72t14 45t19.5 26t25 15h12q19 0 37 -2t33.5 -15t27.5 -39t19 -74z" />
<glyph unicode="}" horiz-adv-x="865" d="M569 945q0 -42 20.5 -81t75.5 -69q59 -32 59 -66q0 -17 -12 -35t-32 -34q-36 -18 -63 -59.5t-44 -95.5t-25.5 -116t-8.5 -120q0 -17 1 -55.5t3 -87.5t4 -103.5t4 -103t3 -86t1 -52.5q0 -74 -38.5 -118t-101.5 -49l-260 -19q-29 -2 -48.5 14t-19.5 38q0 21 24 45t73 32 q30 4 67.5 8.5t69.5 15.5t52.5 31.5t16.5 56.5q-1 11 -2.5 45.5t-2.5 81t-2 98.5t-2 99.5t-1.5 84t-0.5 50.5q0 63 7.5 129.5t24 124.5t44 103.5t67.5 66.5q-68 63 -95 124t-27 118q0 30 7 83.5t17.5 117.5t23 133t23 128.5t17.5 103.5t7 60q0 49 -32.5 68.5t-85.5 19.5 q-46 0 -102.5 -12t-111.5 -33q-9 -3 -24 -5.5t-28.5 -1t-23.5 8t-10 21.5t17.5 38t59.5 49q49 30 108 44t132 24q59 8 110.5 -2t89.5 -38t60 -73t22 -107q0 -31 -8 -82t-20 -112.5t-25.5 -127t-25.5 -127t-20 -112.5t-8 -82z" />
<glyph unicode="~" horiz-adv-x="1237" d="M1150 839q-30 -48 -67.5 -88.5t-79.5 -70.5t-86.5 -46.5t-89.5 -16.5t-88 19t-81 61q-10 11 -21.5 26.5t-23.5 31.5h1q-15 21 -29.5 40t-31 33t-34.5 22t-40 5q-27 -4 -58.5 -28t-61.5 -55.5t-56 -63.5t-42 -52q-29 -38 -56 -54t-49 -16q-19 0 -31.5 13.5t-12.5 37.5 q0 12 2.5 25t9.5 28q16 49 50.5 103.5t81 102t102 82t113.5 43.5q24 6 40 6q29 0 54 -10t47.5 -27t42.5 -39t40 -45q23 -26 48 -52t56 -46q22 -16 50 -16q24 0 49.5 12t51 30.5t49.5 41t45 42.5q12 11 22.5 21t20.5 18q19 16 36 23.5t30 7.5q17 0 26.5 -13t9.5 -34 q0 -20 -9.5 -46.5t-29.5 -54.5v-1z" />
<glyph unicode="&#xa0;" horiz-adv-x="622" d="M0 2146h1v-1h-1v1z" />
<glyph unicode="&#xa1;" horiz-adv-x="814" d="M373 1028q-17 17 -20 38t-3 43q0 28 7.5 55t20.5 48.5t29.5 37t34.5 21.5l3 1q14 5 28.5 4.5t22.5 -1.5q15 -2 24 -5t26 -13q5 -3 9 -5t11 -6q26 -15 35.5 -42.5t9.5 -59.5q0 -31 -8 -63t-20 -58t-26 -44t-25 -22q-10 -2 -22 -3.5t-19 -1.5q-19 0 -32 4t-25 13t-25.5 23 t-32.5 33zM180 -249q26 52 54 143.5t53 208t45 249t31 267.5q-2 27 4.5 42.5t17.5 23t26 9.5t31 3q11 0 25.5 2t23.5 2q28 0 40.5 -11.5t12.5 -31.5q0 -8 -1 -19t-3 -23q-1 -11 -2 -23t-2 -23q0 -11 -2 -45.5t-6 -84t-10 -110.5t-13 -127.5t-15.5 -134t-18.5 -129 t-20.5 -113.5t-22.5 -88l-1 -3q-6 -20 -16 -40.5t-24.5 -37t-33.5 -27.5t-44 -11q-9 -1 -16.5 -1h-14.5q-61 0 -86.5 23t-25.5 55q0 25 14 55z" />
<glyph unicode="&#xa2;" horiz-adv-x="947" d="M353 685q-18 -29 -32 -64t-24 -72.5t-15.5 -75.5t-5.5 -73q0 -60 18.5 -106t57.5 -61q11 -2 30.5 -4t47.5 -2q-1 12 -1.5 34.5t-1.5 37.5q-2 49 -4 109t-4 123t-3.5 125.5t-2.5 118.5q-18 -24 -28.5 -39.5t-16.5 -26.5q-4 -6 -7.5 -11.5t-7.5 -11.5v-1zM586 1037 q23 5 42 7.5t32 2.5q42 0 76 -19t54 -68q37 -98 37 -149q0 -44 -24 -44q-21 0 -54.5 27.5t-71.5 74.5q-17 20 -36 22t-33 -1q-8 -2 -22 -2v-611q17 11 28 18.5t20 15.5q2 2 5 4t5 4q16 12 31.5 24t29.5 25h-1q33 27 61.5 48t52.5 19q20 -2 28.5 -14t8.5 -30q0 -19 -7 -41 t-19 -44t-28 -42.5t-34 -35.5q-32 -32 -80 -62.5t-101 -53.5v-62q0 -56 -6 -96t-15.5 -66t-22 -38.5t-24.5 -12.5q-27 0 -49 47t-22 132q-2 5 -4 17t-2 32q-30 -5 -57.5 -7.5t-50.5 -2.5q-28 0 -54.5 4t-49.5 12h1q-71 35 -104 108.5t-33 167.5q0 102 33 213.5t91 213.5v-1 q31 51 81.5 98t113.5 89v110.5t2 79.5q2 46 7 74.5t13.5 45t20.5 24.5t27 14h11q18 0 32 -2.5t25.5 -15.5t20 -39.5t15.5 -73.5v-140z" />
<glyph unicode="&#xa3;" horiz-adv-x="1258" d="M1010 1542q30 -33 48.5 -58t31 -49t21 -50t18.5 -62q-8 -21 -19.5 -41t-25.5 -35.5t-29.5 -24.5t-30.5 -9q-13 0 -27 11q-5 5 -7 15t-4 24q-1 14 -3.5 31t-9 36t-19.5 40.5t-35 44.5q-18 15 -41.5 26.5t-49.5 11.5q-29 0 -56 -20t-44 -73q-11 -30 -18.5 -61t-14.5 -66 t-13.5 -75.5t-14.5 -90.5q-2 -16 -6 -41t-7 -43l350 27q24 4 44.5 5.5t36.5 1.5q71 0 71 -22q0 -17 -33 -41t-94 -44l1 1q-55 -15 -102 -26.5t-92 -21.5t-92 -19t-102 -19q-6 -68 -8.5 -116t-2.5 -81q0 -39 2.5 -65t7 -43.5t10 -28t10.5 -19.5v1q2 -5 3.5 -7.5t6.5 -14.5 q12 -12 24 -25t23 -27q19 -23 38.5 -44.5t41.5 -38.5t47.5 -27t56.5 -10q22 0 38 4q48 11 96.5 30t81.5 51v-1q29 26 50 38.5t35 12.5q11 0 17.5 -9.5t6.5 -25.5q0 -32 -22.5 -79t-70.5 -92q-60 -59 -114 -83t-105 -24q-35 0 -68.5 10.5t-66 27.5t-63.5 39t-60 45 q-22 -60 -56.5 -110t-76.5 -90q-35 -34 -89 -54t-113 -20q-34 0 -67.5 8t-64 25t-56 43.5t-43.5 63.5q-29 61 -29 125q0 60 23 117.5t64 102.5t97.5 72.5t123.5 27.5q16 0 37.5 -3t53.5 -11q0 3 -1 8.5t-2 12t-2 12t-1 7.5q-4 20 -6.5 41.5t-2.5 50.5q0 26 3 62t11 89 l-195 -25q-17 -4 -32 -4q-37 0 -57 18t-20 45q0 26 17.5 56t54.5 59l-2 -2q1 1 19.5 1.5t42.5 2.5q38 2 88.5 4.5t94.5 10.5q10 80 19 142t18.5 113t21.5 94t29 86q22 55 52 95.5t65.5 67.5t74.5 40t78 13q50 0 97 -20t85 -58h-1zM494 287q-2 23 -11.5 39.5t-25 27.5 t-35 16.5t-40.5 5.5q-20 0 -40 -5q-35 -9 -58.5 -27t-38 -40.5t-20.5 -48t-6 -48.5q0 -45 17 -68q23 -35 66 -35q32 0 68 20t65.5 48.5t47 60t11.5 54.5zM1130 1321q-1 1 -1 2q1 1 1 2t1 3z" />
<glyph unicode="&#xa4;" horiz-adv-x="1454" d="M823 1120q-17 7 -32.5 9.5t-30.5 2.5q-48 0 -86.5 -24t-69 -58t-52.5 -72t-37 -65q-13 -24 -25 -62t-21.5 -82t-15.5 -89.5t-6 -83.5q0 -39 9.5 -68t27.5 -40q52 -39 105 -39q50 0 97.5 28t87.5 68.5t70.5 86t48.5 80.5q17 36 26 80.5t9 91.5q0 37 -6 73.5t-19 68t-32 56 t-46 37.5zM1267 158q-22 -17 -44 -30.5t-41.5 -23.5t-34.5 -16.5t-22 -9.5q-41 70 -82 135t-72 127l-14 28t-11.5 24t-12 26t-14.5 34q-84 -83 -174 -121t-176 -38t-177 38q-6 -13 -13.5 -28t-24.5 -46t-48.5 -84t-85.5 -143q-25 11 -51 24q-22 11 -46 25t-44 30 q-11 9 -11 25q0 24 16.5 55t40.5 64t52 64.5t52 55.5q17 17 29.5 31.5t37.5 31.5q-11 42 -16.5 86t-5.5 89q0 52 6 106.5t18 108.5t29 104.5t38 95.5q-25 24 -62.5 67.5t-73 92t-61 95t-25.5 77.5q0 16 8 22q26 20 52 36t47 27q24 13 46 23l149 -268q15 26 28.5 44.5 t25.5 32.5q2 3 7 8q18 21 40 21q20 0 38.5 -18.5t31.5 -42.5q42 32 81 45.5t74 13.5q43 0 80.5 -10t66.5 -23t47.5 -25t23.5 -15l21 -16q41 55 81.5 111.5t81.5 111.5q26 -11 52 -23q22 -11 46.5 -25.5t44.5 -31.5q9 -9 9 -22q0 -24 -20 -59t-49 -72.5t-60.5 -73.5 t-54.5 -63q-9 -11 -23.5 -24.5t-30.5 -27.5q18 -68 18 -124q0 -85 -29.5 -168t-77.5 -165q23 -18 49 -42t46 -44l4 -4q20 -20 50.5 -57t59.5 -79t49.5 -82.5t20.5 -67.5q0 -15 -10 -23z" />
<glyph unicode="&#xa5;" horiz-adv-x="1157" d="M964 274q-76 -29 -184 -51t-227 -42q-2 -69 -3.5 -119.5t-3.5 -67.5q0 -40 -6.5 -65t-18 -39.5t-27 -19.5t-32.5 -5q-15 0 -31 3q-47 8 -64.5 49t-17.5 106q0 6 0.5 15t1.5 23q1 15 1.5 43.5t1.5 51.5q-8 -1 -22.5 -3t-21.5 -3q-35 -5 -67.5 -8.5t-64.5 -7.5 q-24 0 -42 2.5t-31 10t-20.5 21t-11.5 35.5q-5 14 -9 27.5t-8 27.5q-5 21 0 32.5t15.5 17.5t25 8t29.5 3q9 1 19 1.5t17 2.5l205 13q2 18 3.5 40.5t2.5 40.5q2 29 5 66t6 67l-56 -4q-30 -2 -59 -4.5t-58 -3.5q-30 0 -52 14t-37 31t-22.5 31t-7.5 15q-6 16 -6 29 q0 15 6.5 26.5t16.5 19.5t22.5 12.5t25.5 4.5l178 4q-11 18 -23 39.5t-24 43.5t-22.5 41.5t-17.5 34.5q-34 71 -59.5 130t-44 109.5t-31.5 92.5t-22 80v-2q-3 25 -3 39q0 51 19 77t46 26q28 0 57.5 -29.5t49.5 -77.5l90 -262q2 -5 5.5 -12.5t6.5 -14.5q10 -25 25 -56.5 t32.5 -60t36.5 -48t37 -19.5q21 0 36 21q27 38 60.5 89t70.5 110.5t77 124t79 128.5q57 94 111 180.5t96 149.5l-1 -1q17 20 38 20q27 0 50 -27t23 -73q0 -23 -6.5 -47t-21.5 -50v1l-449 -744l222 12q8 1 15 1.5t14 0.5q49 0 81.5 -16.5t32.5 -38.5q0 -17 -23.5 -34.5 t-77.5 -31.5q-72 -19 -159 -33.5t-183 -28.5q-5 -36 -8 -81.5t-6 -85.5q-1 -9 -2 -25.5t-2 -26.5q37 3 78 6t83 6t83 6t79 6q13 1 23.5 1.5t21.5 0.5q51 0 83.5 -8.5t32.5 -25.5q0 -11 -19 -28t-63 -40h2z" />
<glyph unicode="&#xa6;" horiz-adv-x="716" d="M445 1001q-4 -55 -11 -93t-15 -61t-17.5 -33.5t-19.5 -10.5q-13 0 -25.5 13t-23 34.5t-17.5 48t-8 53.5l-56 507q-3 16 -3 32q0 24 10 41t36 17q21 0 54 -12h-1q26 -10 40.5 -21.5t27.5 -25.5q4 -6 9 -11q2 -19 3.5 -35.5t3.5 -33.5q8 -87 13 -151.5t5 -123.5 q0 -31 -1 -63t-4 -71zM464 -301q-4 -55 -10.5 -91.5t-15 -58.5t-18 -31t-19.5 -9q-13 0 -26 12t-23.5 31.5t-17.5 45t-8 52.5l-56 558q-3 16 -3 33q0 24 10 41t36 17q11 0 24.5 -3.5t29.5 -8.5h-1q26 -11 39.5 -22.5t27.5 -25.5l5 -5t6 -5q2 -16 3 -30.5t3 -29.5 q8 -90 13.5 -158t5.5 -128v-38.5t-1 -49.5t-2 -51.5t-2 -44.5z" />
<glyph unicode="&#xa7;" horiz-adv-x="956" d="M682 679q32 44 32 83q0 43 -33 80t-85 69t-114.5 59.5t-122.5 52.5q-46 -43 -66 -84t-20 -79q0 -52 28.5 -95t73.5 -72q49 -32 97 -52.5t93 -20.5q34 0 64 14t53 45zM671 1606q39 -5 71 -21t55 -36.5t35.5 -42.5t12.5 -40q0 -14 -10.5 -23t-33.5 -9q-14 0 -29.5 2.5 t-33.5 8.5q-42 13 -93 13q-56 0 -115 -14.5t-107.5 -38.5t-79.5 -55.5t-31 -65.5q0 -27 23 -54t76 -52q52 -24 105 -45q40 -17 82 -36t82.5 -42.5t78 -52t69.5 -63.5q31 -35 45.5 -72.5t14.5 -74.5q0 -66 -40.5 -134t-109.5 -130q39 -44 61.5 -77t27.5 -71q2 -12 2.5 -24.5 t0.5 -23.5q0 -69 -27.5 -116.5t-73.5 -77.5t-106.5 -43.5t-126.5 -13.5q-79 0 -158 17t-146 46q-26 11 -47 28.5t-36 37t-23 39.5t-8 36q0 10 4.5 16.5t14.5 6.5q13 0 34 -10q33 -14 73.5 -26t84.5 -21.5t88 -15t85 -5.5q37 0 69.5 5.5t56.5 17.5t38 30.5t14 45.5 q0 6 -1 14.5t-4 18.5q-8 26 -24 45t-38.5 33.5t-50.5 26.5t-60 24q-36 13 -76 29.5t-83 40.5q-49 27 -90 60.5t-71 72.5t-46.5 83.5t-16.5 93.5q0 55 24 114q14 34 39 71t59 59q-5 5 -14 16t-13 16q-14 16 -24.5 29.5t-18 28t-12 32t-5.5 41.5q-6 83 29 146t97 105 t144.5 63.5t173.5 21.5q28 0 56 -2t57 -6z" />
<glyph unicode="&#xa8;" horiz-adv-x="956" d="M787 1817q27 -9 32.5 -37.5t-2.5 -67t-24.5 -81.5t-34.5 -82q-14 -32 -29.5 -63.5t-32.5 -56t-34.5 -39t-34.5 -11.5q-26 0 -35.5 26.5t-10 64.5t5.5 80t13 74l34 220q10 0 22 -0.5t25 -1.5q20 -3 47 -9t59 -16zM351 1817q29 -9 34.5 -38t-3 -67t-26 -81t-33.5 -82 q-14 -29 -30 -60.5t-32.5 -56.5t-34 -40.5t-35.5 -12.5q-26 0 -35.5 27t-9.5 65.5t7 80.5t14 72l38 220q9 0 20 -0.5t22 -1.5q18 -3 46 -9t58 -16z" />
<glyph unicode="&#xa9;" horiz-adv-x="1650" d="M1042 1137q14 -39 19.5 -71t5.5 -57q0 -64 -29 -64q-15 0 -37 18t-47 53q-17 23 -49 23q-24 0 -56 -17t-64 -43t-60 -58.5t-44 -63.5q-16 -26 -29 -55.5t-22 -61t-14 -63t-5 -59.5q0 -53 17 -91t55 -52q10 -3 21.5 -4t25.5 -1q44 0 102.5 19t116.5 62q6 5 12 10.5 t13 10.5t14 10.5t13 10.5q24 23 49 40t46 18q20 -3 20 -28q0 -15 -5.5 -33.5t-15.5 -37t-22.5 -35.5t-26.5 -29q-32 -30 -76 -57t-94 -47.5t-102.5 -32t-101.5 -11.5t-91 14l1 -1q-63 32 -94.5 103.5t-31.5 162.5q0 37 6 79.5t18 85.5t29.5 85.5t41.5 80.5q47 68 97.5 114.5 t102 74.5t101.5 40t97 12q34 0 58 -12.5t35 -41.5zM218 731q0 -131 45.5 -244t126.5 -196t192 -130.5t241 -47.5q132 0 242.5 47.5t191 130.5t125.5 196t45 244q0 130 -45 242.5t-125.5 195t-191 129.5t-242.5 47q-130 0 -241 -47t-192 -129.5t-126.5 -195t-45.5 -242.5z M78 731q0 102 27 197.5t75.5 178.5t117 151t151.5 116.5t178 75.5t198 27t198.5 -27t178.5 -75.5t151.5 -116.5t117 -151t75 -178.5t26.5 -197.5q0 -103 -26.5 -198.5t-75 -178t-117 -150.5t-151.5 -116.5t-178.5 -75t-198.5 -26.5t-198 26.5t-178 75t-151.5 116.5 t-117 150.5t-75.5 178t-27 198.5z" />
<glyph unicode="&#xaa;" horiz-adv-x="1074" d="M944 1239q-33 -31 -60 -53.5t-52.5 -37.5t-52.5 -22t-60 -7q-29 0 -51.5 19t-37.5 49.5t-23 68.5t-9 75q-20 -45 -51.5 -80.5t-68.5 -60t-76.5 -37t-76.5 -12.5q-56 0 -100.5 21.5t-75 59t-47 87.5t-16.5 106q0 52 13 105.5t37 102.5t58 91.5t75 74.5t88.5 50t99.5 18 q31 0 66.5 -10.5t66 -27.5t50.5 -39t20 -45q0 -13 -15 -21t-47 -8q-14 0 -33.5 2.5t-42.5 7.5q-8 2 -20 3.5t-28 1.5q-50 0 -91 -28.5t-70.5 -71.5t-45.5 -94t-16 -97q0 -26 6.5 -49.5t19 -40.5t31 -27t42.5 -10q29 0 60.5 17t63.5 49.5t63.5 78t59.5 102.5q14 28 35 40.5 t43 12.5q25 0 43.5 -14.5t18.5 -38.5q0 -4 -0.5 -7t-1.5 -7l-27 -146q0 -23 1 -47t6.5 -43.5t17.5 -31.5t34 -12q20 0 52.5 16.5t79.5 54.5q53 33 89 33q23 0 23 -16q0 -15 -15 -41t-51 -64h-1zM793 947q54 0 92 -4.5t61 -11.5t33.5 -17t10.5 -20q0 -14 -13 -28t-34 -25.5 t-48 -20t-54 -9.5l-631 -69q-17 -3 -32 -3q-23 0 -40 10t-17 36q0 10 3 24.5t8 29.5q6 15 20 28t29.5 23.5t31 17t25.5 8.5q55 11 123 17t141 9t147.5 4t143.5 1z" />
<glyph unicode="&#xab;" horiz-adv-x="1378" d="M540 884q-36 -47 -71 -87.5t-68 -82.5q-26 -34 -40.5 -65t-14.5 -63q0 -61 60 -133l176 -217q21 -26 35.5 -64t14.5 -73q0 -29 -12.5 -48.5t-44.5 -19.5q-10 0 -32 5q-91 104 -187.5 214.5t-187.5 215.5q-13 16 -20.5 40t-7.5 47q0 18 3.5 35t11.5 29q35 56 64.5 98.5 t63 85t76 92.5t104.5 122q31 38 54.5 54.5t40.5 16.5q16 0 24 -17t8 -44q0 -32 -12 -69.5t-38 -71.5zM1090 845q-14 -19 -27 -36t-27 -34t-29.5 -36.5t-35.5 -44.5q-26 -35 -40.5 -63.5t-14.5 -57.5q0 -28 15.5 -58t44.5 -65l122 -159q11 -12 20.5 -27.5t16.5 -33.5 t11 -36.5t4 -35.5q0 -29 -14 -49.5t-46 -20.5q-8 0 -15 1.5t-17 3.5l-325 363q-15 11 -21.5 31.5t-6.5 43.5t5 44.5t13 35.5q75 118 147 208.5t133 160.5q29 38 53 54t41 16q20 0 30 -20.5t10 -50.5q0 -32 -11.5 -67t-35.5 -67z" />
<glyph unicode="&#xac;" horiz-adv-x="1248" d="M1134 438q-2 -55 -7.5 -92.5t-13.5 -61t-17 -34t-19 -10.5q-13 0 -26 13t-24 34.5t-18.5 48t-10.5 53.5l-40 363l-772 -65q-17 -3 -30 -3q-25 0 -41.5 10.5t-16.5 36.5q0 23 10 53v-1q7 19 17.5 30.5t20.5 21.5q8 7 13.5 13t10.5 14q93 10 171.5 16.5t145 10t123 4.5 t105.5 1h28.5t33 -0.5t32.5 -0.5h27q27 -1 53 -1h52q52 0 85 -9t53.5 -26.5t30.5 -43t15 -58.5q8 -55 11.5 -98t3.5 -81q0 -26 -1 -52.5t-3 -53.5q-1 -8 -1 -16t-1 -16z" />
<glyph unicode="&#xad;" horiz-adv-x="1097" d="M793 779q54 0 92 -4.5t61 -11.5t33.5 -17t10.5 -20q0 -14 -13 -27.5t-34.5 -24.5t-48 -19.5t-53.5 -11.5l-631 -70q-8 -1 -16.5 -2t-15.5 -1q-24 0 -40.5 10t-16.5 36q0 22 11 54q5 15 18.5 28t29.5 23.5t32 17t26 8.5q55 11 123 17.5t141 9.5t147.5 4t143.5 1z" />
<glyph unicode="&#xae;" horiz-adv-x="980" d="M542 1620q49 1 81 -13.5t43 -38.5t-1.5 -54.5t-52.5 -60.5q-17 -14 -33 -28t-33 -26q-6 -4 -6.5 -9.5t3 -11t9 -11t10.5 -9.5q27 -25 54 -45.5t51 -44.5q21 -20 21 -37q0 -25 -27 -25q-17 0 -39 15q-36 26 -71 50.5t-68 50.5q-29 20 -36 46.5t21 54.5q23 22 44 40.5 t43 39.5q21 20 18.5 30t-16.5 14t-34 4h-34q-10 0 -18 -0.5t-19 -0.5q-11 -38 -21.5 -78.5t-18 -79.5t-12.5 -74t-5 -62q0 -64 -43 -64q-13 0 -21 5.5t-13 14.5t-7 20t-2 22q0 77 14 150.5t34 142.5q-42 0 -42 27q0 13 12.5 27t34.5 14l16 1q1 5 2.5 8.5t2.5 7.5q5 20 17 27 t36 10q26 3 36 -4.5t10 -19.5t-7 -27zM164 1425q0 -70 25 -130.5t68.5 -105t103 -70t129.5 -25.5t129 25.5t102 70t67.5 105t24.5 130.5t-24.5 130t-67.5 104t-102 69.5t-129 25.5t-129.5 -25.5t-103 -69.5t-68.5 -104t-25 -130zM68 1425q0 87 33 164t90.5 134t134.5 90 t164 33q88 0 165 -33t134 -90t90 -134t33 -164q0 -88 -33 -164.5t-90 -133.5t-134 -89.5t-165 -32.5q-87 0 -164 32.5t-134.5 89.5t-90.5 133.5t-33 164.5z" />
<glyph unicode="&#xaf;" horiz-adv-x="1097" d="M793 1706q54 0 92 -4.5t61 -12t33.5 -17t10.5 -19.5q0 -14 -13 -28t-34.5 -26t-48 -20t-53.5 -10l-631 -68q-17 -3 -31 -3q-24 0 -41 10.5t-17 36.5q0 21 11 54v-1q6 15 19.5 28t29.5 23t31.5 16.5t25.5 8.5q55 11 123 17.5t141 9.5t147.5 4t143.5 1z" />
<glyph unicode="&#xb0;" horiz-adv-x="958" d="M437 1613q-43 -35 -80 -68.5t-54 -68.5q-10 -20 -3 -44.5t26 -45t48 -31t64 -2.5q81 19 133.5 54.5t87.5 71.5q15 15 12.5 32.5t-14.5 34t-30 30.5t-34 21l-7 3q-35 15 -67 15.5t-74 0.5zM808 1441q-30 -37 -65.5 -70t-79.5 -60.5t-98.5 -49.5t-122.5 -36 q-20 -5 -43 -7.5t-41 -2.5q-48 0 -88.5 12t-70.5 34t-47 53.5t-17 70.5q0 17 2.5 37.5t10 41.5t19.5 42t32 40l45 44q-46 5 -68.5 16t-22.5 25q0 22 34.5 46.5t99.5 38.5l119 9q29 17 55 32t55 32l5 3q14 4 29.5 5.5t31.5 1.5q19 0 36.5 -2t31.5 -6t22.5 -10t8.5 -14 q0 -9 -39 -45q57 -12 96.5 -31t63.5 -42t35 -49t11 -51q0 -31 -11.5 -58.5t-28.5 -49.5z" />
<glyph unicode="&#xb1;" horiz-adv-x="1166" d="M808 546q54 0 91.5 -4t60.5 -11t33 -16.5t10 -19.5q0 -14 -13 -27.5t-34 -25t-47 -19.5t-53 -11l-655 -68q-9 -1 -17 -2t-16 -1q-24 0 -41 10.5t-17 36.5q0 11 3 27t8 26l3 6q7 14 20.5 26t28.5 21t30 14t24 6q66 7 139.5 13t149 10.5t150 6.5t142.5 2zM652 988 q-2 -8 -4.5 -19.5t-4.5 -19.5q-7 -28 -14.5 -64.5t-15.5 -90.5q-9 -74 -30.5 -107t-45.5 -33q-15 0 -30 11.5t-26 32t-18 50t-7 65.5q0 7 0.5 15.5t1.5 17.5l24 130q-33 -3 -70.5 -6l-75 -6t-73 -6t-64.5 -4q-8 -1 -16.5 -1h-15.5q-24 -1 -38 2t-14 23q0 8 0.5 17.5 t4.5 26.5l1 4q3 12 10 25t16.5 24.5t20.5 19t21 8.5q41 2 85.5 4.5t86.5 5t79 5t64 5.5q12 57 19.5 90t13.5 54t11.5 35t12.5 31q21 50 44 66t48 16q7 0 19.5 -1.5t23.5 -3.5q16 -3 30.5 -11.5t14.5 -37.5q0 -34 -22 -94l-54 -144q57 3 124.5 7t124.5 7h2q88 0 122.5 -11.5 t34.5 -31.5q0 -12 -9.5 -24.5t-26 -23.5t-38 -19.5t-44.5 -11.5l-7 -1z" />
<glyph unicode="&#xb2;" horiz-adv-x="1100" d="M897 837q-103 -48 -185.5 -81.5t-154 -56t-135 -35t-129.5 -19.5q-41 -1 -70 6t-47 20.5t-26 31.5t-8 39q0 22 6 45.5t14.5 45t19 40t19.5 30.5h-1q54 64 122.5 127t146.5 129q16 14 33.5 28.5t35.5 29.5h-1q16 14 24.5 31.5t8.5 34.5q0 20 -12.5 35.5t-36.5 18.5 q-27 5 -59.5 6.5t-67.5 3.5q-33 2 -68.5 4t-73.5 7q-82 5 -119 23t-37 46q0 25 22 54.5t64 62.5q17 -4 44.5 -8t63.5 -11h-1q39 -8 84.5 -16.5t88.5 -17.5t80 -16.5t61 -13.5q78 -22 114.5 -59t36.5 -81q0 -49 -34 -102t-85 -98h1q-26 -22 -51 -40.5t-45 -35.5 q-39 -29 -78.5 -61.5t-74.5 -74.5q-11 -11 -24 -33t-13 -43q0 -18 11 -29t37 -11q19 0 36 4q56 14 95.5 24.5t69.5 19t54 16t49 16.5t54.5 20t70.5 27h-1q36 13 66.5 18.5t53.5 5.5q27 0 42 -5.5t15 -16.5q0 -15 -25 -37.5t-81 -47.5z" />
<glyph unicode="&#xb3;" horiz-adv-x="1100" d="M756 1296q-40 -34 -67.5 -53.5t-52.5 -36.5q-20 -14 -42.5 -30t-52.5 -39l1 1q-33 -23 -48 -36t-15 -23q0 -13 11 -17.5t31 -6.5q21 -1 40 0t41 3q20 2 42.5 3t50.5 1q31 0 73 -3q151 -10 151 -81q0 -36 -33 -95t-89 -132q-26 -34 -48 -62t-45.5 -53t-50 -49.5 t-60.5 -52.5q-47 -38 -78.5 -54.5t-50.5 -16.5q-14 0 -14 15q0 18 16 49.5t44 66.5q14 17 25 31.5t22.5 30.5t24.5 34.5t31 44.5q10 15 22 32t26 38q23 35 35.5 57t12.5 38q0 20 -15 29.5t-45 14.5q-30 0 -61.5 -2t-63.5 -5q-23 -2 -48 -3.5t-51 -3.5q-9 -1 -18 -1h-17 q-43 0 -71.5 5t-46 14t-24.5 21t-7 25q0 15 6 30.5t15.5 30t20.5 27t21 20.5q45 41 105 84t117 85q5 3 9.5 7t9.5 7q42 29 60.5 51t18.5 36q0 29 -50 34q-24 6 -61.5 8t-81.5 2q-35 0 -73 -1t-73 -2q-15 -1 -35.5 -1.5t-33.5 -0.5q-35 15 -35 53q0 17 7 34t20 30.5t31 21.5 t41 7q30 -1 70.5 -2.5t88.5 -4.5t101 -8t108 -12q103 -14 151 -44.5t48 -66.5q0 -29 -24 -60.5t-67 -61.5v-1z" />
<glyph unicode="&#xb4;" horiz-adv-x="567" d="M452 1758q-6 -31 -19 -70.5t-32.5 -83.5t-44 -90t-53.5 -88q-38 -55 -69.5 -92.5t-63.5 -37.5q-19 0 -27 15t-8 41q0 41 17 98.5t41 124.5q21 60 41.5 126.5t43.5 125.5q3 8 13.5 12.5t24.5 4.5q21 0 46 -7.5t46 -20t34 -28t10 -30.5z" />
<glyph unicode="&#xb5;" horiz-adv-x="1317" d="M118 -349q-9 90 -9 187q0 101 7.5 205t18.5 200.5t24.5 180t24.5 143.5q8 46 19.5 96.5t24.5 99.5t27.5 93t29 77.5t28.5 53.5t26 21q58 -9 88.5 -27.5t30.5 -48.5q0 -15 -4.5 -34t-12.5 -40q-12 -34 -25 -75.5t-26 -87t-24.5 -93.5t-18.5 -96q-6 -41 -6 -77 q0 -54 18 -85.5t62 -31.5q40 0 101 32l-1 -1q51 23 98.5 63t87 97t70.5 131t51 164l-1 -1q9 30 15 60q8 33 17 69.5t21 57.5q10 19 26 29.5t35 14.5q59 -9 83 -19t24 -34q0 -16 -6.5 -40.5t-17.5 -59.5q-8 -35 -14.5 -64t-13.5 -55q-9 -38 -17 -72.5t-14.5 -73.5t-11 -86 t-7.5 -108q0 -14 4 -31t12.5 -32t20.5 -25.5t27 -10.5q21 0 46 24q21 20 44.5 36.5t46.5 28t44 18t37 6.5q25 0 25 -20t-20 -56t-70 -93q-64 -74 -116.5 -103t-96.5 -29q-29 0 -54 11t-46 25q-12 12 -22 43.5t-16.5 71.5t-9.5 82.5t0 76.5q-66 -91 -127.5 -155t-125.5 -103 q-44 -27 -85 -38.5t-78 -11.5q-25 0 -51 6t-51 14q-8 -44 -14 -93.5t-11.5 -99.5t-10 -96.5t-7.5 -84.5q-1 -9 -1.5 -20t-1.5 -19q-3 -26 -13 -50t-23 -42t-28 -28.5t-28 -10.5q-11 0 -18.5 10.5t-9.5 33.5z" />
<glyph unicode="&#xb6;" horiz-adv-x="1397" d="M356 1433q66 35 146 49t168 14q65 0 133 -6.5t134 -17t129 -22.5t119 -24q19 -4 38.5 -7t36.5 -8q35 -9 53 -32.5t18 -49.5q0 -14 -5.5 -28.5t-16 -26.5t-25 -20.5t-33.5 -9.5q-26 -2 -57.5 6t-68.5 16q-2 -121 -8 -253t-15 -265.5t-21 -264t-25 -249.5t-27 -221.5 t-28 -179.5q-9 -49 -23 -84.5t-31 -59t-35 -35t-33 -11.5q-21 0 -34.5 21t-8.5 57q18 140 33.5 267t28 248.5t22.5 242t17.5 248.5t13 267t8.5 298q-29 8 -60 12.5t-66 8.5l-43 5q1 -14 2 -39t1 -45q0 -65 -4.5 -152.5t-12 -188.5t-17.5 -211t-22 -220t-25.5 -216 t-27 -199.5t-27 -170t-25.5 -126.5q-6 -25 -18 -44.5t-27 -33.5t-31.5 -21.5t-32.5 -7.5q-26 0 -45 21.5t-19 68.5q0 9 1 20.5t3 23.5q4 23 11 68t16 104t18 128t18 140.5t17 141t13.5 130t8 108t0.5 74.5q-106 2 -189.5 36t-142 89t-89.5 125.5t-31 145.5q0 51 14.5 102 t44 98.5t75.5 89.5t109 76z" />
<glyph unicode="&#xb7;" horiz-adv-x="610" d="M429 927q18 -30 16.5 -70.5t-15 -78t-36 -66t-48.5 -32.5q-21 -2 -34 -3.5t-25 0.5t-26 8.5t-37 18.5q-32 19 -34 66t15 95q9 24 19.5 46.5t22.5 40.5t23.5 29.5t21.5 13.5q38 8 74 -8.5t63 -59.5z" />
<glyph unicode="&#xb8;" horiz-adv-x="750" d="M634 -130q0 -50 -20 -90.5t-54 -70t-80 -46.5t-97 -19q-76 -5 -123.5 8.5t-85.5 43.5l-5 4q-45 36 -45 72q0 14 6.5 26.5t16 21t21 10.5t22.5 -5q93 -63 167 -63q23 0 45.5 3t40 14.5t28.5 34t11 61.5q0 17 -11.5 30t-27.5 21.5t-34 13t-30 4.5q-15 0 -26.5 -2t-19.5 -4 q-10 -3 -17 -5q-6 -5 -19 -5.5t-26 4t-21.5 14t-4.5 24.5q13 46 26 90.5t27 89.5q16 -3 27 -4t30 -3l40 -4t40 -8l-24 -95q42 2 82 -8.5t71.5 -32.5t50.5 -53.5t19 -71.5z" />
<glyph unicode="&#xb9;" horiz-adv-x="1100" d="M689 1410q-13 -21 -29.5 -72t-34 -116t-34 -135.5t-30.5 -129.5q-13 -55 -22 -94t-13 -50q-14 -71 -36.5 -102.5t-44.5 -31.5q-26 0 -44 39t-13 105q0 15 6 59t14.5 103t19.5 126t22.5 130t22.5 114t19 77q20 34 33.5 53.5t25 28.5t22 10.5t24.5 0.5q5 0 12 -0.5t15 -0.5 q13 -2 28.5 -5t29 -9t22.5 -15.5t9 -23.5q0 -12 -5 -26.5t-19 -34.5z" />
<glyph unicode="&#xba;" horiz-adv-x="990" d="M552 1754q-56 0 -99.5 -35.5t-74 -92.5t-46.5 -128t-16 -141q0 -43 8 -76t25 -44q22 -14 44.5 -20t42.5 -6q38 0 71.5 19.5t61.5 51.5t49.5 72.5t37 82.5t23.5 82t8 70q0 36 -7 66t-23 52t-42 34.5t-63 12.5zM707 1858q29 -23 55.5 -50t46.5 -60t32 -72.5t12 -85.5 q0 -63 -17 -126t-48 -121t-73.5 -107.5t-93.5 -86t-108.5 -57.5t-117.5 -21q-49 0 -94.5 15t-84.5 43q-35 26 -49 82.5t-14 124.5q0 41 4.5 82.5t11.5 80.5t16.5 73t20.5 59q15 34 30 70.5t32 71.5t36.5 67.5t42.5 58.5q16 17 33 17q16 0 32 -16t27 -36q26 13 59.5 19.5 t68.5 6.5q42 0 80.5 -7.5t59.5 -24.5zM745 947q54 0 92 -4.5t61 -11.5t33.5 -17t10.5 -20q0 -14 -13 -28t-34.5 -25.5t-48 -20t-53.5 -9.5l-631 -69q-18 -3 -34 -3q-23 0 -39 9.5t-16 34.5q0 21 11 54v-1q6 15 19.5 27.5t29 22.5t31.5 16t26 9q55 8 123 15t141.5 11.5t148 7 t142.5 2.5z" />
<glyph unicode="&#xbb;" horiz-adv-x="1287" d="M770 884q-26 34 -38 71.5t-12 69.5q0 27 8 44t24 17q17 0 40.5 -16.5t54.5 -54.5q62 -72 104.5 -122t76 -92.5t63 -85t64.5 -98.5q8 -12 11.5 -29t3.5 -35q0 -23 -7.5 -47t-20.5 -40q-91 -105 -187.5 -215.5t-187.5 -214.5q-22 -5 -32 -5q-32 0 -44.5 19.5t-12.5 48.5 q0 35 14.5 73t35.5 64l176 217q60 72 60 133q0 32 -14.5 63t-40.5 65q-33 42 -68 82.5t-71 87.5zM220 845q-24 32 -35.5 67t-11.5 67q0 30 10 50.5t30 20.5q17 0 41 -16t53 -54q61 -70 133 -160.5t147 -208.5q8 -14 13 -35.5t5 -44.5t-6.5 -43.5t-21.5 -31.5l-325 -363 q-10 -2 -17 -3.5t-15 -1.5q-32 0 -46 20.5t-14 49.5q0 17 4 35.5t11 36.5t16.5 33.5t20.5 27.5l122 159q29 35 44.5 65t15.5 58q0 29 -14.5 57.5t-40.5 63.5q-20 25 -35.5 44.5t-29.5 36.5t-27 34t-27 36z" />
<glyph unicode="&#xbc;" horiz-adv-x="1896" d="M1204 1481q16 -7 26.5 -18t13 -30t-5.5 -48.5t-29 -74.5q-12 -24 -49 -83.5t-90.5 -141.5t-119.5 -180t-135.5 -199.5t-138 -200.5t-127 -183t-103 -146t-66.5 -90q-38 -58 -68 -84t-51.5 -29t-33 14t-12 44.5t10 63t34.5 69.5q20 26 60.5 87t94.5 144.5t117.5 183 t128 202.5t127 203t115 184.5t90.5 147.5t55 91q22 37 42.5 55t40 23t38 2t35.5 -6zM496 1311q-15 -22 -33 -62t-36.5 -88.5t-36.5 -101t-33.5 -98t-27 -80.5t-17.5 -49q-28 -91 -56.5 -124.5t-49 -22.5t-27.5 60.5t9 123.5q3 19 12 56.5t21 84.5t26.5 100t29.5 102.5t30 92 t28 70.5q28 50 43.5 72t27.5 27t23 -0.5t30 -10.5q14 -4 32 -11.5t28.5 -24t7.5 -44t-31 -72.5zM1345 272q-31 -7 -56 -11.5t-47 -7.5t-41.5 -4t-38.5 -1q-49 0 -82.5 10t-54 28t-29.5 43t-9 55q0 33 9 72t22 77q16 43 38.5 92.5t46 91t45.5 69.5t37 29q25 1 47.5 -2.5 t39 -9.5t26 -13.5t9.5 -14.5q0 -11 -11 -25t-25 -40q-9 -17 -22 -44.5t-30 -64.5q-7 -14 -13 -29t-14 -32q-14 -30 -22.5 -56t-8.5 -46q0 -29 17.5 -44.5t63.5 -15.5q8 0 18 1t25 3t36 6.5t52 11.5l46 134t43 127q24 71 40 121t30 87t28.5 64t35.5 53q24 32 46 46t40 14 q23 0 37 -20t14 -49q0 -26 -13 -53q-17 -39 -28.5 -67.5t-21.5 -56t-21.5 -60t-28.5 -79.5t-40 -110.5t-46 -122.5q20 6 43 11.5t37 8.5q8 2 18.5 4t26.5 6q42 9 65 12t44 3q31 0 44 -5t13 -13q0 -12 -10 -27t-29 -31t-46.5 -30.5t-61.5 -25.5l-167 -48q-14 -34 -24.5 -69.5 t-19 -69t-14 -62.5t-8.5 -49v1q-2 -16 -6 -33t-6 -29q-3 -15 -7.5 -29t-14 -25.5t-26 -18t-43.5 -6.5q-8 0 -16 0.5t-19 1.5q-8 0 -17.5 1t-18 6t-14 15t-5.5 28q0 14 3.5 32t11.5 42q0 6 6.5 29.5t16.5 55.5t22 67.5t22 65.5z" />
<glyph unicode="&#xbd;" horiz-adv-x="1896" d="M1204 1481q16 -7 26.5 -18t13 -30t-5.5 -48.5t-29 -74.5q-12 -24 -49 -83.5t-90.5 -141.5t-119.5 -180t-135.5 -199.5t-138 -200.5t-127 -183t-103 -146t-66.5 -90q-38 -58 -68 -84t-51.5 -29t-33 14t-12 44.5t10 63t34.5 69.5q20 26 60.5 87t94.5 144.5t117.5 183 t128 202.5t127 203t115 184.5t90.5 147.5t55 91q22 37 42.5 55t40 23t38 2t35.5 -6zM496 1311q-15 -22 -33 -62t-36.5 -88.5t-36.5 -101t-33.5 -98t-27 -80.5t-17.5 -49q-28 -91 -56.5 -124.5t-49 -22.5t-27.5 60.5t9 123.5q3 19 12 56.5t21 84.5t26.5 100t29.5 102.5t30 92 t28 70.5q28 50 43.5 72t27.5 27t23 -0.5t30 -10.5q14 -4 32 -11.5t28.5 -24t7.5 -44t-31 -72.5zM1670 220q-94 -51 -167.5 -87t-136.5 -60t-119.5 -39.5t-114.5 -25.5q-58 -8 -90 0t-45 26t-11 43.5t12 51.5t25.5 50.5t29.5 40.5q30 38 62 69.5t69 63t78.5 66t89.5 77.5 q16 14 21 25t4.5 19t-5.5 12t-10 4q-24 1 -44 3.5t-40.5 3.5t-45.5 0.5t-59 -3.5q-71 -2 -106 14t-39 43.5t19.5 64t70.5 76.5q24 -3 67.5 -9t92.5 -12.5t95.5 -13t75.5 -11.5q54 -7 84.5 -24t42.5 -41.5t7.5 -53.5t-21 -60t-42.5 -61.5t-57 -58.5q-38 -33 -66 -54 t-52.5 -39.5t-47.5 -39t-50 -51.5q-7 -9 -20 -21t-18.5 -20t4 -9t47.5 13q52 15 87.5 26.5t62 21t47 18.5t42 19t46.5 23t60 30q44 22 81.5 31t64 7.5t38.5 -13.5t4.5 -31.5t-37 -46t-86.5 -57.5z" />
<glyph unicode="&#xbe;" horiz-adv-x="1896" d="M1345 272q-31 -7 -56 -11.5t-47 -7.5t-41.5 -4t-38.5 -1q-49 0 -82.5 10t-54 28t-29.5 43t-9 55q0 33 9 72t22 77q16 43 38.5 92.5t46 91t45.5 69.5t37 29q25 1 47.5 -2.5t39 -9.5t26 -13.5t9.5 -14.5q0 -11 -11 -25t-25 -40q-9 -17 -22 -44.5t-30 -64.5q-7 -14 -13 -29 t-14 -32q-14 -30 -22.5 -56t-8.5 -46q0 -29 17.5 -44.5t63.5 -15.5q8 0 18 1t25 3t36 6.5t52 11.5l46 134t43 127q24 71 40 121t30 87t28.5 64t35.5 53q24 32 46 46t40 14q23 0 37 -20t14 -49q0 -26 -13 -53q-17 -39 -28.5 -67.5t-21.5 -56t-21.5 -60t-28.5 -79.5 t-40 -110.5t-46 -122.5q20 6 43 11.5t37 8.5q8 2 18.5 4t26.5 6q42 9 65 12t44 3q31 0 44 -5t13 -13q0 -12 -10 -27t-29 -31t-46.5 -30.5t-61.5 -25.5l-167 -48q-14 -34 -24.5 -69.5t-19 -69t-14 -62.5t-8.5 -49v1q-2 -16 -6 -33t-6 -29q-3 -15 -7.5 -29t-14 -25.5t-26 -18 t-43.5 -6.5q-8 0 -16 0.5t-19 1.5q-8 0 -17.5 1t-18 6t-14 15t-5.5 28q0 14 3.5 32t11.5 42q0 6 6.5 29.5t16.5 55.5t22 67.5t22 65.5zM1354 1481q16 -7 26.5 -18t13 -30t-5.5 -48.5t-29 -74.5q-12 -24 -49 -83.5t-90.5 -141.5t-119.5 -180t-135.5 -199.5t-138 -200.5 t-127 -183t-103 -146t-66.5 -90q-38 -58 -68 -84t-51.5 -29t-33 14t-12 44.5t10 63t34.5 69.5q20 26 60.5 87t94.5 144.5t117.5 183t128 202.5t127 203t115 184.5t90.5 147.5t55 91q22 37 42.5 55t40 23t38 2t35.5 -6zM671 1211q-38 -24 -65 -35.5t-50.5 -20.5t-48 -19 t-57.5 -31q-27 -15 -43 -21.5t-21 -8.5t-0.5 -2.5t18.5 -3.5q35 -4 83 -10t111 -23q65 -14 102.5 -36.5t40 -57t-35 -82t-121.5 -109.5q-43 -33 -87.5 -65t-87.5 -63t-84 -59t-77 -52q-46 -35 -75.5 -47.5t-45.5 -9t-19 19.5t5 39.5t25 50.5t41 53q28 26 60.5 50.5t68 51 t74 55.5t78.5 64q21 22 36 33t21.5 16t2 7.5t-23.5 7.5q-22 3 -40.5 6.5t-37 6.5t-39.5 5.5t-48 4.5q-63 8 -98.5 22.5t-51 32.5t-14 38.5t12.5 40t27.5 36t31.5 28.5q26 19 53.5 34t56.5 29.5t59 29t61 31.5q33 19 55 29.5t31.5 16.5t6.5 9.5t-20 8.5q-24 9 -58.5 17 t-73.5 15.5t-79 13.5t-74 10q-20 9 -28 27t-7 39.5t10 44t24.5 40t35.5 27t43 6.5q49 -14 116 -31t160 -48q81 -29 119.5 -61.5t42 -66t-24 -67.5t-77.5 -67z" />
<glyph unicode="&#xbf;" horiz-adv-x="1134" d="M578 1036q-11 17 -16 36t-5 39q0 30 8.5 58.5t22.5 51.5t30.5 38t33.5 18q23 4 36.5 6t21.5 2q10 0 22 -5t27 -13q4 -2 7.5 -3.5t8.5 -4.5q26 -17 36 -42.5t10 -56.5q0 -33 -9 -66t-22 -60t-28 -45t-27 -20t-22.5 -4t-19.5 -2q-36 0 -62.5 18t-52.5 55zM415 -333 q-57 27 -100.5 62.5t-72 76t-43 85.5t-14.5 90q0 64 29.5 126t89.5 114q21 18 48.5 38.5t58 40.5t60.5 38.5t56 33.5q8 5 16 9.5t15 9.5q42 29 68.5 69.5t26.5 87.5q0 16 -4 31t-12 35l-2 5q-7 17 -15.5 29.5t-14.5 23.5q-11 20 -17 33.5t-6 24.5q0 9 2.5 21.5t14.5 26.5 q8 9 21 12t25 3q36 0 77 -29t81 -85l3 -5q19 -31 26 -57t7 -55q0 -55 -26.5 -103.5t-62.5 -86.5q-20 -20 -46.5 -43t-60.5 -50q-41 -33 -92 -76t-93 -85q-42 -32 -60.5 -66.5t-18.5 -65.5q0 -32 15 -60t37 -50.5t48 -37.5t49 -20q21 -6 57 -6q38 0 87.5 6.5t90.5 13.5 q20 3 38.5 6t33.5 5q48 4 81.5 -4.5t55 -24.5t31.5 -37.5t10 -43.5q0 -41 -22 -75t-59 -42q-38 -8 -88 -12t-108 -4q-41 0 -83 3t-83.5 10.5t-81 20.5t-73.5 32v1z" />
<glyph unicode="&#xc0;" horiz-adv-x="1344" d="M783 1689q5 -18 5 -34q0 -20 -6 -37.5t-17 -17.5q-8 0 -19 10l-56 50t-52 49t-43 45t-28 38h1q-4 7 0 25.5t16.5 35.5t33.5 27.5t51 1.5v1q11 -3 26.5 -23.5t31 -49t30.5 -61.5t26 -61v1zM876 608q-2 12 -7 43t-13 73.5t-18.5 94t-22.5 105t-26 106.5t-28 98 q-59 -105 -104 -202t-85 -185q-9 -21 -20 -45t-21.5 -47t-20.5 -44.5t-18 -37.5zM890 1289q21 -48 39 -109.5t34 -127.5t29 -131.5t22.5 -122.5t16.5 -100.5t10 -64.5l137 16q11 2 20.5 3t17.5 1q38 0 62 -12t24 -30q0 -17 -25.5 -37t-85.5 -37l2 1l-137 -26 q11 -66 24.5 -138t25.5 -138v1q4 -38 -3 -70.5t-20 -56.5t-31 -38t-36 -14q-26 0 -48 32.5t-30 107.5q-4 28 -7 55.5t-6 53.5v-1q-5 48 -10.5 90.5t-15.5 86.5l-474 -72q-56 -146 -93.5 -255.5t-55.5 -168.5q-3 -9 -5.5 -17.5t-5.5 -15.5q-17 -59 -45.5 -87.5t-76.5 -34.5 q-7 -3 -21 -1.5t-27.5 10t-23.5 26t-10 46.5q0 17 3.5 35.5t10.5 41.5v-1q7 17 14 37.5t15 40.5q9 27 20 57.5t26 69t35.5 85.5t49.5 107q-20 -2 -34 1t-26 3q-23 0 -45.5 7.5t-33.5 27.5h1q-15 30 -15 50q0 32 36.5 48t97.5 24h-1l94 10q20 58 51.5 131t71 154.5t86 167.5 t98.5 170.5t108 164t114 147.5q26 32 51 45.5t46 13.5q28 0 45.5 -21t17.5 -51q0 -19 -7.5 -38.5t-26.5 -38.5z" />
<glyph unicode="&#xc1;" horiz-adv-x="1344" d="M646 1696q10 28 25 60.5t31 61t31 49t27 23.5v-1q30 9 51 -1.5t33.5 -27.5t16 -35t-0.5 -25q-17 -33 -61 -75.5t-93 -87.5q-5 -5 -11 -10.5t-11 -10.5v1q-11 -10 -18 -10q-13 0 -19.5 17.5t-6.5 37.5q0 19 6 33v1zM876 608q-2 12 -7 43t-13 73.5t-18.5 94t-22.5 105 t-26 106.5t-28 98q-59 -105 -104 -202t-85 -185q-9 -21 -20 -45t-21.5 -47t-20.5 -44.5t-18 -37.5zM890 1289q21 -48 39 -109.5t34 -127.5t29 -131.5t22.5 -122.5t16.5 -100.5t10 -64.5l137 16q11 2 20.5 3t17.5 1q38 0 62 -12t24 -30q0 -17 -25.5 -37t-85.5 -37l2 1 l-137 -26q11 -66 24.5 -138t25.5 -138v1q4 -38 -3 -70.5t-20 -56.5t-31 -38t-36 -14q-26 0 -48 32.5t-30 107.5q-4 28 -7 55.5t-6 53.5v-1q-5 48 -10.5 90.5t-15.5 86.5l-474 -72q-56 -146 -93.5 -255.5t-55.5 -168.5q-3 -9 -5.5 -17.5t-5.5 -15.5q-17 -59 -45.5 -87.5 t-76.5 -34.5q-7 -3 -21 -1.5t-27.5 10t-23.5 26t-10 46.5q0 17 3.5 35.5t10.5 41.5v-1q7 17 14 37.5t15 40.5q9 27 20 57.5t26 69t35.5 85.5t49.5 107q-20 -2 -34 1t-26 3q-23 0 -45.5 7.5t-33.5 27.5h1q-15 30 -15 50q0 32 36.5 48t97.5 24h-1l94 10q20 58 51.5 131 t71 154.5t86 167.5t98.5 170.5t108 164t114 147.5q26 32 51 45.5t46 13.5q28 0 45.5 -21t17.5 -51q0 -19 -7.5 -38.5t-26.5 -38.5z" />
<glyph unicode="&#xc2;" horiz-adv-x="1424" d="M1016 1607q-22 20 -52.5 45.5t-59.5 48.5q-33 26 -70 54q-38 -27 -74 -53q-31 -23 -64.5 -48.5t-59.5 -45.5q-27 -21 -54 -32.5t-46 -11.5q-12 0 -19.5 4.5t-7.5 14.5q0 17 23 48q54 70 117 134t118 117q33 27 67 27q20 0 38 -7.5t32 -19.5q66 -54 118.5 -110.5 t97.5 -127.5q22 -35 22 -56q0 -12 -9 -18.5t-22 -6.5q-21 0 -46.5 11.5t-48.5 32.5zM876 608q-2 12 -7 43t-13 73.5t-18.5 94t-22.5 105t-26 106.5t-28 98q-59 -105 -104 -202t-85 -185q-9 -21 -20 -45t-21.5 -47t-20.5 -44.5t-18 -37.5zM890 1289q21 -48 39 -109.5 t34 -127.5t29 -131.5t22.5 -122.5t16.5 -100.5t10 -64.5l137 16q11 2 20.5 3t17.5 1q38 0 62 -12t24 -30q0 -17 -25.5 -37t-85.5 -37l2 1l-137 -26q11 -66 24.5 -138t25.5 -138v1q4 -38 -3 -70.5t-20 -56.5t-31 -38t-36 -14q-26 0 -48 32.5t-30 107.5q-4 28 -7 55.5t-6 53.5 v-1q-5 48 -10.5 90.5t-15.5 86.5l-474 -72q-56 -146 -93.5 -255.5t-55.5 -168.5q-3 -9 -5.5 -17.5t-5.5 -15.5q-17 -59 -45.5 -87.5t-76.5 -34.5q-7 -3 -21 -1.5t-27.5 10t-23.5 26t-10 46.5q0 17 3.5 35.5t10.5 41.5v-1q7 17 14 37.5t15 40.5q9 27 20 57.5t26 69t35.5 85.5 t49.5 107q-20 -2 -34 1t-26 3q-23 0 -45.5 7.5t-33.5 27.5h1q-15 30 -15 50q0 32 36.5 48t97.5 24h-1l94 10q20 58 51.5 131t71 154.5t86 167.5t98.5 170.5t108 164t114 147.5q26 32 51 45.5t46 13.5q28 0 45.5 -21t17.5 -51q0 -19 -7.5 -38.5t-26.5 -38.5z" />
<glyph unicode="&#xc3;" horiz-adv-x="1344" d="M1129 1769q-57 -77 -110 -117t-114 -40q-72 0 -166 60q-17 11 -33 22.5t-30 22.5q-32 25 -61 43t-54 14q-23 -4 -41 -12t-32.5 -18.5t-27 -23l-25.5 -25.5l-18 -18q-29 -31 -51.5 -45t-37.5 -14q-21 0 -21 28q0 11 4.5 26.5t12.5 31.5q18 38 41.5 74t53 64.5t65.5 46 t81 18.5q35 0 62 -6.5t48.5 -17.5t40 -25.5t36.5 -30.5q20 -17 42.5 -34.5t55.5 -35.5q40 -20 66 -20q31 0 56.5 15t51.5 35q9 8 18.5 14.5t20.5 13.5q56 37 86 37q17 0 17 -14q0 -11 -8.5 -28.5t-28.5 -40.5zM876 608q-2 12 -7 43t-13 73.5t-18.5 94t-22.5 105t-26 106.5 t-28 98q-59 -105 -104 -202t-85 -185q-9 -21 -20 -45t-21.5 -47t-20.5 -44.5t-18 -37.5zM890 1289q21 -48 39 -109.5t34 -127.5t29 -131.5t22.5 -122.5t16.5 -100.5t10 -64.5l137 16q11 2 20.5 3t17.5 1q38 0 62 -12t24 -30q0 -17 -25.5 -37t-85.5 -37l2 1l-137 -26 q11 -66 24.5 -138t25.5 -138v1q4 -38 -3 -70.5t-20 -56.5t-31 -38t-36 -14q-26 0 -48 32.5t-30 107.5q-4 28 -7 55.5t-6 53.5v-1q-5 48 -10.5 90.5t-15.5 86.5l-474 -72q-56 -146 -93.5 -255.5t-55.5 -168.5q-3 -9 -5.5 -17.5t-5.5 -15.5q-17 -59 -45.5 -87.5t-76.5 -34.5 q-7 -3 -21 -1.5t-27.5 10t-23.5 26t-10 46.5q0 17 3.5 35.5t10.5 41.5v-1q7 17 14 37.5t15 40.5q9 27 20 57.5t26 69t35.5 85.5t49.5 107q-20 -2 -34 1t-26 3q-23 0 -45.5 7.5t-33.5 27.5h1q-15 30 -15 50q0 32 36.5 48t97.5 24h-1l94 10q20 58 51.5 131t71 154.5t86 167.5 t98.5 170.5t108 164t114 147.5q26 32 51 45.5t46 13.5q28 0 45.5 -21t17.5 -51q0 -19 -7.5 -38.5t-26.5 -38.5z" />
<glyph unicode="&#xc4;" horiz-adv-x="1344" d="M686 1827q10 -17 10 -44q0 -25 -8.5 -52.5t-22 -51t-30.5 -40.5t-35 -21q-38 -9 -51 -9q-12 0 -19.5 6.5t-20.5 20.5q-5 5 -9.5 10t-12.5 12q-13 13 -18 30.5t-5 37.5q0 27 7.5 54t18 49.5t22.5 38t21 18.5l-1 -1q21 5 45 1.5t46 -12.5t39 -21.5t24 -25.5zM1147 1827 q11 -17 11 -45q0 -25 -8.5 -52.5t-22 -50.5t-31 -40t-35.5 -21q-38 -9 -51 -9q-11 0 -18.5 6.5t-21.5 20.5q-5 5 -9.5 10t-11.5 12q-13 13 -18.5 30.5t-5.5 37.5q0 27 7.5 54t18 49.5t23 38t21.5 18.5l-1 -1q21 5 45 1.5t45.5 -12.5t38.5 -21.5t24 -25.5zM876 608 q-2 12 -7 43t-13 73.5t-18.5 94t-22.5 105t-26 106.5t-28 98q-59 -105 -104 -202t-85 -185q-9 -21 -20 -45t-21.5 -47t-20.5 -44.5t-18 -37.5zM890 1289q21 -48 39 -109.5t34 -127.5t29 -131.5t22.5 -122.5t16.5 -100.5t10 -64.5l137 16q11 2 20.5 3t17.5 1q38 0 62 -12 t24 -30q0 -17 -25.5 -37t-85.5 -37l2 1l-137 -26q11 -66 24.5 -138t25.5 -138v1q4 -38 -3 -70.5t-20 -56.5t-31 -38t-36 -14q-26 0 -48 32.5t-30 107.5q-4 28 -7 55.5t-6 53.5v-1q-5 48 -10.5 90.5t-15.5 86.5l-474 -72q-56 -146 -93.5 -255.5t-55.5 -168.5 q-3 -9 -5.5 -17.5t-5.5 -15.5q-17 -59 -45.5 -87.5t-76.5 -34.5q-7 -3 -21 -1.5t-27.5 10t-23.5 26t-10 46.5q0 17 3.5 35.5t10.5 41.5v-1q7 17 14 37.5t15 40.5q9 27 20 57.5t26 69t35.5 85.5t49.5 107q-20 -2 -34 1t-26 3q-23 0 -45.5 7.5t-33.5 27.5h1q-15 30 -15 50 q0 32 36.5 48t97.5 24h-1l94 10q20 58 51.5 131t71 154.5t86 167.5t98.5 170.5t108 164t114 147.5q26 32 51 45.5t46 13.5q28 0 45.5 -21t17.5 -51q0 -19 -7.5 -38.5t-26.5 -38.5z" />
<glyph unicode="&#xc5;" horiz-adv-x="1344" d="M686 1775q-3 -2 -6 -5q-4 -4 -12 -10q-23 -21 -44 -43t-36 -48v1q-9 -14 -12.5 -26.5t-3.5 -23.5q0 -25 21 -38t55 -8q48 9 79.5 35.5t48.5 59.5q11 22 5.5 42t-19.5 35t-32.5 24t-34.5 9zM887 1635q-17 -30 -36 -55.5t-44.5 -45.5t-60.5 -36t-83 -26q-30 -6 -53 -6 q-35 0 -64.5 10t-52 28t-35 43t-12.5 55q0 32 18.5 72.5t62.5 90.5q-32 3 -47.5 13t-15.5 23q0 18 18.5 36t58.5 23h-1l84 9l68 36q11 6 25.5 9t28.5 3q17 0 30.5 -3.5t13.5 -10.5q0 -6 -28 -35q79 -21 114.5 -59.5t35.5 -83.5t-25 -90zM876 608q-2 12 -7 43t-13 73.5 t-18.5 94t-22.5 105t-26 106.5t-28 98q-59 -105 -104 -202t-85 -185q-9 -21 -20 -45t-21.5 -47t-20.5 -44.5t-18 -37.5zM890 1289q21 -48 39 -109.5t34 -127.5t29 -131.5t22.5 -122.5t16.5 -100.5t10 -64.5l137 16q11 2 20.5 3t17.5 1q38 0 62 -12t24 -30q0 -17 -25.5 -37 t-85.5 -37l2 1l-137 -26q11 -66 24.5 -138t25.5 -138v1q4 -38 -3 -70.5t-20 -56.5t-31 -38t-36 -14q-26 0 -48 32.5t-30 107.5q-4 28 -7 55.5t-6 53.5v-1q-5 48 -10.5 90.5t-15.5 86.5l-474 -72q-56 -146 -93.5 -255.5t-55.5 -168.5q-3 -9 -5.5 -17.5t-5.5 -15.5 q-17 -59 -45.5 -87.5t-76.5 -34.5q-7 -3 -21 -1.5t-27.5 10t-23.5 26t-10 46.5q0 17 3.5 35.5t10.5 41.5v-1q7 17 14 37.5t15 40.5q9 27 20 57.5t26 69t35.5 85.5t49.5 107q-20 -2 -34 1t-26 3q-23 0 -45.5 7.5t-33.5 27.5h1q-15 30 -15 50q0 32 36.5 48t97.5 24h-1l94 10 q20 58 51.5 131t71 154.5t86 167.5t98.5 170.5t108 164t114 147.5q26 32 51 45.5t46 13.5q28 0 45.5 -21t17.5 -51q0 -19 -7.5 -38.5t-26.5 -38.5z" />
<glyph unicode="&#xc6;" horiz-adv-x="1886" d="M915 682q3 65 7.5 122t10 109t12 100t13.5 95q6 46 13 102t12 102q-41 -14 -85 -59.5t-88 -108.5t-86.5 -136.5t-78.5 -143.5t-64.5 -130t-45.5 -95zM1656 1459q14 2 27 -1.5t23.5 -11t17 -18t6.5 -22.5q0 -14 -11.5 -28.5t-38.5 -26.5t-71.5 -19.5t-111.5 -8.5l-281 -5 q-17 -39 -32.5 -95t-28 -117t-20.5 -121.5t-10 -106.5l442 33q36 3 63 3q51 0 73.5 -7t22.5 -17q0 -18 -39 -43t-99 -47h1q-29 -10 -76.5 -21t-109.5 -21.5t-136 -20.5t-156 -18q-5 -43 -7 -83.5t-2 -77.5q0 -45 2 -84.5t4 -66.5q2 -26 9 -58t21.5 -60t37.5 -44.5t58 -10.5 q66 12 127 32.5t116.5 45.5t104.5 52t92 52q5 2 13 6.5t13 7.5q31 17 65.5 28.5t57.5 11.5q12 0 19.5 -3.5t7.5 -9.5q0 -29 -84 -107q-99 -88 -180.5 -141t-154.5 -83.5t-140.5 -44t-137.5 -23.5q-17 -3 -31 -3q-44 0 -81.5 19t-65.5 49.5t-44 70t-18 80.5q-1 8 -1 30.5 v51.5q0 21 0.5 47l1 52t1 50t1.5 41q-7 -2 -20.5 -4.5t-18.5 -3.5q-11 -2 -17.5 -3.5t-11.5 -2t-11.5 -1.5t-16.5 -2q-14 -2 -39.5 -4.5t-66.5 -8t-101 -13t-144 -18.5q-55 -143 -91 -250t-56 -167q-4 -11 -7 -21.5t-6 -19.5q-18 -60 -45.5 -88t-72.5 -35q-8 -2 -22.5 -0.5 t-29 10t-25 26t-10.5 47.5t14 77v-1q8 20 15 40.5t15 42.5q9 26 20.5 56t26.5 67.5t35 83.5t48 105q-20 6 -33 5t-26 -1q-22 0 -45 8.5t-34 27.5h1q-15 30 -15 50q0 15 10.5 26.5t29 20.5t42.5 15t51 10l94 11q20 58 51 131t70.5 154t86 167.5t98.5 171t108 163.5t113 146 q28 32 55.5 46t52.5 14q20 0 37.5 -7.5t30 -20t20 -28.5t7.5 -33q0 -12 -8 -29.5t-26 -39.5q54 -1 117.5 -3t127 -3.5t123.5 -2.5t107 -1q42 0 75.5 0.5t55.5 2.5h1z" />
<glyph unicode="&#xc7;" horiz-adv-x="1071" d="M817 -176q0 -50 -20 -90.5t-54.5 -70.5t-80.5 -47t-97 -18q-74 -4 -123.5 12t-89.5 44q-23 17 -34 36t-11 36q0 14 6 26.5t15.5 20t22 9t24.5 -4.5l-2 2q27 -20 49 -32.5t41.5 -19.5t38 -9.5t37.5 -2.5q23 0 45.5 3t40 14.5t28.5 34t11 61.5q0 18 -11.5 31t-27.5 21.5 t-33.5 12.5t-30.5 4q-15 0 -27 -1.5t-20 -3.5q-10 -3 -16 -5q-5 -4 -18.5 -4.5t-26 4t-21 14t-4.5 24.5h-1q10 35 20.5 68.5t20.5 68.5q-15 -2 -29.5 -3t-28.5 -1q-48 0 -89.5 11.5t-75.5 39.5h1q-39 35 -66.5 83t-45.5 106t-26 123t-8 133q0 76 9.5 153t26 150.5 t39.5 139.5t51 120q37 70 86.5 133.5t106 112t117.5 77t120 28.5q56 0 107 -29t94 -95q53 -80 76.5 -138.5t23.5 -94.5q0 -39 -26 -39q-27 0 -75 37.5t-111 119.5l1 -1q-44 61 -102 61q-33 0 -69.5 -23t-73.5 -60.5t-72 -87t-63 -101.5q-22 -44 -39 -96t-29 -106.5t-18 -110 t-6 -106.5q0 -54 6 -102.5t18.5 -89t30.5 -70.5t42 -46l-2 1q24 -22 52.5 -31.5t60.5 -9.5q35 0 71.5 11t71 29.5t65.5 42t54 47.5q19 20 36.5 41t33.5 41q19 24 36 44t32.5 33.5t30 19.5t27.5 2t18.5 -17t5.5 -33q0 -26 -8.5 -57.5t-23.5 -65t-34.5 -66.5t-41.5 -61 q-33 -42 -95 -84.5t-137 -72.5l-33 -115q42 2 82.5 -8.5t72.5 -32t51.5 -53t19.5 -71.5z" />
<glyph unicode="&#xc8;" horiz-adv-x="1210" d="M680 1684q5 -18 5 -34q0 -21 -6.5 -38t-17.5 -17q-7 0 -18 10l-56 50t-52 48.5t-43 44.5t-28 38h1q-4 7 -1 22.5t12 31.5t25.5 28t39.5 12q11 0 24 -4q12 -3 27.5 -23t31 -48.5t30.5 -61t26 -60.5v1zM960 1426q13 2 26 -0.5t23 -8t16.5 -13.5t6.5 -17q0 -12 -12 -25 t-39.5 -26.5t-72 -25.5t-108.5 -22l-226 -5q-17 -34 -31.5 -77t-26.5 -90.5t-23 -97t-20 -95.5q-3 -17 -8 -40.5t-9 -39.5l415 34q17 2 32.5 2h29.5q52 0 74.5 -6t22.5 -16q0 -18 -39 -43.5t-99 -48.5h1q-59 -20 -174.5 -41t-277.5 -37q-10 -24 -18 -54.5t-14.5 -63.5 t-11.5 -65.5t-9 -59.5q-3 -20 -5 -36t-5 -29q-2 -12 -3 -27t-1 -32q0 -24 4 -48t14 -41t28 -25t45 -2h-1q73 10 150.5 32.5t149.5 49.5t134.5 56t104.5 53q12 7 28.5 14t34.5 12t36 8.5t33 3.5q11 0 17.5 -2t6.5 -7q0 -11 -16 -32.5t-55 -57.5q-104 -94 -203.5 -152 t-192 -91t-176.5 -47.5t-155 -20.5q-44 -3 -80 16t-62 52.5t-40.5 77.5t-14.5 91q0 11 1 23.5t3 25.5q4 25 14.5 82.5t25.5 136.5t34 174t42 195t48 199t52 187h-72t-65 -1q-22 -1 -40 -1h-32h-22t-13 2q-54 13 -79 31.5t-31 55.5q5 28 38.5 41.5t99.5 21.5q22 0 69.5 -0.5 t111.5 -2.5q54 -1 115.5 -2.5t123.5 -2.5t122 -1.5t111 -0.5q45 0 81 0.5t57 2.5h1z" />
<glyph unicode="&#xc9;" horiz-adv-x="1210" d="M526 1693q10 28 25 60.5t31 61t31 49t27 24.5l-1 -1q30 9 51.5 -1.5t34 -27.5t16.5 -35.5t0 -26.5h1q-9 -17 -28 -38t-43.5 -44.5t-52.5 -49t-56 -49.5q-11 -10 -18 -10q-11 0 -17 17.5t-6 37.5q0 19 5 34v-1zM960 1426q13 2 26 -0.5t23 -8t16.5 -13.5t6.5 -17 q0 -12 -12 -25t-39.5 -26.5t-72 -25.5t-108.5 -22l-226 -5q-17 -34 -31.5 -77t-26.5 -90.5t-23 -97t-20 -95.5q-3 -17 -8 -40.5t-9 -39.5l415 34q17 2 32.5 2h29.5q52 0 74.5 -6t22.5 -16q0 -18 -39 -43.5t-99 -48.5h1q-59 -20 -174.5 -41t-277.5 -37q-10 -24 -18 -54.5 t-14.5 -63.5t-11.5 -65.5t-9 -59.5q-3 -20 -5 -36t-5 -29q-2 -12 -3 -27t-1 -32q0 -24 4 -48t14 -41t28 -25t45 -2h-1q73 10 150.5 32.5t149.5 49.5t134.5 56t104.5 53q12 7 28.5 14t34.5 12t36 8.5t33 3.5q11 0 17.5 -2t6.5 -7q0 -11 -16 -32.5t-55 -57.5 q-104 -94 -203.5 -152t-192 -91t-176.5 -47.5t-155 -20.5q-44 -3 -80 16t-62 52.5t-40.5 77.5t-14.5 91q0 11 1 23.5t3 25.5q4 25 14.5 82.5t25.5 136.5t34 174t42 195t48 199t52 187h-72t-65 -1q-22 -1 -40 -1h-32h-22t-13 2q-54 13 -79 31.5t-31 55.5q5 28 38.5 41.5 t99.5 21.5q22 0 69.5 -0.5t111.5 -2.5q54 -1 115.5 -2.5t123.5 -2.5t122 -1.5t111 -0.5q45 0 81 0.5t57 2.5h1z" />
<glyph unicode="&#xca;" horiz-adv-x="1210" d="M806 1614q-20 20 -52 45.5t-61 48.5q-35 27 -72 55q-37 -28 -73 -54q-31 -23 -64.5 -48.5t-58.5 -45.5q-28 -22 -53.5 -32.5t-45.5 -10.5q-26 0 -26 18q0 19 21 49q56 70 119 135.5t117 116.5v-1q17 14 34 20t34 6q19 0 37.5 -7.5t33.5 -18.5q63 -54 116 -111t98 -127 q20 -35 20 -56q0 -13 -8.5 -19.5t-22.5 -6.5q-20 0 -45.5 12t-47.5 32zM960 1426q13 2 26 -0.5t23 -8t16.5 -13.5t6.5 -17q0 -12 -12 -25t-39.5 -26.5t-72 -25.5t-108.5 -22l-226 -5q-17 -34 -31.5 -77t-26.5 -90.5t-23 -97t-20 -95.5q-3 -17 -8 -40.5t-9 -39.5l415 34 q17 2 32.5 2h29.5q52 0 74.5 -6t22.5 -16q0 -18 -39 -43.5t-99 -48.5h1q-59 -20 -174.5 -41t-277.5 -37q-10 -24 -18 -54.5t-14.5 -63.5t-11.5 -65.5t-9 -59.5q-3 -20 -5 -36t-5 -29q-2 -12 -3 -27t-1 -32q0 -24 4 -48t14 -41t28 -25t45 -2h-1q73 10 150.5 32.5t149.5 49.5 t134.5 56t104.5 53q12 7 28.5 14t34.5 12t36 8.5t33 3.5q11 0 17.5 -2t6.5 -7q0 -11 -16 -32.5t-55 -57.5q-104 -94 -203.5 -152t-192 -91t-176.5 -47.5t-155 -20.5q-44 -3 -80 16t-62 52.5t-40.5 77.5t-14.5 91q0 11 1 23.5t3 25.5q4 25 14.5 82.5t25.5 136.5t34 174 t42 195t48 199t52 187h-72t-65 -1q-22 -1 -40 -1h-32h-22t-13 2q-54 13 -79 31.5t-31 55.5q5 28 38.5 41.5t99.5 21.5q22 0 69.5 -0.5t111.5 -2.5q54 -1 115.5 -2.5t123.5 -2.5t122 -1.5t111 -0.5q45 0 81 0.5t57 2.5h1z" />
<glyph unicode="&#xcb;" horiz-adv-x="1210" d="M983 1803q5 -8 7.5 -18.5t2.5 -21.5q0 -23 -8.5 -48.5t-22 -47t-31 -37t-35.5 -19.5h1q-20 -4 -32 -6t-20 -2q-11 0 -20 7t-20 18q-5 5 -9.5 10t-12.5 11v-1q-12 11 -17.5 27.5t-5.5 33.5q0 24 7.5 49t18 46t22.5 35t21 17l-1 -1q21 5 45.5 1t46 -12.5t38.5 -20t25 -21.5 v1zM523 1803q5 -8 7 -18t2 -21q0 -23 -8.5 -48.5t-22 -47.5t-31 -37.5t-35.5 -19.5h1q-20 -4 -33 -6t-21 -2q-11 0 -19.5 6t-23.5 21q-5 4 -9 9t-10 10v-1q-12 11 -17.5 27.5t-5.5 33.5q0 24 7.5 49t18 46t22.5 35t21 17l-1 -1q22 5 46.5 1t47 -12.5t40 -20t25.5 -21.5z M960 1426q13 2 26 -0.5t23 -8t16.5 -13.5t6.5 -17q0 -12 -12 -25t-39.5 -26.5t-72 -25.5t-108.5 -22l-226 -5q-17 -34 -31.5 -77t-26.5 -90.5t-23 -97t-20 -95.5q-3 -17 -8 -40.5t-9 -39.5l415 34q17 2 32.5 2h29.5q52 0 74.5 -6t22.5 -16q0 -18 -39 -43.5t-99 -48.5h1 q-59 -20 -174.5 -41t-277.5 -37q-10 -24 -18 -54.5t-14.5 -63.5t-11.5 -65.5t-9 -59.5q-3 -20 -5 -36t-5 -29q-2 -12 -3 -27t-1 -32q0 -24 4 -48t14 -41t28 -25t45 -2h-1q73 10 150.5 32.5t149.5 49.5t134.5 56t104.5 53q12 7 28.5 14t34.5 12t36 8.5t33 3.5q11 0 17.5 -2 t6.5 -7q0 -11 -16 -32.5t-55 -57.5q-104 -94 -203.5 -152t-192 -91t-176.5 -47.5t-155 -20.5q-44 -3 -80 16t-62 52.5t-40.5 77.5t-14.5 91q0 11 1 23.5t3 25.5q4 25 14.5 82.5t25.5 136.5t34 174t42 195t48 199t52 187h-72t-65 -1q-22 -1 -40 -1h-32h-22t-13 2 q-54 13 -79 31.5t-31 55.5q5 28 38.5 41.5t99.5 21.5q22 0 69.5 -0.5t111.5 -2.5q54 -1 115.5 -2.5t123.5 -2.5t122 -1.5t111 -0.5q45 0 81 0.5t57 2.5h1z" />
<glyph unicode="&#xcc;" d="M653 1714q6 -14 6 -34t-6.5 -36.5t-17.5 -16.5q-7 0 -18 10q-7 6 -14.5 11.5t-14.5 12.5q-24 21 -47 42.5t-43 42t-35.5 39t-24.5 33.5h1q-3 6 -0.5 22t12 32t26 28.5t39.5 12.5q11 0 24 -4q12 -3 27 -23.5t31 -49t30.5 -61t24.5 -60.5v-1zM702 1324 q-16 -43 -33.5 -114.5t-35 -162.5t-34.5 -195.5t-32 -214t-28 -218.5t-23 -208q69 0 144 2.5t154 11.5h-1q18 2 36.5 -1.5t33 -10.5t23.5 -17t9 -22t-11.5 -25t-38 -25.5t-70.5 -23.5t-108 -19q-27 -4 -66 -7.5t-84 -7t-93.5 -7t-95 -6t-88.5 -4t-73 -1.5h-24.5t-19.5 1 q-28 2 -46 15t-28.5 31.5t-14.5 40.5t-4 43q12 22 41.5 29.5t71.5 7.5q24 0 51 -1.5t56 -3.5l85 -6q0 77 6 174.5t16.5 203t23.5 213t27.5 205t28.5 178.5t26 133q-15 -1 -32 -1.5l-34 -1t-32.5 -1t-27.5 -0.5q-32 0 -52.5 1.5t-25.5 6.5q-51 0 -73.5 18.5t-23.5 56.5 q10 19 22 33t29.5 24t43.5 17.5t65 12.5q31 -5 84.5 -7t116.5 -2q46 0 96 1t97.5 2t89.5 2.5t74 3.5q16 0 33 -3.5t31 -9.5t22.5 -13.5t8.5 -15.5q0 -11 -12.5 -23t-41 -25t-73.5 -26t-109 -25l-46 -5z" />
<glyph unicode="&#xcd;" d="M510 1709q11 29 26 62t30.5 61.5t30.5 48.5t26 23q30 8 51.5 -2t34 -27.5t16.5 -35.5t1 -25h1q-9 -16 -27 -36t-40.5 -42.5t-48.5 -46t-52 -47.5h1q-3 -2 -9 -7t-9 -7q-7 -7 -13 -7q-11 0 -17.5 17.5t-6.5 38.5q0 18 5 33v-1zM705 1324q-17 -43 -34 -114.5t-34.5 -162 t-34.5 -195.5t-32.5 -214.5t-28.5 -218.5t-23 -208q69 0 144.5 2.5t154.5 11.5h-1q18 2 36.5 -1.5t32.5 -10.5t23 -17t9 -22t-11.5 -25t-38 -25.5t-70.5 -23.5t-108 -19q-27 -4 -66 -7.5t-84 -7t-93.5 -7t-95 -6t-88.5 -4t-73 -1.5h-24.5t-19.5 1q-28 3 -46 15.5t-28.5 31 t-14.5 40.5t-4 43q12 22 41.5 29.5t71.5 7.5q24 0 51 -1.5t56 -3.5l85 -6q0 77 6 174.5t16.5 203t24 213t27.5 205t28 178.5t26 133q-14 -1 -31 -1.5l-34 -1t-33 -1t-28 -0.5q-31 0 -51.5 1.5t-24.5 6.5q-51 0 -73.5 18.5t-24.5 54.5q10 19 21.5 33.5t29 25t43.5 17.5t65 13 q31 -5 84.5 -7t116.5 -2q46 0 96 1t97.5 2t89.5 2.5t74 3.5q16 0 33.5 -3.5t31 -9t22.5 -13t9 -16.5q0 -11 -12.5 -23t-41 -25t-73.5 -26t-110 -25l-45 -5z" />
<glyph unicode="&#xce;" d="M812 1642q-21 18 -52 41t-60 44q-34 25 -70 50q-37 -24 -73 -49q-31 -21 -65 -44.5t-59 -41.5q-26 -20 -51.5 -29.5t-45.5 -9.5q-26 0 -26 13q0 18 23 44q45 58 100.5 110t106.5 98q7 6 13.5 11.5t12.5 10.5h-1q14 12 31 17t34 5q20 0 39 -6t33 -17v1q65 -51 116 -101.5 t95 -115.5q11 -16 16 -28t5 -22q0 -11 -8.5 -16t-21.5 -5q-20 0 -44.5 10t-47.5 30zM702 1324q-16 -43 -33.5 -114.5t-35 -162.5t-34.5 -195.5t-32 -214t-28 -218.5t-23 -208q69 0 144 2.5t154 11.5h-1q18 2 36.5 -1.5t33 -10.5t23.5 -17t9 -22t-11.5 -25t-38 -25.5 t-70.5 -23.5t-108 -19q-27 -4 -66 -7.5t-84 -7t-93.5 -7t-95 -6t-88.5 -4t-73 -1.5h-24.5t-19.5 1q-28 2 -46 15t-28.5 31.5t-14.5 40.5t-4 43q12 22 41.5 29.5t71.5 7.5q24 0 51 -1.5t56 -3.5l85 -6q0 77 6 174.5t16.5 203t23.5 213t27.5 205t28.5 178.5t26 133 q-15 -1 -32 -1.5l-34 -1t-32.5 -1t-27.5 -0.5q-32 0 -52.5 1.5t-25.5 6.5q-51 0 -73.5 18.5t-23.5 56.5q10 19 22 33t29.5 24t43.5 17.5t65 12.5q31 -5 84.5 -7t116.5 -2q46 0 96 1t97.5 2t89.5 2.5t74 3.5q16 0 33 -3.5t31 -9.5t22.5 -13.5t8.5 -15.5q0 -11 -12.5 -23 t-41 -25t-73.5 -26t-109 -25l-46 -5z" />
<glyph unicode="&#xcf;" horiz-adv-x="1081" d="M491 1831q11 -14 11 -42q0 -24 -8.5 -49.5t-22 -47.5t-31.5 -38.5t-36 -20.5q-19 -4 -31.5 -6.5t-19.5 -2.5q-11 0 -18.5 6t-21.5 20l-20 20q-13 13 -18.5 29.5t-5.5 35.5q0 25 7.5 51t18 47.5t23 35.5t21.5 17l-1 -1q7 2 14 3t12 1q19 0 39.5 -5.5t37.5 -13.5 t30.5 -18.5t19.5 -20.5zM958 1831q5 -8 7 -18t2 -21q0 -24 -8.5 -50.5t-22.5 -49.5t-31.5 -39t-36.5 -20h1l-32.5 -6.5t-20.5 -2.5q-11 0 -18.5 6t-20.5 20l-21 20q-13 13 -18 29.5t-5 35.5q0 25 7.5 51t18 47.5t22.5 35.5t21 17l-1 -1q7 2 14 3t13 1q20 0 40.5 -5.5 t38.5 -13.5t31.5 -18.5t19.5 -20.5zM700 1324q-16 -43 -33.5 -114.5t-35 -162.5t-34.5 -195.5t-32 -214t-28 -218.5t-23 -208q68 0 143.5 2.5t154.5 11.5h-1q18 2 36.5 -1.5t32.5 -10.5t23 -17t9 -22t-11.5 -25t-38 -25.5t-70.5 -23.5t-108 -19q-27 -4 -65.5 -7.5t-84 -7 t-94 -7t-95.5 -6t-88.5 -4t-72.5 -1.5h-24.5t-19.5 1q-28 3 -46 15.5t-28.5 31t-14.5 40.5t-4 43q12 22 41.5 29.5t71.5 7.5q24 0 51 -1.5t56 -3.5l86 -6q0 77 6 174.5t16.5 203t23.5 213t27 204.5t28 178t26 134q-15 -1 -32 -1.5l-34 -1t-32.5 -1t-27.5 -0.5 q-31 0 -51.5 1.5t-24.5 6.5q-52 0 -75.5 18.5t-23.5 56.5q10 19 22 33t29.5 24t43.5 17.5t66 12.5q31 -5 84.5 -7t116.5 -2q46 0 96 1t97.5 2t89.5 2.5t73 3.5q17 0 34 -3.5t31 -9.5t22.5 -13.5t8.5 -15.5q0 -11 -12.5 -23t-41 -25t-73.5 -26t-109 -25l-46 -5z" />
<glyph unicode="&#xd0;" horiz-adv-x="1289" d="M661 824q4 0 9.5 -0.5t10.5 -0.5q51 -3 86.5 -9t57 -14t31.5 -17.5t10 -19.5q0 -13 -11.5 -25.5t-30.5 -22.5t-44 -17.5t-51 -9.5l-245 -28q-19 -105 -33 -201t-24 -173t-15 -129t-5 -68q-16 -85 -47 -122t-64 -35q-38 9 -56.5 40t-18.5 91q0 13 0.5 28.5t1.5 31.5 q-3 10 2.5 55.5t16.5 115.5t27.5 159t35.5 187q-39 -5 -87.5 -10.5t-88.5 -10.5q-8 -1 -17 -1.5t-16 -0.5q-24 0 -41 8.5t-17 34.5q0 21 11 54v-1q8 20 17.5 32.5t20.5 23.5l22 22q74 8 131 14t102 12q12 62 26 127t28.5 125.5t28 114.5t24.5 95q-14 -1 -34.5 -2t-31.5 -1 q-65 0 -92 14t-27 34q0 19 16 40.5t41 43.5q85 26 166.5 38t158.5 12q97 0 183 -18.5t155 -51.5t118.5 -78.5t74.5 -100.5q33 -72 48.5 -156.5t15.5 -172.5q0 -121 -26.5 -233.5t-75.5 -196.5q-72 -123 -188 -189.5t-275 -77.5q-28 0 -52 5t-42 12.5t-28 18t-10 21.5 q0 24 34.5 50.5t113.5 46.5q5 2 10.5 3.5t10.5 3.5l-1 -1q29 8 65.5 20t75 35t76 60t67.5 96q16 32 28.5 72.5t20.5 84.5t12 91t4 92q0 64 -8 120.5t-23 94.5v-1q-18 50 -49 84.5t-70.5 56t-86.5 31t-96 9.5q-23 0 -45.5 -1.5t-46.5 -5.5q-36 -98 -65.5 -215.5t-53.5 -238.5 q28 0 65 -1t79 -3z" />
<glyph unicode="&#xd1;" horiz-adv-x="1217" d="M1057 1755q-57 -77 -110.5 -117.5t-113.5 -40.5q-36 0 -77 14.5t-89 46.5q-17 10 -33 22t-30 23q-32 24 -60.5 42.5t-53.5 14.5q-45 -8 -74 -31t-55 -49l-17 -17q-29 -32 -51.5 -46t-37.5 -14q-19 0 -19 27q0 23 16 61v-1q18 39 41 75t52 64t65.5 45t83.5 18 q35 0 61.5 -6t47.5 -17t39 -25t36 -30q22 -19 45.5 -37.5t55.5 -34.5v1q37 -21 65 -21q31 0 56 15.5t52 35.5l-1 -1q10 7 20 14.5t21 14.5q29 19 50 27t35 8q17 0 17 -13q0 -24 -37 -68zM1135 1230q9 -24 9 -64q0 -41 -10.5 -88t-27.5 -90q-20 -45 -35.5 -104t-28 -125.5 t-22 -137t-18.5 -137.5q-5 -35 -9 -70.5t-9 -69.5q-2 -17 -2 -32v-29v-26.5t1 -24.5q0 -10 0.5 -18t0.5 -16q0 -30 -7.5 -49t-34.5 -33q-11 -11 -27 -11q-14 0 -31.5 8.5t-35 27t-34 47.5t-28.5 70q-45 105 -88 192t-82 159t-74 130.5t-65 106.5q-9 15 -20 33.5t-21.5 37 t-20.5 35.5t-16 29q-18 -66 -34.5 -147t-30 -167t-24.5 -170.5t-19.5 -157t-13.5 -127.5t-6 -82q-4 -29 -6 -54t-4 -46q-3 -33 -6 -56.5t-11 -38.5t-23.5 -22.5t-42.5 -8.5q-20 0 -36.5 17.5t-28.5 47.5t-18.5 70t-6.5 84q0 16 1 31t4 31q12 95 29 215.5t37.5 250.5 t45 260.5t51 245.5t55 206t58.5 142l-2 -1q5 5 8.5 10.5t5.5 9.5l-1 -1q6 11 15 21t32 15q13 3 30 0.5t32.5 -15t26 -36t10.5 -62.5q0 -26 -6 -62q-4 -10 -6.5 -16t-5.5 -13q-6 -14 -10.5 -26.5t-9 -30.5t-9.5 -44.5t-12 -69.5q16 -29 46.5 -81t66.5 -113q23 -39 50 -83 t54 -88.5t53.5 -88.5t49 -84t40 -74.5t27.5 -59.5q1 75 14 166t33.5 183t45 178t48.5 149l-1 -1q11 21 23 41t24 35.5t23.5 25t22.5 9.5t23 -15.5t25 -52.5z" />
<glyph unicode="&#xd2;" horiz-adv-x="1107" d="M893 1424q26 -26 46 -66.5t33.5 -91.5t20 -110t6.5 -122q0 -120 -24.5 -242.5t-74.5 -224.5q-47 -104 -111 -190t-138 -148t-156.5 -96.5t-166.5 -34.5q-62 0 -119 18l4 -1q-27 19 -45.5 58.5t-30.5 91t-17 113t-5 124.5q0 59 4.5 118t11.5 111t16.5 93.5t20.5 67.5 l57 125q-9 0 -19.5 1.5t-19 3.5t-14.5 5.5t-6 8.5q-5 36 19 85.5t65.5 100t95 94.5t106.5 69q25 14 59 29.5t72.5 28t80 21t81.5 8.5q42 0 80 -11.5t68 -37.5v1zM669 1285q-37 0 -81.5 -13.5t-93.5 -37.5q-32 -36 -60 -89.5t-52 -117.5t-43 -134.5t-32.5 -140.5t-20.5 -136 t-7 -120q0 -65 11 -108.5t36 -56.5q36 -16 74 -16q58 0 111.5 35.5t100 90.5t83.5 121.5t62 127.5q28 71 41 152.5t13 156.5q0 44 -4 84t-12 73t-19.5 57.5t-25.5 38.5q-26 33 -81 33zM720 1687q5 -18 5 -34q0 -21 -6.5 -38t-18.5 -17q-9 0 -20 10q-5 5 -10.5 10t-10.5 10h1 q-25 22 -49.5 44.5t-45.5 43t-37 39t-24 33.5h1q-3 7 -0.5 23t11.5 32t25 28t39 12q13 0 25 -3q11 -3 26.5 -23.5t31.5 -49t31 -61t26 -60.5v1zM751 1251l-1 1l-2 2z" />
<glyph unicode="&#xd3;" horiz-adv-x="1107" d="M893 1424q26 -26 46 -66.5t33.5 -91.5t20 -110t6.5 -122q0 -120 -24.5 -242.5t-74.5 -224.5q-47 -104 -111 -190t-138 -148t-156.5 -96.5t-166.5 -34.5q-62 0 -119 18l4 -1q-27 19 -45.5 58.5t-30.5 91t-17 113t-5 124.5q0 59 4.5 118t11.5 111t16.5 93.5t20.5 67.5 l57 125q-9 0 -19.5 1.5t-19 3.5t-14.5 5.5t-6 8.5q-5 36 19 85.5t65.5 100t95 94.5t106.5 69q25 14 59 29.5t72.5 28t80 21t81.5 8.5q42 0 80 -11.5t68 -37.5v1zM669 1285q-37 0 -81.5 -13.5t-93.5 -37.5q-32 -36 -60 -89.5t-52 -117.5t-43 -134.5t-32.5 -140.5t-20.5 -136 t-7 -120q0 -65 11 -108.5t36 -56.5q36 -16 74 -16q58 0 111.5 35.5t100 90.5t83.5 121.5t62 127.5q28 71 41 152.5t13 156.5q0 44 -4 84t-12 73t-19.5 57.5t-25.5 38.5q-26 33 -81 33zM575 1705q11 28 26 61t30.5 61.5t31 49t26.5 23.5l-1 -1q31 8 52 -2t33.5 -27.5 t16.5 -35.5t0 -25h1q-9 -17 -27.5 -38t-43 -45t-52.5 -49t-56 -49q-11 -11 -18 -11q-12 0 -18 17.5t-6 37.5q0 19 5 34v-1zM751 1251l-1 1l-2 2z" />
<glyph unicode="&#xd4;" horiz-adv-x="1107" d="M893 1424q26 -26 46 -66.5t33.5 -91.5t20 -110t6.5 -122q0 -120 -24.5 -242.5t-74.5 -224.5q-47 -104 -111 -190t-138 -148t-156.5 -96.5t-166.5 -34.5q-62 0 -119 18l4 -1q-27 19 -45.5 58.5t-30.5 91t-17 113t-5 124.5q0 59 4.5 118t11.5 111t16.5 93.5t20.5 67.5 l57 125q-9 0 -19.5 1.5t-19 3.5t-14.5 5.5t-6 8.5q-5 36 19 85.5t65.5 100t95 94.5t106.5 69q25 14 59 29.5t72.5 28t80 21t81.5 8.5q42 0 80 -11.5t68 -37.5v1zM669 1285q-37 0 -81.5 -13.5t-93.5 -37.5q-32 -36 -60 -89.5t-52 -117.5t-43 -134.5t-32.5 -140.5t-20.5 -136 t-7 -120q0 -65 11 -108.5t36 -56.5q36 -16 74 -16q58 0 111.5 35.5t100 90.5t83.5 121.5t62 127.5q28 71 41 152.5t13 156.5q0 44 -4 84t-12 73t-19.5 57.5t-25.5 38.5q-26 33 -81 33zM807 1604q-20 20 -52 45.5t-61 48.5q-35 27 -72 55q-38 -27 -73 -53q-31 -23 -64 -49 t-59 -46t-53 -31.5t-46 -11.5q-12 0 -19.5 4.5t-7.5 13.5q0 19 22 48q54 71 116.5 134.5t119.5 116.5q15 14 32.5 20.5t34.5 6.5q20 0 38.5 -7.5t33.5 -19.5q63 -52 115.5 -110t97.5 -127q21 -36 21 -56q0 -14 -8.5 -20t-22.5 -6q-20 0 -45.5 12t-47.5 32zM751 1251l-1 1 l-2 2z" />
<glyph unicode="&#xd5;" horiz-adv-x="1107" d="M1009 1774q-58 -77 -111 -117.5t-113 -40.5q-71 0 -166 61q-19 12 -33 22.5t-28 21.5q-30 23 -61 42t-56 16q-43 -9 -71 -29.5t-54 -46.5l-20 -20q-57 -61 -89 -61q-19 0 -19 27q0 24 16 59q18 39 40.5 75.5t52 64.5t66 45t83.5 18q35 1 61.5 -5.5t47.5 -17t39 -25 t36 -30.5q21 -18 45 -37t56 -35v1q38 -20 65 -20q31 0 56 15t52 36l-1 -1l20 14t21 14q28 19 49.5 27.5t35.5 8.5q16 0 16 -13q0 -24 -36 -69zM893 1424q26 -26 46 -66.5t33.5 -91.5t20 -110t6.5 -122q0 -120 -24.5 -242.5t-74.5 -224.5q-47 -104 -111 -190t-138 -148 t-156.5 -96.5t-166.5 -34.5q-62 0 -119 18l4 -1q-27 19 -45.5 58.5t-30.5 91t-17 113t-5 124.5q0 59 4.5 118t11.5 111t16.5 93.5t20.5 67.5l57 125q-9 0 -19.5 1.5t-19 3.5t-14.5 5.5t-6 8.5q-5 36 19 85.5t65.5 100t95 94.5t106.5 69q25 14 59 29.5t72.5 28t80 21 t81.5 8.5q42 0 80 -11.5t68 -37.5v1zM669 1285q-37 0 -81.5 -13.5t-93.5 -37.5q-32 -36 -60 -89.5t-52 -117.5t-43 -134.5t-32.5 -140.5t-20.5 -136t-7 -120q0 -65 11 -108.5t36 -56.5q36 -16 74 -16q58 0 111.5 35.5t100 90.5t83.5 121.5t62 127.5q28 71 41 152.5t13 156.5 q0 44 -4 84t-12 73t-19.5 57.5t-25.5 38.5q-26 33 -81 33zM751 1251l-1 1l-2 2z" />
<glyph unicode="&#xd6;" horiz-adv-x="1107" d="M519 1848q5 -10 7 -21t2 -23q0 -25 -8.5 -52.5t-22 -51t-31 -41t-35.5 -21.5q-38 -8 -51 -8q-11 0 -18.5 6t-21.5 20l-21 21q-23 26 -23 69q0 26 7.5 53t18 49.5t22.5 38t21 18.5q10 3 25 3q19 0 39.5 -5.5t38 -14.5t31 -20t20.5 -21v1zM980 1848q5 -10 7 -21t2 -23 q0 -25 -8.5 -52.5t-22 -51t-31 -41t-35.5 -21.5q-17 -3 -31.5 -6t-19.5 -3q-11 0 -19 7t-22 21l-21 20q-23 26 -23 69q0 26 7.5 53t18.5 49.5t23 38t21 18.5q10 3 26 3q19 0 39.5 -5.5t38 -14.5t31 -20t19.5 -21v1zM893 1424q26 -26 46 -66.5t33.5 -91.5t20 -110t6.5 -122 q0 -120 -24.5 -242.5t-74.5 -224.5q-47 -104 -111 -190t-138 -148t-156.5 -96.5t-166.5 -34.5q-62 0 -119 18l4 -1q-27 19 -45.5 58.5t-30.5 91t-17 113t-5 124.5q0 59 4.5 118t11.5 111t16.5 93.5t20.5 67.5l57 125q-9 0 -19.5 1.5t-19 3.5t-14.5 5.5t-6 8.5q-5 36 19 85.5 t65.5 100t95 94.5t106.5 69q25 14 59 29.5t72.5 28t80 21t81.5 8.5q42 0 80 -11.5t68 -37.5v1zM669 1285q-37 0 -81.5 -13.5t-93.5 -37.5q-32 -36 -60 -89.5t-52 -117.5t-43 -134.5t-32.5 -140.5t-20.5 -136t-7 -120q0 -65 11 -108.5t36 -56.5q36 -16 74 -16 q58 0 111.5 35.5t100 90.5t83.5 121.5t62 127.5q28 71 41 152.5t13 156.5q0 44 -4 84t-12 73t-19.5 57.5t-25.5 38.5q-26 33 -81 33zM751 1251l-1 1l-2 2z" />
<glyph unicode="&#xd7;" horiz-adv-x="851" d="M187 401q-23 -24 -35 -30t-28 -6q-17 0 -25 9.5t-8 23.5q0 25 8.5 51.5t32.5 67.5l170 332q-55 97 -96 168t-67 116q-11 18 -19 33t-15.5 30t-14.5 31t-15 36t-3 40t16.5 35.5t26.5 25t29 9.5q15 0 31 -7t27 -18l218 -374q27 40 58 95.5t61.5 112t59 107t49.5 82.5 q12 17 28 22.5t31 5.5q17 0 32 -9.5t25 -29.5q2 -3 8.5 -22t6.5 -48q0 -20 -9 -38.5t-20 -41.5q-13 -28 -42 -73t-64 -96.5t-71 -104t-62 -94.5l214 -330q13 -20 20 -35.5t11 -29t5 -25.5t1 -24q0 -14 -8 -23.5t-25 -9.5q-8 0 -14 1t-12.5 4.5t-15 11t-21.5 19.5 q-18 17 -40.5 42.5t-47.5 55.5t-51 62t-50 63t-45.5 58.5t-37.5 47.5q-24 -35 -48.5 -79.5t-50.5 -90t-53 -87.5t-55 -72z" />
<glyph unicode="&#xd8;" horiz-adv-x="1107" d="M709 1283q-19 3 -44.5 0.5t-54.5 -9t-59 -17t-57 -23.5q-33 -37 -61.5 -95.5t-52.5 -128.5t-43 -148t-32 -154t-19 -145.5t-5 -122.5q52 104 107 213.5t109 216.5t105.5 207.5t97.5 186.5zM384 320q61 7 117 42t104.5 86.5t87 114.5t64.5 127q27 67 40 147.5t13 155.5 q0 29 -3.5 66t-8.5 80q-35 -64 -75 -139t-82 -154t-83.5 -157t-78.5 -148q-15 -28 -32 -57.5l-34 -59t-33 -57t-28 -51.5zM1018 1664q25 -13 25 -50q0 -26 -14.5 -64.5t-46.5 -91.5l1 2q-10 -9 -27 -36.5t-40 -68.5q35 -71 54 -165.5t19 -197.5q0 -112 -22 -223t-67 -202 q-44 -95 -101 -172.5t-122 -132t-136 -84t-144 -29.5q-28 0 -56.5 5t-59.5 14q-9 -17 -20 -36t-19 -32q-11 -18 -17.5 -31l-9.5 -19q-42 -69 -75.5 -105t-53.5 -36q-10 0 -10 26q0 21 8.5 56t28.5 85q2 6 17 38t38 81q4 8 9.5 20t10.5 21q-18 30 -30.5 68.5t-20.5 82.5 t-11.5 91.5t-3.5 94.5q0 48 3.5 95.5t9.5 89.5t14.5 76.5t18.5 57.5l57 125q-19 0 -39 5t-20 14q-5 36 19 85.5t65.5 100t94.5 94.5t107 69q25 15 58.5 30.5t70 28t75.5 21t77 8.5q36 0 73 -10q20 35 36 61.5t29 43.5q16 31 30.5 51t27 31t24.5 15.5t23 4.5q9 0 20.5 -2.5 t24.5 -5.5z" />
<glyph unicode="&#xd9;" horiz-adv-x="1262" d="M754 1665q6 -14 6 -33q0 -21 -6.5 -37.5t-18.5 -16.5q-8 0 -19 10q-5 4 -8.5 8t-8.5 8h1q-26 23 -51 46t-47 44t-38.5 40.5t-24.5 34.5q-4 6 -1 22t12.5 32t25.5 28.5t40 12.5q10 0 25 -4q11 -3 26 -23t31 -48.5t30.5 -61.5t25.5 -61v-1zM1117 1450q29 -2 40.5 -23 t11.5 -59q0 -32 -7 -75.5t-15 -97.5q-3 -20 -6.5 -40.5t-6.5 -43.5q-4 -20 -7.5 -50.5t-8.5 -65.5q-8 -53 -17.5 -119t-22 -139t-29 -151t-37.5 -154l1 1q-26 -80 -76 -137t-112.5 -96.5t-132 -63t-133.5 -36.5h1q-43 -7 -80.5 -10t-71.5 -3q-155 0 -228.5 72t-73.5 225 q0 24 1.5 51.5t5.5 56.5q9 68 22 155t28.5 178.5t33.5 180.5t37 162t39 123t40 62q20 5 34 5q44 0 68.5 -30t24.5 -74q0 -29 -10 -56q-11 -32 -24.5 -84t-27 -115.5t-27 -133t-25 -136t-20.5 -126.5t-14 -103v2q-4 -18 -5.5 -37t-1.5 -37q0 -34 8 -63.5t26.5 -51t49 -33.5 t75.5 -12q21 0 44.5 2.5t49.5 8.5q73 16 128.5 37t95.5 55.5t67 86.5t43 129q11 58 22.5 122t21.5 127.5t19.5 123.5t17 111t12.5 90t8 60q8 71 18 117t26.5 72t40.5 35t59 5z" />
<glyph unicode="&#xda;" horiz-adv-x="1262" d="M615 1677q10 28 25 60t31 60.5t31 49.5t26 26q13 3 25 3q23 0 39.5 -12t26 -28t12 -32t-0.5 -23h1q-9 -17 -27.5 -38t-43 -44.5t-52.5 -48.5t-56 -49q-11 -10 -18 -10q-12 0 -18 16.5t-6 37.5q0 18 5 33v-1zM1117 1450q29 -2 40.5 -23t11.5 -59q0 -32 -7 -75.5t-15 -97.5 q-3 -20 -6.5 -40.5t-6.5 -43.5q-4 -20 -7.5 -50.5t-8.5 -65.5q-8 -53 -17.5 -119t-22 -139t-29 -151t-37.5 -154l1 1q-26 -80 -76 -137t-112.5 -96.5t-132 -63t-133.5 -36.5h1q-43 -7 -80.5 -10t-71.5 -3q-155 0 -228.5 72t-73.5 225q0 24 1.5 51.5t5.5 56.5q9 68 22 155 t28.5 178.5t33.5 180.5t37 162t39 123t40 62q20 5 34 5q44 0 68.5 -30t24.5 -74q0 -29 -10 -56q-11 -32 -24.5 -84t-27 -115.5t-27 -133t-25 -136t-20.5 -126.5t-14 -103v2q-4 -18 -5.5 -37t-1.5 -37q0 -34 8 -63.5t26.5 -51t49 -33.5t75.5 -12q21 0 44.5 2.5t49.5 8.5 q73 16 128.5 37t95.5 55.5t67 86.5t43 129q11 58 22.5 122t21.5 127.5t19.5 123.5t17 111t12.5 90t8 60q8 71 18 117t26.5 72t40.5 35t59 5z" />
<glyph unicode="&#xdb;" horiz-adv-x="1262" d="M882 1607q-22 20 -52.5 45.5t-59.5 48.5q-33 26 -69 54q-38 -28 -74 -54q-31 -23 -65.5 -48t-59.5 -45q-28 -22 -54 -33t-45 -11q-12 0 -19.5 4.5t-7.5 14.5q0 17 23 48q54 70 116.5 134t119.5 117q32 27 67 27q20 0 38 -7.5t32 -19.5q66 -54 118 -110.5t97 -127.5 q22 -35 22 -56q0 -12 -9 -18.5t-23 -6.5q-20 0 -46 11.5t-49 32.5zM1117 1450q29 -2 40.5 -23t11.5 -59q0 -32 -7 -75.5t-15 -97.5q-3 -20 -6.5 -40.5t-6.5 -43.5q-4 -20 -7.5 -50.5t-8.5 -65.5q-8 -53 -17.5 -119t-22 -139t-29 -151t-37.5 -154l1 1q-26 -80 -76 -137 t-112.5 -96.5t-132 -63t-133.5 -36.5h1q-43 -7 -80.5 -10t-71.5 -3q-155 0 -228.5 72t-73.5 225q0 24 1.5 51.5t5.5 56.5q9 68 22 155t28.5 178.5t33.5 180.5t37 162t39 123t40 62q20 5 34 5q44 0 68.5 -30t24.5 -74q0 -29 -10 -56q-11 -32 -24.5 -84t-27 -115.5t-27 -133 t-25 -136t-20.5 -126.5t-14 -103v2q-4 -18 -5.5 -37t-1.5 -37q0 -34 8 -63.5t26.5 -51t49 -33.5t75.5 -12q21 0 44.5 2.5t49.5 8.5q73 16 128.5 37t95.5 55.5t67 86.5t43 129q11 58 22.5 122t21.5 127.5t19.5 123.5t17 111t12.5 90t8 60q8 71 18 117t26.5 72t40.5 35t59 5z " />
<glyph unicode="&#xdc;" horiz-adv-x="1262" d="M1087 1838q10 -17 10 -45q0 -26 -8.5 -53t-22 -50.5t-30.5 -40.5t-35 -21q-38 -9 -51 -9q-12 0 -19.5 6.5t-20.5 20.5q-5 5 -9.5 10t-11.5 12q-14 14 -19 31.5t-5 37.5q0 26 7.5 53t18 49.5t22.5 37.5t21 18l-1 -1q21 6 45 2t45.5 -13t38.5 -21.5t25 -24.5v1zM627 1838 q5 -9 7 -20t2 -24q0 -26 -8.5 -53t-22 -51t-31 -41t-35.5 -21q-36 -9 -51 -9q-11 0 -18.5 6.5t-20.5 20.5l-23 22q-23 26 -23 67q0 27 7.5 54t18.5 49.5t23 38t21 18.5l-1 -1q21 6 44.5 2.5t45.5 -12.5t39.5 -22t25.5 -25v1zM1117 1450q29 -2 40.5 -23t11.5 -59 q0 -32 -7 -75.5t-15 -97.5q-3 -20 -6.5 -40.5t-6.5 -43.5q-4 -20 -7.5 -50.5t-8.5 -65.5q-8 -53 -17.5 -119t-22 -139t-29 -151t-37.5 -154l1 1q-26 -80 -76 -137t-112.5 -96.5t-132 -63t-133.5 -36.5h1q-43 -7 -80.5 -10t-71.5 -3q-155 0 -228.5 72t-73.5 225 q0 24 1.5 51.5t5.5 56.5q9 68 22 155t28.5 178.5t33.5 180.5t37 162t39 123t40 62q20 5 34 5q44 0 68.5 -30t24.5 -74q0 -29 -10 -56q-11 -32 -24.5 -84t-27 -115.5t-27 -133t-25 -136t-20.5 -126.5t-14 -103v2q-4 -18 -5.5 -37t-1.5 -37q0 -34 8 -63.5t26.5 -51t49 -33.5 t75.5 -12q21 0 44.5 2.5t49.5 8.5q73 16 128.5 37t95.5 55.5t67 86.5t43 129q11 58 22.5 122t21.5 127.5t19.5 123.5t17 111t12.5 90t8 60q8 71 18 117t26.5 72t40.5 35t59 5z" />
<glyph unicode="&#xdd;" horiz-adv-x="1157" d="M492 1718q10 28 25 61t30.5 61t30.5 48t26 23q15 4 26 4q24 0 40.5 -12.5t26 -28.5t12 -31.5t-1.5 -21.5q-8 -15 -23.5 -33.5t-36.5 -39.5t-45 -43t-49 -44q-6 -5 -12 -11t-12 -11q-11 -10 -18 -10q-12 0 -18.5 17t-6.5 38q0 18 6 33v1zM559 624q-8 -53 -13.5 -117.5 t-9 -131.5t-6 -131.5t-3.5 -117.5q-2 -48 -3 -82.5t-3 -50.5q0 -39 -7 -64t-18.5 -39.5t-27 -19.5t-33.5 -5q-16 0 -31 3q-42 10 -61 52t-21 102q1 9 1.5 27.5t2.5 46.5q2 45 5.5 108.5t9 135.5t12.5 148.5t16 146.5q-6 10 -15.5 25t-20.5 32q-13 21 -28 45.5t-30 50 t-29.5 50.5t-25.5 46q-33 71 -58 130t-44 109.5t-32 92.5t-22 80v-2q-3 22 -3 38q0 51 19.5 77.5t46.5 26.5t57 -29.5t50 -77.5l91 -267q2 -5 3 -8t4 -9v1q10 -24 25 -56.5t33 -62.5t37.5 -50.5t39.5 -20.5t37 21q25 36 56.5 84.5t66.5 105t72.5 117.5t74.5 121 q63 100 120.5 193t102.5 161l-2 -1q18 20 39 20q27 0 49 -27t22 -73q0 -23 -6 -47t-20 -50v1z" />
<glyph unicode="&#xde;" horiz-adv-x="1141" d="M855 764q5 25 5 50q0 40 -12.5 77.5t-33 65.5t-45.5 42.5t-49 10.5q-19 -4 -48 -15.5t-62.5 -31t-68.5 -47t-66 -64t-55 -82t-35 -101.5l-48 -356q74 22 152 54.5t148.5 84.5t127.5 127.5t89 183.5zM1007 697q-23 -70 -64 -142.5t-111 -141t-175 -130.5t-257 -111 q-17 -6 -41 -10t-45 -7q-7 -54 -15 -115.5t-15 -115.5q-8 -18 -16.5 -36t-16.5 -33t-16.5 -25.5t-16.5 -13.5q-16 -9 -31 -3.5t-26.5 24.5t-18.5 50t-7 72q0 17 1 35.5t4 39.5q3 28 6.5 69.5t7.5 92t8.5 106t9.5 110.5q7 93 15.5 195l17 204t18 200.5t19.5 184t20.5 154 t21.5 110.5q8 45 38 73.5t85 44.5q30 8 47 8q20 0 27.5 -11.5t7.5 -31.5q0 -9 -2 -24.5t-5.5 -33.5t-8 -37.5t-8.5 -36.5q-12 -44 -20.5 -87.5t-15 -93t-12.5 -109t-13 -136.5q44 57 85.5 91.5t81 55t76 31t69.5 18.5q37 9 69 9q61 0 107 -26t77 -70.5t46.5 -103 t15.5 -124.5q0 -42 -6 -84.5t-18 -84.5z" />
<glyph unicode="&#xdf;" horiz-adv-x="1303" d="M869 993q-21 -26 -30.5 -46.5t-9.5 -35.5q0 -20 11.5 -31t29.5 -13l181 -12q83 -7 120 -39.5t37 -85.5q0 -60 -41 -140.5t-115 -171.5q-41 -60 -85.5 -115.5t-97 -111t-113.5 -112t-134 -119.5q-46 -38 -80 -56t-54 -18q-28 0 -28 32q0 27 20.5 67t58.5 78 q57 62 124.5 146t149.5 188q20 26 42.5 55t45.5 58q32 48 50.5 82.5t18.5 58.5q0 43 -51 55q-18 3 -31 4.5t-23.5 2.5t-20 1.5t-20.5 1.5t-27 1.5t-39 2.5q-46 3 -76.5 13t-49 24t-26 31t-7.5 36q0 21 7 42.5t17 42t22 38.5t23 32q23 38 53.5 77.5t61.5 78.5 q23 26 45.5 54.5t44.5 58.5h-1q37 49 37 79q0 19 -10 31t-26 18.5t-36.5 9t-41.5 2.5q-25 0 -47.5 -1.5t-34.5 -3.5q-17 -2 -36 -3.5t-36 -3.5q-47 -5 -81.5 -33.5t-60 -72t-43.5 -97.5t-32 -110q-25 -98 -44 -203t-34 -206t-25.5 -193t-18 -165.5t-11 -122.5t-4.5 -64 q-2 -44 -12 -77.5t-25.5 -56t-34 -33.5t-36.5 -10q-40 2 -53.5 33t-13.5 92v20.5t1 21.5q-1 9 1 49t6.5 101.5t12 140.5t18.5 167t24.5 181t30.5 182.5t37.5 171t44.5 146.5q28 69 67.5 126.5t93.5 99t123.5 65t158.5 23.5q14 0 27 -0.5t27 -1.5q171 -14 260.5 -56 t89.5 -111t-81 -166z" />
<glyph unicode="&#xe0;" horiz-adv-x="1237" d="M621 1296q5 -18 5 -34q0 -21 -6 -38t-18 -17q-7 0 -18 10q-28 24 -56 49.5t-52.5 49.5t-43 45t-27.5 38h1q-4 7 0 25.5t16 35.5t32.5 27t50.5 2q12 -3 27.5 -23.5t31.5 -49t31 -61.5t26 -61v2zM1115 232q-36 -42 -68.5 -68.5t-63.5 -42t-62.5 -23.5t-65.5 -14 q-38 -4 -66.5 21t-47 66t-28 92t-9.5 99q-24 -35 -48.5 -67t-47 -59t-42.5 -47.5t-34 -30.5v1q-61 -44 -119.5 -65t-110.5 -21q-76 0 -127 45q-42 39 -62 110t-20 157q0 97 24.5 200.5t71.5 195.5q36 75 76 125t81 80t83 43t81 13q46 0 88 -15t76 -36q65 -33 96.5 -64 t31.5 -52q0 -17 -21 -26.5t-63 -9.5q-45 0 -112 16l-10 2t-13 4q-10 2 -23.5 5t-36.5 3q-20 0 -41.5 -5.5t-44 -20t-45 -40.5t-43.5 -66q-21 -41 -38 -86t-29 -90t-18.5 -88.5t-6.5 -79.5q0 -37 8.5 -65.5t26.5 -47.5q29 -16 66 -16q45 0 89.5 27t88 74.5t84.5 112.5t79 142 q16 35 42 50.5t52 15.5q17 0 32.5 -6t26 -16.5t15 -26t-0.5 -33.5l-32 -186q0 -29 1 -57.5t7.5 -51.5t20.5 -37.5t40 -14.5q23 0 61 19.5t92 64.5q29 19 60.5 32t50.5 13q14 0 22 -5t8 -16q0 -19 -18.5 -51.5t-63.5 -80.5v-1z" />
<glyph unicode="&#xe1;" horiz-adv-x="1237" d="M532 1312q10 28 25 61t31 61.5t31 49t27 23.5t24 3q24 0 40.5 -12.5t25.5 -28.5t11.5 -31.5t-0.5 -21.5h1q-8 -15 -24 -33.5t-37 -39.5t-45 -43l-48 -44q-6 -5 -12 -11l-12 -12q-13 -10 -19 -10q-11 0 -17.5 17.5t-6.5 38.5q0 19 5 34v-1zM1115 232q-36 -42 -68.5 -68.5 t-63.5 -42t-62.5 -23.5t-65.5 -14q-38 -4 -66.5 21t-47 66t-28 92t-9.5 99q-24 -35 -48.5 -67t-47 -59t-42.5 -47.5t-34 -30.5v1q-61 -44 -119.5 -65t-110.5 -21q-76 0 -127 45q-42 39 -62 110t-20 157q0 97 24.5 200.5t71.5 195.5q36 75 76 125t81 80t83 43t81 13 q46 0 88 -15t76 -36q65 -33 96.5 -64t31.5 -52q0 -17 -21 -26.5t-63 -9.5q-45 0 -112 16l-10 2t-13 4q-10 2 -23.5 5t-36.5 3q-20 0 -41.5 -5.5t-44 -20t-45 -40.5t-43.5 -66q-21 -41 -38 -86t-29 -90t-18.5 -88.5t-6.5 -79.5q0 -37 8.5 -65.5t26.5 -47.5q29 -16 66 -16 q45 0 89.5 27t88 74.5t84.5 112.5t79 142q16 35 42 50.5t52 15.5q17 0 32.5 -6t26 -16.5t15 -26t-0.5 -33.5l-32 -186q0 -29 1 -57.5t7.5 -51.5t20.5 -37.5t40 -14.5q23 0 61 19.5t92 64.5q29 19 60.5 32t50.5 13q14 0 22 -5t8 -16q0 -19 -18.5 -51.5t-63.5 -80.5v-1z" />
<glyph unicode="&#xe2;" horiz-adv-x="1237" d="M819 1256q-22 20 -52.5 45.5t-59.5 48.5q-33 26 -69 54q-38 -28 -75 -54q-32 -23 -66 -48t-59 -45q-27 -23 -53 -33.5t-46 -10.5q-11 0 -18.5 4.5t-7.5 13.5q0 19 22 49q57 73 119 137t117 116v-1q16 14 33.5 19.5t34.5 5.5q20 0 38 -7t32 -18q65 -54 117 -112t98 -128 q21 -35 21 -56q0 -12 -8.5 -18t-22.5 -6q-21 0 -46.5 11t-48.5 33zM1115 232q-36 -42 -68.5 -68.5t-63.5 -42t-62.5 -23.5t-65.5 -14q-38 -4 -66.5 21t-47 66t-28 92t-9.5 99q-24 -35 -48.5 -67t-47 -59t-42.5 -47.5t-34 -30.5v1q-61 -44 -119.5 -65t-110.5 -21 q-76 0 -127 45q-42 39 -62 110t-20 157q0 97 24.5 200.5t71.5 195.5q36 75 76 125t81 80t83 43t81 13q46 0 88 -15t76 -36q65 -33 96.5 -64t31.5 -52q0 -17 -21 -26.5t-63 -9.5q-45 0 -112 16l-10 2t-13 4q-10 2 -23.5 5t-36.5 3q-20 0 -41.5 -5.5t-44 -20t-45 -40.5 t-43.5 -66q-21 -41 -38 -86t-29 -90t-18.5 -88.5t-6.5 -79.5q0 -37 8.5 -65.5t26.5 -47.5q29 -16 66 -16q45 0 89.5 27t88 74.5t84.5 112.5t79 142q16 35 42 50.5t52 15.5q17 0 32.5 -6t26 -16.5t15 -26t-0.5 -33.5l-32 -186q0 -29 1 -57.5t7.5 -51.5t20.5 -37.5t40 -14.5 q23 0 61 19.5t92 64.5q29 19 60.5 32t50.5 13q14 0 22 -5t8 -16q0 -19 -18.5 -51.5t-63.5 -80.5v-1z" />
<glyph unicode="&#xe3;" horiz-adv-x="1237" d="M1028 1439q-57 -77 -111 -117.5t-114 -40.5q-71 0 -165 61q-18 11 -34 23t-30 23q-32 25 -61 42.5t-54 13.5q-23 -4 -40.5 -11.5t-32 -18t-27.5 -22.5t-26 -25l-18 -19q-58 -61 -90 -61q-20 0 -20 28q0 23 17 59q18 39 41 75.5t52 64.5t65.5 45.5t83.5 18.5q34 0 61 -6.5 t48.5 -17.5t40 -25.5t36.5 -29.5q19 -17 42 -35.5t56 -35.5h-1q19 -11 35.5 -15.5t31.5 -4.5q32 0 57 15t53 36q9 8 18.5 14.5t19.5 13.5q55 35 84 35q18 0 18 -14q0 -24 -36 -69zM1115 232q-36 -42 -68.5 -68.5t-63.5 -42t-62.5 -23.5t-65.5 -14q-38 -4 -66.5 21t-47 66 t-28 92t-9.5 99q-24 -35 -48.5 -67t-47 -59t-42.5 -47.5t-34 -30.5v1q-61 -44 -119.5 -65t-110.5 -21q-76 0 -127 45q-42 39 -62 110t-20 157q0 97 24.5 200.5t71.5 195.5q36 75 76 125t81 80t83 43t81 13q46 0 88 -15t76 -36q65 -33 96.5 -64t31.5 -52q0 -17 -21 -26.5 t-63 -9.5q-45 0 -112 16l-10 2t-13 4q-10 2 -23.5 5t-36.5 3q-20 0 -41.5 -5.5t-44 -20t-45 -40.5t-43.5 -66q-21 -41 -38 -86t-29 -90t-18.5 -88.5t-6.5 -79.5q0 -37 8.5 -65.5t26.5 -47.5q29 -16 66 -16q45 0 89.5 27t88 74.5t84.5 112.5t79 142q16 35 42 50.5t52 15.5 q17 0 32.5 -6t26 -16.5t15 -26t-0.5 -33.5l-32 -186q0 -29 1 -57.5t7.5 -51.5t20.5 -37.5t40 -14.5q23 0 61 19.5t92 64.5q29 19 60.5 32t50.5 13q14 0 22 -5t8 -16q0 -19 -18.5 -51.5t-63.5 -80.5v-1z" />
<glyph unicode="&#xe4;" horiz-adv-x="1237" d="M509 1462q5 -10 7 -20.5t2 -23.5q0 -25 -8 -52.5t-21.5 -51.5t-31 -40.5t-35.5 -20.5q-20 -5 -32 -7t-20 -2q-10 0 -17.5 6t-21.5 20l-21 21q-24 27 -24 70q0 26 7.5 53t18 49.5t22.5 37.5t22 18q12 3 27 3q19 0 38.5 -5.5t37 -14.5t31 -20t19.5 -22v2zM971 1460 q5 -8 7 -18.5t2 -22.5q0 -25 -8.5 -52.5t-22 -51.5t-31 -41t-35.5 -21q-20 -5 -32 -7t-20 -2q-11 0 -18.5 6.5t-21.5 20.5l-21 20q-23 26 -23 69q0 26 7.5 53t18 49.5t23 38t21.5 18.5q12 3 27 3q19 0 39.5 -5.5t37.5 -14.5t30.5 -20t19.5 -22zM1115 232 q-36 -42 -68.5 -68.5t-63.5 -42t-62.5 -23.5t-65.5 -14q-38 -4 -66.5 21t-47 66t-28 92t-9.5 99q-24 -35 -48.5 -67t-47 -59t-42.5 -47.5t-34 -30.5v1q-61 -44 -119.5 -65t-110.5 -21q-76 0 -127 45q-42 39 -62 110t-20 157q0 97 24.5 200.5t71.5 195.5q36 75 76 125t81 80 t83 43t81 13q46 0 88 -15t76 -36q65 -33 96.5 -64t31.5 -52q0 -17 -21 -26.5t-63 -9.5q-45 0 -112 16l-10 2t-13 4q-10 2 -23.5 5t-36.5 3q-20 0 -41.5 -5.5t-44 -20t-45 -40.5t-43.5 -66q-21 -41 -38 -86t-29 -90t-18.5 -88.5t-6.5 -79.5q0 -37 8.5 -65.5t26.5 -47.5 q29 -16 66 -16q45 0 89.5 27t88 74.5t84.5 112.5t79 142q16 35 42 50.5t52 15.5q17 0 32.5 -6t26 -16.5t15 -26t-0.5 -33.5l-32 -186q0 -29 1 -57.5t7.5 -51.5t20.5 -37.5t40 -14.5q23 0 61 19.5t92 64.5q29 19 60.5 32t50.5 13q14 0 22 -5t8 -16q0 -19 -18.5 -51.5 t-63.5 -80.5v-1z" />
<glyph unicode="&#xe5;" horiz-adv-x="1237" d="M636 1532q-28 -26 -54.5 -51.5t-43.5 -55.5v1q-17 -28 -17 -49q0 -26 20.5 -38.5t56.5 -7.5h-1q53 6 81.5 33t45.5 61q10 22 5 42t-18.5 35t-32 24t-33.5 9zM836 1392q-16 -30 -35 -55.5t-45 -46.5t-61 -36.5t-84 -26.5q-29 -6 -53 -6q-34 0 -63.5 10t-51.5 28t-35 43 t-13 55q0 31 19 72t63 92q-32 3 -48 13t-16 22q0 19 19 37t57 22l85 10l67 36q11 6 26 9t29 3q17 0 30 -3.5t13 -10.5q0 -2 -6 -10t-21 -25q79 -21 114 -59.5t35 -83.5q0 -48 -25 -89zM1115 232q-36 -42 -68.5 -68.5t-63.5 -42t-62.5 -23.5t-65.5 -14q-38 -4 -66.5 21 t-47 66t-28 92t-9.5 99q-24 -35 -48.5 -67t-47 -59t-42.5 -47.5t-34 -30.5v1q-61 -44 -119.5 -65t-110.5 -21q-76 0 -127 45q-42 39 -62 110t-20 157q0 97 24.5 200.5t71.5 195.5q36 75 76 125t81 80t83 43t81 13q46 0 88 -15t76 -36q65 -33 96.5 -64t31.5 -52 q0 -17 -21 -26.5t-63 -9.5q-45 0 -112 16l-10 2t-13 4q-10 2 -23.5 5t-36.5 3q-20 0 -41.5 -5.5t-44 -20t-45 -40.5t-43.5 -66q-21 -41 -38 -86t-29 -90t-18.5 -88.5t-6.5 -79.5q0 -37 8.5 -65.5t26.5 -47.5q29 -16 66 -16q45 0 89.5 27t88 74.5t84.5 112.5t79 142 q16 35 42 50.5t52 15.5q17 0 32.5 -6t26 -16.5t15 -26t-0.5 -33.5l-32 -186q0 -29 1 -57.5t7.5 -51.5t20.5 -37.5t40 -14.5q23 0 61 19.5t92 64.5q29 19 60.5 32t50.5 13q14 0 22 -5t8 -16q0 -19 -18.5 -51.5t-63.5 -80.5v-1z" />
<glyph unicode="&#xe6;" horiz-adv-x="1507" d="M1264 848q-14 21 -38 31t-53 10q-27 0 -57 -7.5t-59 -22t-55.5 -35t-47.5 -46.5q-18 -25 -32 -47t-26 -46.5t-22.5 -55.5t-21.5 -74q81 -6 156.5 16.5t140.5 57.5q25 15 49 32.5t43 37.5t30 42.5t11 47.5q0 29 -18 59zM288 276q33 -18 67 -18q36 0 74 21t76.5 58.5 t75.5 89.5t72 114q-26 17 -53.5 33.5t-56.5 29.5t-58.5 21t-57.5 8q-45 0 -87 -24t-75 -84q-38 -75 -38 -130q0 -45 18.5 -75t42.5 -44zM1365 973q39 -37 57 -77.5t18 -83.5q0 -37 -14 -76t-39 -76.5t-59.5 -72.5t-74.5 -65q-36 -23 -79 -40.5t-94 -31t-110 -25.5t-127 -25 q-3 -14 -1 -40.5t8.5 -54.5t19.5 -52t33 -34v1q25 -14 51.5 -20t53.5 -6q37 0 75.5 10t73.5 25t65.5 34t52.5 37q8 8 15.5 14t15.5 13q35 33 66 56.5t55 23.5q11 0 24 -7q8 -5 8 -22t-7.5 -39t-19.5 -44.5t-28 -43.5t-34 -37q-38 -35 -83 -66.5t-95.5 -55.5t-104.5 -38 t-111 -14q-84 0 -172 37q-24 12 -45.5 35t-39 53t-30.5 64.5t-21 67.5l-31.5 -36t-36.5 -40.5t-37.5 -38t-32.5 -29.5q-51 -41 -106 -61t-103 -20q-44 0 -81.5 13t-67.5 36q-51 39 -82 105t-31 150q0 89 44 194q25 58 59 97.5t72 63t79 33.5t81 10q43 0 86 -11.5t79.5 -29 t63.5 -37.5t40 -37q4 30 6.5 56t2.5 45q0 45 -10.5 84t-33.5 68t-59 46t-87 17q-29 0 -63.5 -6.5t-75.5 -20.5q-47 -15 -85 -15q-23 0 -37.5 6t-14.5 17q0 17 25 44.5t84 65.5q47 31 100 43t107 12q53 0 106 -11q30 -7 61 -25t58 -48t47 -73t28 -101q40 40 86.5 71t95 52.5 t97 32.5t93.5 11q51 0 95 -14t76 -43z" />
<glyph unicode="&#xe7;" horiz-adv-x="947" d="M695 -155q0 -49 -20 -90t-54 -70.5t-80 -46.5t-97 -18q-8 -1 -15 -1h-14q-63 0 -105.5 15.5t-77.5 41.5q-24 17 -34.5 35.5t-10.5 35.5q0 14 5.5 26.5t15 20t21.5 9.5t24 -4l-2 2q27 -20 49 -32.5t42 -20t38 -10t38 -2.5q24 0 46.5 3.5t40.5 15t28.5 34t10.5 60.5 q0 18 -11.5 31t-28 21.5t-34.5 13t-30 4.5q-16 0 -27 -1.5t-19 -3.5l-15 -5q-6 -4 -19.5 -4.5t-26.5 4t-21.5 14t-4.5 24.5l-1 -1q8 29 16 55.5t17 54.5h-6q-29 0 -55.5 3.5t-49.5 11.5h2q-71 35 -104 108.5t-33 167.5q0 102 33 213.5t91 213.5v-1q32 52 85.5 102t115 90 t125.5 64.5t117 24.5q39 0 67.5 -16t42.5 -53v1q15 -45 22 -81t7 -64q0 -70 -37 -70q-22 0 -52.5 24t-62.5 70q-14 23 -45 23q-26 0 -62 -19t-72 -48.5t-67 -65.5t-49 -71l1 1q-18 -29 -32 -64t-24 -72.5t-15.5 -75.5t-5.5 -73q0 -60 18.5 -106t57.5 -61q10 -2 23 -3.5 t31 -1.5q48 0 111 21t127 70q16 12 31.5 24t29.5 25h-1q33 27 61.5 48t52.5 19q20 -2 28.5 -14t8.5 -30q0 -19 -7 -41t-19 -44t-27.5 -42t-33.5 -35q-49 -49 -123.5 -88.5t-156.5 -62.5l-16 -66q42 1 82 -10t71.5 -32.5t50.5 -53t19 -71.5z" />
<glyph unicode="&#xe8;" horiz-adv-x="1090" d="M688 1273q5 -17 5 -34q0 -20 -6 -36.5t-18 -16.5q-7 0 -18 10q-28 24 -56 49t-52.5 48.5t-43 44.5t-27.5 38h1q-3 7 -0.5 22.5t12 31.5t25.5 28.5t40 12.5q10 0 25 -4q11 -3 26 -23.5t31 -49t30.5 -61.5t25.5 -61v1zM793 865q-15 20 -39.5 30t-55.5 10q-27 0 -56.5 -7 t-58 -21t-55 -34.5t-46.5 -47.5q-21 -30 -36.5 -54t-27.5 -49t-20.5 -53.5t-16.5 -66.5q39 -3 78.5 1.5t77.5 15t73 25.5t67 33q23 14 46.5 32.5t42 39.5t30.5 43.5t12 45.5q0 26 -15 56v1zM893 990q90 -84 90 -178q0 -67 -49 -135t-153 -132q-45 -28 -85.5 -46.5t-80.5 -31 t-82 -21t-91 -16.5q-14 -2 -32.5 -5t-34.5 -6q-6 -10 -10 -26.5t-4 -36.5q0 -16 2.5 -33.5t8 -34t14.5 -30.5t22 -22q51 -29 109 -29q64 0 133 32.5t150 78.5q15 9 27.5 18.5t24.5 17.5q33 25 67.5 45.5t64.5 16.5l-2 1q25 -9 25 -39q0 -17 -6.5 -36.5t-17 -38t-24 -35.5 t-28.5 -28q-39 -39 -94 -71.5t-119 -56t-131 -36t-130 -12.5q-43 0 -81.5 6t-70.5 20q-37 14 -63.5 43.5t-43 68t-23.5 83t-6 88.5q-16 -2 -28.5 -3.5t-20.5 -1.5q-28 0 -40.5 10t-12.5 25q0 16 9 34.5t26 37t41 35.5t53 29q13 61 34 121q18 51 46.5 109.5t70.5 107.5v-1 q36 40 81.5 71.5t94.5 53.5t99.5 33t98.5 11q51 0 95.5 -13.5t76.5 -42.5v1z" />
<glyph unicode="&#xe9;" horiz-adv-x="1090" d="M507 1319q11 28 26 61t31 61.5t31 49t26 23.5q11 4 24 4q23 0 39.5 -12.5t26 -28.5t12.5 -31.5t-1 -22.5h1q-9 -17 -26 -37t-39.5 -42t-48.5 -45.5t-52 -47.5q-3 -3 -6.5 -5.5t-6.5 -6.5v2q-10 -10 -17 -10q-11 0 -18 17.5t-7 37.5q0 19 5 34v-1zM793 865 q-15 20 -39.5 30t-55.5 10q-27 0 -56.5 -7t-58 -21t-55 -34.5t-46.5 -47.5q-21 -30 -36.5 -54t-27.5 -49t-20.5 -53.5t-16.5 -66.5q39 -3 78.5 1.5t77.5 15t73 25.5t67 33q23 14 46.5 32.5t42 39.5t30.5 43.5t12 45.5q0 26 -15 56v1zM893 990q90 -84 90 -178q0 -67 -49 -135 t-153 -132q-45 -28 -85.5 -46.5t-80.5 -31t-82 -21t-91 -16.5q-14 -2 -32.5 -5t-34.5 -6q-6 -10 -10 -26.5t-4 -36.5q0 -16 2.5 -33.5t8 -34t14.5 -30.5t22 -22q51 -29 109 -29q64 0 133 32.5t150 78.5q15 9 27.5 18.5t24.5 17.5q33 25 67.5 45.5t64.5 16.5l-2 1 q25 -9 25 -39q0 -17 -6.5 -36.5t-17 -38t-24 -35.5t-28.5 -28q-39 -39 -94 -71.5t-119 -56t-131 -36t-130 -12.5q-43 0 -81.5 6t-70.5 20q-37 14 -63.5 43.5t-43 68t-23.5 83t-6 88.5q-16 -2 -28.5 -3.5t-20.5 -1.5q-28 0 -40.5 10t-12.5 25q0 16 9 34.5t26 37t41 35.5 t53 29q13 61 34 121q18 51 46.5 109.5t70.5 107.5v-1q36 40 81.5 71.5t94.5 53.5t99.5 33t98.5 11q51 0 95.5 -13.5t76.5 -42.5v1z" />
<glyph unicode="&#xea;" horiz-adv-x="1090" d="M793 865q-15 20 -39.5 30t-55.5 10q-27 0 -56.5 -7t-58 -21t-55 -34.5t-46.5 -47.5q-21 -30 -36.5 -54t-27.5 -49t-20.5 -53.5t-16.5 -66.5q39 -3 78.5 1.5t77.5 15t73 25.5t67 33q23 14 46.5 32.5t42 39.5t30.5 43.5t12 45.5q0 26 -15 56v1zM777 1228q-22 20 -52.5 46 t-59.5 49q-33 26 -70 54q-38 -28 -74 -54q-31 -23 -65.5 -48.5t-59.5 -45.5q-26 -22 -52.5 -32t-46.5 -10q-26 0 -26 17q0 9 5 21t18 28q57 75 118 137t116 115v-1q16 14 33.5 20.5t34.5 6.5q41 0 70 -27q66 -54 118.5 -111t97.5 -128q11 -16 16 -30.5t5 -24.5 q0 -13 -9 -19.5t-23 -6.5q-20 0 -45.5 12t-48.5 32zM893 990q90 -84 90 -178q0 -67 -49 -135t-153 -132q-45 -28 -85.5 -46.5t-80.5 -31t-82 -21t-91 -16.5q-14 -2 -32.5 -5t-34.5 -6q-6 -10 -10 -26.5t-4 -36.5q0 -16 2.5 -33.5t8 -34t14.5 -30.5t22 -22q51 -29 109 -29 q64 0 133 32.5t150 78.5q15 9 27.5 18.5t24.5 17.5q33 25 67.5 45.5t64.5 16.5l-2 1q25 -9 25 -39q0 -17 -6.5 -36.5t-17 -38t-24 -35.5t-28.5 -28q-39 -39 -94 -71.5t-119 -56t-131 -36t-130 -12.5q-43 0 -81.5 6t-70.5 20q-37 14 -63.5 43.5t-43 68t-23.5 83t-6 88.5 q-16 -2 -28.5 -3.5t-20.5 -1.5q-28 0 -40.5 10t-12.5 25q0 16 9 34.5t26 37t41 35.5t53 29q13 61 34 121q18 51 46.5 109.5t70.5 107.5v-1q36 40 81.5 71.5t94.5 53.5t99.5 33t98.5 11q51 0 95.5 -13.5t76.5 -42.5v1z" />
<glyph unicode="&#xeb;" horiz-adv-x="1090" d="M451 1474q6 -9 8.5 -21t2.5 -25q0 -25 -8.5 -52t-22 -50.5t-31 -40.5t-35.5 -21q-19 -4 -31 -6t-19 -2q-11 0 -19 6t-22 20q-5 5 -10 11t-11 12q-24 25 -24 67q0 26 7.5 53.5t18.5 50t23 38t22 18.5t24 3q19 0 39.5 -6t37.5 -15t30.5 -20t19.5 -21v1zM913 1474 q5 -9 7.5 -21t2.5 -25q0 -25 -8.5 -52t-22 -50.5t-30.5 -40.5t-35 -21q-38 -8 -51 -8q-11 0 -18.5 6.5t-21.5 20.5l-22 22q-12 13 -17.5 30.5t-5.5 37.5q0 26 7.5 53t18 49.5t22.5 38t21 18.5q10 3 26 3q19 0 39 -6t37.5 -15t31 -20t19.5 -21v1zM793 865q-15 20 -39.5 30 t-55.5 10q-27 0 -56.5 -7t-58 -21t-55 -34.5t-46.5 -47.5q-21 -30 -36.5 -54t-27.5 -49t-20.5 -53.5t-16.5 -66.5q39 -3 78.5 1.5t77.5 15t73 25.5t67 33q23 14 46.5 32.5t42 39.5t30.5 43.5t12 45.5q0 26 -15 56v1zM893 990q90 -84 90 -178q0 -67 -49 -135t-153 -132 q-45 -28 -85.5 -46.5t-80.5 -31t-82 -21t-91 -16.5q-14 -2 -32.5 -5t-34.5 -6q-6 -10 -10 -26.5t-4 -36.5q0 -16 2.5 -33.5t8 -34t14.5 -30.5t22 -22q51 -29 109 -29q64 0 133 32.5t150 78.5q15 9 27.5 18.5t24.5 17.5q33 25 67.5 45.5t64.5 16.5l-2 1q25 -9 25 -39 q0 -17 -6.5 -36.5t-17 -38t-24 -35.5t-28.5 -28q-39 -39 -94 -71.5t-119 -56t-131 -36t-130 -12.5q-43 0 -81.5 6t-70.5 20q-37 14 -63.5 43.5t-43 68t-23.5 83t-6 88.5q-16 -2 -28.5 -3.5t-20.5 -1.5q-28 0 -40.5 10t-12.5 25q0 16 9 34.5t26 37t41 35.5t53 29 q13 61 34 121q18 51 46.5 109.5t70.5 107.5v-1q36 40 81.5 71.5t94.5 53.5t99.5 33t98.5 11q51 0 95.5 -13.5t76.5 -42.5v1z" />
<glyph unicode="&#xec;" horiz-adv-x="659" d="M419 1418q9 -29 17 -62t8 -62q0 -17 -4 -28t-15 -14q-11 -4 -29.5 7t-40 31.5t-44.5 46.5t-43.5 52t-37 49.5t-23.5 38.5v-1q-4 9 -0.5 30t14.5 42t30 37.5t47 16.5q10 0 28 -5l-1 1q12 -4 24 -19.5t23.5 -39.5t23 -55t23.5 -66zM447 837q-11 -29 -22.5 -74t-22.5 -99.5 t-21 -114t-18 -118t-13.5 -112t-7.5 -94.5q-5 -48 -14.5 -87t-22 -67t-27 -43t-28.5 -15q-32 0 -56 53t-21 157q2 17 4 43.5t4 56.5q4 46 9 101t10.5 112.5t11.5 115t12 108t12.5 91.5t13.5 65q14 61 28.5 93t29.5 45.5t29.5 13.5t28.5 -2h-1q4 -1 7 -1t7 -1l-2 1 q12 -5 29 -13.5t33 -23t27 -36t11 -51.5q0 -20 -6.5 -46t-23.5 -57v-1z" />
<glyph unicode="&#xed;" horiz-adv-x="659" d="M292 1418q11 35 22.5 66t23 55t23.5 39.5t25 19.5l-1 -1q18 5 28 5q28 0 47 -16.5t29.5 -37.5t14 -42t-0.5 -30v1q-8 -15 -23.5 -38.5t-36 -49.5t-43.5 -52t-44.5 -46.5t-40 -31.5t-29.5 -7q-11 3 -15.5 15t-4.5 29q0 28 8.5 61t17.5 61zM447 837q-11 -29 -22.5 -74 t-22.5 -99.5t-21 -114t-18 -118t-13.5 -112t-7.5 -94.5q-5 -48 -14.5 -87t-22.5 -67t-27.5 -43t-28.5 -15q-31 0 -55 53t-21 157q2 17 4 43.5t4 56.5q4 46 8.5 101t10 112.5t11.5 115t12.5 108t13 91.5t12.5 65q14 61 29 93t30 45.5t29 13.5t28 -2h-1q5 -1 8 -1t7 -1l-2 1 q12 -5 28.5 -13.5t32.5 -23t27 -36t11 -51.5q0 -20 -6.5 -46t-22.5 -57v-1z" />
<glyph unicode="&#xee;" horiz-adv-x="695" d="M544 1284q-22 20 -52.5 46t-59.5 49q-33 26 -70 54q-38 -28 -74 -54q-31 -23 -65 -48.5t-59 -45.5q-27 -22 -53 -32t-46 -10q-12 0 -19.5 4.5t-7.5 12.5q0 20 22 49q54 70 116.5 134t119.5 117q16 14 33 20.5t34 6.5q41 0 71 -27q66 -53 117.5 -110t96.5 -129 q11 -17 16.5 -31.5t5.5 -23.5q0 -12 -9 -18.5t-23 -6.5q-20 0 -45.5 11.5t-48.5 31.5zM447 837q-11 -29 -22.5 -74t-22.5 -99.5t-21 -114t-18 -118t-13.5 -112t-7.5 -94.5q-5 -48 -14.5 -87t-22.5 -67t-27.5 -43t-28.5 -15q-32 0 -55.5 53.5t-20.5 157.5v-1q2 17 4 43.5 t4 56.5q4 46 8.5 101t10 112.5t11.5 115t12.5 108t13 91.5t12.5 65q14 61 29 93t30 45.5t29 13.5t28 -2h-1q4 -1 7 -1t7 -1l-2 1q12 -5 29 -13.5t33 -23t27 -36t11 -51.5q0 -20 -6.5 -46t-22.5 -57v-1z" />
<glyph unicode="&#xef;" horiz-adv-x="834" d="M337 1476q5 -9 7 -20.5t2 -23.5q0 -25 -8.5 -52t-22 -50.5t-30.5 -41t-35 -21.5q-19 -4 -31 -6t-19 -2q-11 0 -19 5.5t-21 19.5q-5 5 -10 11t-11 12q-14 13 -19.5 31t-5.5 38q0 26 7.5 53t18 49.5t23 38t21.5 18.5l-1 -1q21 5 45 1.5t46 -12.5t39 -22t24 -25zM747 1485 q5 -9 7.5 -21t2.5 -25q0 -25 -8.5 -52.5t-22 -51t-31 -40.5t-35.5 -21q-38 -8 -51 -8q-11 0 -18.5 6t-21.5 20l-21 22q-13 13 -18 30.5t-5 37.5q0 26 7.5 53.5t18 50t22.5 38t21 18.5l-1 -1q21 6 45 2t45.5 -13t38.5 -21.5t25 -24.5v1zM520 837q-12 -29 -23.5 -74.5 t-22.5 -99.5t-21 -114t-18 -118t-13.5 -111.5t-7.5 -94.5q-5 -48 -14.5 -87t-22 -67t-27 -43t-29.5 -15q-16 0 -30.5 13.5t-25 40t-16.5 66t-4 91.5q2 19 4.5 44.5t4.5 57.5q4 46 8.5 101t9.5 112t11 114t12 107.5t12.5 90.5t12.5 65q15 61 29.5 93t29.5 45.5t29.5 13.5 t28.5 -2h-1q4 -1 7 -1t7 -1l-2 1q12 -5 29 -14t33 -24t27 -36.5t11 -51.5q0 -20 -6.5 -45t-21.5 -56v-1z" />
<glyph unicode="&#xf0;" horiz-adv-x="958" d="M363 589q-51 -36 -73.5 -73.5t-22.5 -75.5q0 -42 27 -81.5t73.5 -74.5t109.5 -64t134 -48q15 21 29 46.5t25 53.5t18 58t7 59q-5 49 -31.5 89.5t-64 69t-80.5 44t-80 15.5q-21 0 -39 -4.5t-32 -14.5v1zM386 952q-31 -20 -53.5 -28t-38.5 -8q-17 0 -25 9.5t-8 23.5 q0 24 18 55.5t53 60.5l189 206q-33 40 -68.5 74.5t-75.5 63.5q-34 24 -49 42.5t-15 32.5q0 17 21 25.5t54 8.5q35 0 77 -11.5t80 -35.5q23 -14 45.5 -32t46.5 -42q31 35 67 74t68 74h-1q11 11 26 17.5t30 6.5q17 0 32.5 -9.5t24.5 -28.5q3 -11 7 -23q2 -11 4.5 -23.5 t2.5 -25.5q0 -20 -6 -41t-23 -39h1l-7 -7v1q-30 -28 -61.5 -57t-57.5 -56q41 -74 69 -152t45 -156.5t24 -156t7 -150.5q0 -120 -14 -219t-33 -162q-14 -46 -35 -90t-52 -78t-72.5 -54.5t-95.5 -20.5q-32 0 -69 9q-65 12 -118.5 32t-98.5 47t-82.5 61.5t-70.5 75.5 q-38 47 -56 99t-18 106q0 42 13 83.5t38 80t60.5 72t79.5 59.5q28 13 61.5 20t65.5 7q46 0 93.5 -10.5t89.5 -29.5t76.5 -44.5t55.5 -55.5l22 9q-2 15 -4.5 35t-4.5 37v-1q-5 43 -11.5 92.5t-17.5 102.5t-29.5 110t-47.5 116q-59 -55 -114.5 -101t-113.5 -81z" />
<glyph unicode="&#xf1;" horiz-adv-x="1395" d="M1150 1371q-57 -76 -110 -116.5t-114 -40.5q-71 0 -166 60q-15 10 -30 21t-29 22q-32 24 -62 43t-56 16q-44 -8 -72 -29t-53 -47q-5 -6 -10 -11l-10 -10q-29 -32 -51.5 -45.5t-37.5 -13.5q-20 0 -20 28q0 11 4.5 26t11.5 32q19 37 42 73t52.5 64.5t66.5 46t82 18.5 q35 0 61.5 -6t48 -17t39.5 -25t36 -30q21 -17 44 -36t55 -36l-1 1q19 -12 35.5 -16.5t30.5 -4.5q32 0 57 16t53 37q8 7 18.5 14l19.5 13q27 18 49 26.5t36 8.5q18 0 18 -12q0 -24 -38 -70zM575 831q71 84 167.5 124.5t203.5 40.5q60 0 85 -50.5t25 -151.5q0 -20 -1 -43 t-3 -46l-24 -324q-1 -9 -1.5 -17.5t-0.5 -16.5q0 -45 13 -61.5t33 -16.5q12 0 25.5 7.5t26.5 19t24.5 25.5t19.5 28q14 14 25 28.5t22 28.5q23 30 42.5 49.5t45.5 11.5h-1q35 -14 35 -58q0 -23 -10.5 -51.5t-33.5 -61.5q-27 -47 -60.5 -82.5t-70 -60t-74 -37t-71.5 -12.5 q-35 0 -66.5 13t-54.5 39t-36.5 66.5t-13.5 95.5q0 13 1 26.5t3 29.5l26 273q1 9 1.5 17.5t0.5 16.5q0 66 -25.5 98.5t-67.5 32.5q-45 0 -103 -40t-118 -118q-16 -50 -29.5 -113t-27.5 -130q-8 -39 -16.5 -81t-16.5 -79q-7 -31 -18 -66t-23 -65.5t-25 -51t-25 -21.5 q-39 -5 -65.5 28.5t-26.5 106.5q0 16 1.5 35t5.5 39q9 58 23 124t27 123q7 26 12 49.5t9 43.5q11 50 20 99t9 81q0 29 -9.5 45t-30.5 16q-17 0 -45 -15q-17 -2 -30.5 -10t-32.5 -20q-14 -8 -28.5 -16t-30.5 -16q-24 -20 -45 -29.5t-36 -9.5q-26 0 -26 35q0 18 8 44t27 64 q21 19 50.5 41.5t64.5 43.5t75 37.5t82 23.5q14 3 26 5t23 2q54 0 85 -35t31 -96q0 -6 -0.5 -16.5t-1 -22.5t-2 -23.5t-2.5 -18.5z" />
<glyph unicode="&#xf2;" d="M621 1306q5 -15 5 -32q0 -22 -6.5 -40t-19.5 -18q-7 0 -18 10v-1l-11.5 11.5l-11.5 11.5q-25 22 -49 44.5t-45 43.5t-37 39.5t-24 33.5h1q-3 6 0 21.5t12 31.5t25 28.5t39 12.5q11 0 25 -3q11 -3 26.5 -23.5t31 -49t31 -61.5t26.5 -61v1zM667 890q-18 7 -34 9.5t-31 2.5 q-47 0 -86 -24t-69.5 -58.5t-52.5 -71.5t-37 -64q-13 -24 -25 -61t-21 -80t-14.5 -87t-5.5 -82q0 -42 8 -73t27 -42h-1q27 -17 53.5 -24t51.5 -7q52 0 99 26.5t86.5 65.5t70 83.5t48.5 80.5q17 36 26 81.5t9 90.5q0 37 -6 73.5t-18.5 68t-31.5 55.5t-45 37h-1zM806 1004 q28 -26 53 -58.5t43.5 -72.5t29.5 -87.5t11 -102.5q0 -63 -16.5 -135.5t-52.5 -157.5v1q-42 -86 -96.5 -148.5t-115.5 -103t-125.5 -60.5t-127.5 -20q-62 0 -118.5 18t-103.5 52q-20 15 -34 39.5t-23 56t-13 68.5t-4 77q0 48 5.5 99t14.5 99t20.5 90t24.5 73q4 8 8.5 19 t7.5 20q16 37 32 75t34.5 74.5t39.5 70t47 61.5q11 12 21 17t20 5q20 0 38 -17t30 -40q31 14 75 21t90 7q57 0 108.5 -9.5t77.5 -30.5h-1z" />
<glyph unicode="&#xf3;" d="M522 1305q10 28 25 60t31 60t31.5 49t27.5 26q29 8 49.5 -2.5t33 -28t17 -35.5t0.5 -25h1q-9 -17 -28 -38.5t-43 -45.5t-52 -49l-56 -50q-13 -10 -18 -10q-11 0 -17.5 17.5t-6.5 38.5q0 19 5 34v-1zM667 890q-18 7 -34 9.5t-31 2.5q-47 0 -86 -24t-69.5 -58.5 t-52.5 -71.5t-37 -64q-13 -24 -25 -61t-21 -80t-14.5 -87t-5.5 -82q0 -42 8 -73t27 -42h-1q27 -17 53.5 -24t51.5 -7q52 0 99 26.5t86.5 65.5t70 83.5t48.5 80.5q17 36 26 81.5t9 90.5q0 37 -6 73.5t-18.5 68t-31.5 55.5t-45 37h-1zM806 1004q28 -26 53 -58.5t43.5 -72.5 t29.5 -87.5t11 -102.5q0 -63 -16.5 -135.5t-52.5 -157.5v1q-42 -86 -96.5 -148.5t-115.5 -103t-125.5 -60.5t-127.5 -20q-62 0 -118.5 18t-103.5 52q-20 15 -34 39.5t-23 56t-13 68.5t-4 77q0 48 5.5 99t14.5 99t20.5 90t24.5 73q4 8 8.5 19t7.5 20q16 37 32 75t34.5 74.5 t39.5 70t47 61.5q11 12 21 17t20 5q20 0 38 -17t30 -40q31 14 75 21t90 7q57 0 108.5 -9.5t77.5 -30.5h-1z" />
<glyph unicode="&#xf4;" d="M761 1274q-22 20 -52.5 46.5t-59.5 49.5q-33 27 -70 54q-38 -28 -74 -54q-31 -23 -65 -49t-60 -46t-53 -31.5t-46 -11.5q-27 0 -27 19q0 18 21 48q55 71 117.5 135t119.5 117q32 27 67 27q19 0 37.5 -7.5t32.5 -19.5q67 -55 118.5 -111t96.5 -128q11 -19 16 -32.5 t5 -23.5q0 -13 -8.5 -19t-21.5 -6q-20 0 -45.5 11.5t-48.5 31.5zM667 890q-18 7 -34 9.5t-31 2.5q-47 0 -86 -24t-69.5 -58.5t-52.5 -71.5t-37 -64q-13 -24 -25 -61t-21 -80t-14.5 -87t-5.5 -82q0 -42 8 -73t27 -42h-1q27 -17 53.5 -24t51.5 -7q52 0 99 26.5t86.5 65.5 t70 83.5t48.5 80.5q17 36 26 81.5t9 90.5q0 37 -6 73.5t-18.5 68t-31.5 55.5t-45 37h-1zM806 1004q28 -26 53 -58.5t43.5 -72.5t29.5 -87.5t11 -102.5q0 -63 -16.5 -135.5t-52.5 -157.5v1q-42 -86 -96.5 -148.5t-115.5 -103t-125.5 -60.5t-127.5 -20q-62 0 -118.5 18 t-103.5 52q-20 15 -34 39.5t-23 56t-13 68.5t-4 77q0 48 5.5 99t14.5 99t20.5 90t24.5 73q4 8 8.5 19t7.5 20q16 37 32 75t34.5 74.5t39.5 70t47 61.5q11 12 21 17t20 5q20 0 38 -17t30 -40q31 14 75 21t90 7q57 0 108.5 -9.5t77.5 -30.5h-1z" />
<glyph unicode="&#xf5;" d="M948 1432q-56 -77 -109 -117.5t-115 -40.5q-36 0 -77 14.5t-89 46.5q-18 12 -32.5 22.5t-28.5 21.5q-31 24 -61 43t-55 15q-23 -4 -41 -11.5t-32.5 -18t-27.5 -23.5t-26 -27l-6 -6q-4 -3 -12 -11q-29 -31 -52 -45.5t-37 -14.5q-20 0 -20 28q0 11 4.5 26.5t12.5 32.5 q19 38 42 74t52 64t65.5 45.5t81.5 18.5q36 0 63 -6t48 -17t39 -25t36 -30h-1q19 -16 43 -35t56 -36q19 -9 35.5 -14.5t29.5 -5.5q31 0 57 15.5t52 36.5q10 8 19 14.5t20 13.5q55 34 87 34q17 0 17 -13q0 -24 -38 -69zM666 890q-17 7 -33.5 9.5t-30.5 2.5q-47 0 -86 -24 t-69.5 -58.5t-53 -71.5t-37.5 -64q-13 -24 -25 -61t-21 -80t-14.5 -87t-5.5 -82q0 -42 8 -73t28 -42h-1q27 -17 53 -24t52 -7q51 0 98 26.5t86.5 65.5t70 83.5t48.5 80.5t27 81.5t9 90.5q0 37 -6 73.5t-19 68t-32 55.5t-45 37h-1zM806 1004q28 -26 53 -58.5t43.5 -72.5 t29 -87.5t10.5 -102.5q0 -63 -16 -135.5t-52 -157.5v1q-42 -86 -96.5 -148.5t-115.5 -103t-126 -60.5t-128 -20q-61 0 -117.5 18t-104.5 52q-20 15 -34 39.5t-22.5 56t-12.5 68.5t-4 77q0 48 5.5 99t14.5 99t20.5 90t23.5 73q4 8 8.5 19t8.5 20q15 37 31.5 75t35 74.5 t39.5 70t46 61.5q21 22 42 22q20 0 38 -17t29 -40q32 14 75.5 21t89.5 7q28 0 56 -2.5t53 -7t45 -12.5t33 -18h-1z" />
<glyph unicode="&#xf6;" d="M433 1467q5 -10 7 -21t2 -23q0 -25 -8 -52.5t-21.5 -51.5t-31 -41t-35.5 -21q-20 -5 -32 -7t-20 -2q-10 0 -18 6.5t-22 21.5q-5 5 -9.5 10t-10.5 12q-14 13 -19 30.5t-5 37.5q0 26 7.5 53t18.5 49t23 37.5t22 18.5t26 3q19 0 39 -5.5t37 -14.5t30.5 -20t19.5 -21v1z M895 1467q5 -10 7 -21t2 -23q0 -25 -8.5 -52.5t-22 -51.5t-31 -41t-35.5 -21q-36 -9 -50 -9q-11 0 -19.5 7t-23.5 22l1 -1q-4 5 -9.5 10t-10.5 12q-13 13 -18 30.5t-5 37.5q0 26 7.5 53t18 49t22.5 37.5t22 18.5t26 3q19 0 39 -5.5t37.5 -14.5t31 -20t19.5 -21v1zM667 890 q-18 7 -34 9.5t-31 2.5q-47 0 -86 -24t-69.5 -58.5t-52.5 -71.5t-37 -64q-13 -24 -25 -61t-21 -80t-14.5 -87t-5.5 -82q0 -42 8 -73t27 -42h-1q27 -17 53.5 -24t51.5 -7q52 0 99 26.5t86.5 65.5t70 83.5t48.5 80.5q17 36 26 81.5t9 90.5q0 37 -6 73.5t-18.5 68t-31.5 55.5 t-45 37h-1zM806 1004q28 -26 53 -58.5t43.5 -72.5t29.5 -87.5t11 -102.5q0 -63 -16.5 -135.5t-52.5 -157.5v1q-42 -86 -96.5 -148.5t-115.5 -103t-125.5 -60.5t-127.5 -20q-62 0 -118.5 18t-103.5 52q-20 15 -34 39.5t-23 56t-13 68.5t-4 77q0 48 5.5 99t14.5 99t20.5 90 t24.5 73q4 8 8.5 19t7.5 20q16 37 32 75t34.5 74.5t39.5 70t47 61.5q11 12 21 17t20 5q20 0 38 -17t30 -40q31 14 75 21t90 7q57 0 108.5 -9.5t77.5 -30.5h-1z" />
<glyph unicode="&#xf7;" horiz-adv-x="1184" d="M698 518q15 -21 21.5 -41.5t6.5 -39.5q0 -22 -7.5 -41.5t-19.5 -36t-27.5 -29.5t-31.5 -22q-15 -8 -39 -8q-17 0 -36.5 6.5t-36.5 18.5q-21 14 -30.5 35.5t-9.5 46.5q0 28 9 58t23 56t29.5 45t29.5 26q37 -1 65 -19t54 -55zM714 1380q11 -17 14.5 -34t3.5 -34 q0 -29 -10 -57t-26 -51t-35.5 -38t-37.5 -19q-5 -1 -9 -2l-8 -2q-9 -3 -16 -4t-15.5 1.5t-20.5 9.5t-30 21q-20 14 -29 35.5t-9 44.5q0 24 7.5 49t18 47.5t22 40t20.5 25.5q10 2 18.5 2.5t17.5 0.5q42 0 77.5 -9.5t46.5 -26.5zM789 960q32 0 62.5 1t62.5 3q54 -3 91.5 -9 t60.5 -14.5t33.5 -18t10.5 -19.5q0 -13 -13 -25.5t-34 -22.5t-47.5 -17.5t-53.5 -9.5l-777 -68q-8 -1 -15.5 -1.5t-14.5 -0.5q-26 0 -43 9.5t-17 35.5q0 20 11 53v-1q7 19 15 29t19 20l4 3q6 5 12 12.5t11 14.5q84 9 153.5 14.5t128.5 8.5t108.5 3.5t93.5 0.5h73 q17 0 33 -0.5t32 -0.5z" />
<glyph unicode="&#xf8;" d="M935 1277q-1 0 -3 2l4 -2h-1zM769 656q0 38 -6 74t-19 67q-50 -91 -105.5 -193.5t-109.5 -203.5q-25 -45 -47.5 -87.5t-45.5 -84.5q51 2 97 28.5t84.5 65t68.5 82.5t48 80q17 36 26 81.5t9 90.5zM291 374q0 -36 5.5 -64.5t19.5 -42.5q36 72 76 152.5t81.5 163t83 163.5 t79.5 153q-18 3 -34 3q-47 0 -86 -24t-69.5 -58.5t-53 -71.5t-36.5 -64q-13 -24 -25 -61t-21 -80t-14.5 -87t-5.5 -82zM621 1044q46 0 88 -6q28 51 49 89t35 59q19 30 34 49t27 30t22.5 15t21.5 4q5 0 15.5 -2.5t21.5 -4.5q12 -8 19 -21t7 -33q0 -26 -13.5 -63t-43.5 -88 l1 1q-11 -13 -27 -39.5t-39 -64.5q45 -51 74 -121.5t29 -164.5q0 -63 -16 -135.5t-52 -157.5v1q-42 -86 -96.5 -148.5t-115.5 -103t-125.5 -60.5t-127.5 -20q-17 0 -32 1.5t-30 3.5q-31 -55 -54 -95t-36 -62q-34 -61 -61.5 -91t-43.5 -30q-12 0 -12 35q0 24 9.5 64.5 t27.5 91.5q6 14 21 45.5t37 76.5q-26 13 -48 30q-20 15 -34 39.5t-23 56t-13 68.5t-4 77q0 48 5.5 99t14.5 99t20.5 90t23.5 73q5 8 9.5 19t7.5 20q16 37 32 75t34.5 74.5t39.5 70t47 61.5q11 12 21 17t20 5q20 0 38 -17t30 -40q31 14 74.5 21t90.5 7z" />
<glyph unicode="&#xf9;" horiz-adv-x="1184" d="M623 1215q5 -17 5 -34q0 -20 -6 -37.5t-17 -17.5q-8 0 -19 11q-28 25 -55.5 50t-52 48.5t-43 44.5t-28.5 38h1q-3 7 -0.5 22.5t12 31.5t25.5 28.5t39 12.5q13 0 25 -3q11 -4 26.5 -24.5t31 -49t30.5 -61.5t26 -61v1zM703 372q-26 -36 -56 -66t-62 -56t-65.5 -48.5 t-65.5 -42.5q-54 -34 -100.5 -50t-84.5 -16q-87 0 -134 75.5t-47 217.5q0 49 6 103q5 45 15 98.5t22.5 107t26.5 104.5t29.5 91.5t30.5 66t28 29.5q59 -8 91 -28t32 -51q0 -27 -20 -70q-26 -54 -40 -119.5t-27 -134.5q-5 -24 -9 -46.5t-10 -46.5q-2 -22 -3.5 -43t-1.5 -42 q0 -53 16 -84.5t58 -31.5q39 0 97 32h-1q50 23 96.5 64t86.5 98.5t71 131t51 162.5q5 11 8 26t7 32q4 16 8 34.5t9 35.5t10 31.5t10 24.5v-1q11 20 27.5 30.5t34.5 14.5q58 -8 82.5 -18t24.5 -34q0 -17 -6.5 -43t-18.5 -63q-8 -35 -14.5 -63t-13.5 -56q-9 -36 -16.5 -70 t-14.5 -72.5t-11.5 -85t-7.5 -106.5q0 -14 4.5 -31t12.5 -32t20 -25.5t27 -10.5q23 0 47 25q21 20 44.5 36t46.5 27.5t44 17.5t37 6q26 0 26 -18q0 -20 -21 -56t-70 -94q-63 -73 -115.5 -102.5t-96.5 -29.5q-29 0 -54.5 11t-47.5 26q-11 12 -21 38.5t-17 59.5t-11 67t-2 61z " />
<glyph unicode="&#xfa;" horiz-adv-x="1184" d="M515 1218q11 29 26.5 62.5t31 62t30.5 48t26 22.5q13 4 26 4q23 0 39 -12.5t25 -28.5t12 -31.5t0 -21.5h1q-9 -15 -25.5 -34.5t-38 -40.5t-47 -44t-50.5 -46h1q-5 -4 -9.5 -8t-9.5 -8q-11 -10 -19 -10q-11 0 -17.5 17t-6.5 38q0 17 5 32v-1zM703 372q-26 -36 -56 -66 t-62 -56t-65.5 -48.5t-65.5 -42.5q-54 -34 -100.5 -50t-84.5 -16q-87 0 -134 75.5t-47 217.5q0 49 6 103q5 45 15 98.5t22.5 107t26.5 104.5t29.5 91.5t30.5 66t28 29.5q59 -8 91 -28t32 -51q0 -27 -20 -70q-26 -54 -40 -119.5t-27 -134.5q-5 -24 -9 -46.5t-10 -46.5 q-2 -22 -3.5 -43t-1.5 -42q0 -53 16 -84.5t58 -31.5q39 0 97 32h-1q50 23 96.5 64t86.5 98.5t71 131t51 162.5q5 11 8 26t7 32q4 16 8 34.5t9 35.5t10 31.5t10 24.5v-1q11 20 27.5 30.5t34.5 14.5q58 -8 82.5 -18t24.5 -34q0 -17 -6.5 -43t-18.5 -63q-8 -35 -14.5 -63 t-13.5 -56q-9 -36 -16.5 -70t-14.5 -72.5t-11.5 -85t-7.5 -106.5q0 -14 4.5 -31t12.5 -32t20 -25.5t27 -10.5q23 0 47 25q21 20 44.5 36t46.5 27.5t44 17.5t37 6q26 0 26 -18q0 -20 -21 -56t-70 -94q-63 -73 -115.5 -102.5t-96.5 -29.5q-29 0 -54.5 11t-47.5 26 q-11 12 -21 38.5t-17 59.5t-11 67t-2 61z" />
<glyph unicode="&#xfb;" horiz-adv-x="1184" d="M776 1187q-22 20 -53 45.5t-60 48.5q-34 26 -70 54q-38 -28 -74 -54q-31 -23 -65 -48t-59 -45q-27 -23 -53.5 -33t-46.5 -10q-25 0 -25 17q0 9 5 21.5t17 27.5q57 75 118 137t116 116v-1q17 14 34 20t34 6q20 0 38.5 -7t32.5 -19q65 -54 118 -111.5t98 -128.5 q10 -16 15 -30.5t5 -24.5q0 -13 -9 -19t-23 -6q-20 0 -45.5 11.5t-47.5 32.5zM703 372q-26 -36 -56 -66t-62 -56t-65.5 -48.5t-65.5 -42.5q-54 -34 -100.5 -50t-84.5 -16q-87 0 -134 75.5t-47 217.5q0 49 6 103q5 45 15 98.5t22.5 107t26.5 104.5t29.5 91.5t30.5 66t28 29.5 q59 -8 91 -28t32 -51q0 -27 -20 -70q-26 -54 -40 -119.5t-27 -134.5q-5 -24 -9 -46.5t-10 -46.5q-2 -22 -3.5 -43t-1.5 -42q0 -53 16 -84.5t58 -31.5q39 0 97 32h-1q50 23 96.5 64t86.5 98.5t71 131t51 162.5q5 11 8 26t7 32q4 16 8 34.5t9 35.5t10 31.5t10 24.5v-1 q11 20 27.5 30.5t34.5 14.5q58 -8 82.5 -18t24.5 -34q0 -17 -6.5 -43t-18.5 -63q-8 -35 -14.5 -63t-13.5 -56q-9 -36 -16.5 -70t-14.5 -72.5t-11.5 -85t-7.5 -106.5q0 -14 4.5 -31t12.5 -32t20 -25.5t27 -10.5q23 0 47 25q21 20 44.5 36t46.5 27.5t44 17.5t37 6q26 0 26 -18 q0 -20 -21 -56t-70 -94q-63 -73 -115.5 -102.5t-96.5 -29.5q-29 0 -54.5 11t-47.5 26q-11 12 -21 38.5t-17 59.5t-11 67t-2 61z" />
<glyph unicode="&#xfc;" horiz-adv-x="1184" d="M953 1401q10 -17 10 -44q0 -25 -8.5 -52.5t-22 -51t-31 -40.5t-35.5 -22q-18 -4 -30.5 -6.5t-20.5 -2.5q-11 0 -18 6.5t-21 20.5l-22 21q-13 14 -18 32t-5 38q0 26 7.5 53t18 49.5t22.5 37.5t21 18q5 2 11.5 3t14.5 1q19 0 39.5 -6t37.5 -15t30.5 -20t19.5 -21v1z M492 1401q10 -17 10 -45q0 -25 -8.5 -52t-22 -50.5t-31 -40.5t-35.5 -22q-18 -4 -31 -6.5t-20 -2.5q-11 0 -18.5 6.5t-21.5 20.5l-21 21q-13 14 -18 32t-5 38q0 26 7.5 53t18 49.5t22.5 37.5t21 18q5 2 11.5 3t13.5 1q19 0 39.5 -6t38 -15t31 -20t19.5 -21v1zM703 372 q-26 -36 -56 -66t-62 -56t-65.5 -48.5t-65.5 -42.5q-54 -34 -100.5 -50t-84.5 -16q-87 0 -134 75.5t-47 217.5q0 49 6 103q5 45 15 98.5t22.5 107t26.5 104.5t29.5 91.5t30.5 66t28 29.5q59 -8 91 -28t32 -51q0 -27 -20 -70q-26 -54 -40 -119.5t-27 -134.5q-5 -24 -9 -46.5 t-10 -46.5q-2 -22 -3.5 -43t-1.5 -42q0 -53 16 -84.5t58 -31.5q39 0 97 32h-1q50 23 96.5 64t86.5 98.5t71 131t51 162.5q5 11 8 26t7 32q4 16 8 34.5t9 35.5t10 31.5t10 24.5v-1q11 20 27.5 30.5t34.5 14.5q58 -8 82.5 -18t24.5 -34q0 -17 -6.5 -43t-18.5 -63 q-8 -35 -14.5 -63t-13.5 -56q-9 -36 -16.5 -70t-14.5 -72.5t-11.5 -85t-7.5 -106.5q0 -14 4.5 -31t12.5 -32t20 -25.5t27 -10.5q23 0 47 25q21 20 44.5 36t46.5 27.5t44 17.5t37 6q26 0 26 -18q0 -20 -21 -56t-70 -94q-63 -73 -115.5 -102.5t-96.5 -29.5q-29 0 -54.5 11 t-47.5 26q-11 12 -21 38.5t-17 59.5t-11 67t-2 61z" />
<glyph unicode="&#xfd;" horiz-adv-x="1107" d="M534 1231q10 28 25 61t31 62t31 49.5t27 23.5l-1 -1q30 8 51.5 -2t34 -27.5t16.5 -36t0 -26.5h1q-9 -17 -27.5 -38t-43 -44.5t-52.5 -48.5t-55 -49q-13 -10 -19 -10q-11 0 -17.5 17t-6.5 39q0 17 5 32v-1zM967 995q-8 -35 -17 -90.5t-18 -124t-18.5 -144t-18.5 -148.5 q-7 -60 -14 -119.5t-14 -113.5t-13.5 -102t-13.5 -86q-13 -88 -48.5 -164t-90.5 -132t-128 -88t-161 -32q-60 0 -119 25t-99 74q-48 65 -71 112t-23 74q0 20 12 29.5t31 9.5q35 0 76.5 -22.5t69.5 -59.5q23 -27 53.5 -51t62.5 -29q42 -8 86.5 7t84.5 55.5t71 109.5t45 170 l38 359q-13 -31 -39.5 -66.5t-59.5 -70t-69 -64.5t-67 -51q-61 -41 -111 -58.5t-92 -17.5q-52 0 -90 24.5t-62.5 64.5t-36.5 91t-12 104q0 16 1.5 33t3.5 34q7 45 18 105t24 123t28 124.5t31 110.5t32.5 80t32.5 33q69 -15 97 -33t28 -48q0 -24 -11 -57q-10 -19 -21.5 -53 t-23.5 -76t-24 -88t-22.5 -88.5t-18 -78t-11.5 -55.5v1q-4 -20 -4 -47q0 -24 5 -47.5t16.5 -41.5t29 -29.5t42.5 -11.5q26 0 62 15.5t81 52.5v-1q51 36 95 93t79.5 118t62 118.5t43.5 93.5q8 46 17.5 91.5t17.5 90.5l-1 -2q7 22 13 41t16.5 35t27.5 27.5t44 18.5q18 6 31 6 q26 0 40 -17.5t14 -51.5q0 -39 -19 -92z" />
<glyph unicode="&#xfe;" horiz-adv-x="956" d="M729 738q6 25 6 47q0 34 -13 55.5t-33 33t-44.5 13.5t-48.5 -2q-19 -4 -49 -19.5t-64.5 -41t-70.5 -60t-66.5 -76.5t-52.5 -90.5t-29 -102.5l-22 -224q72 25 145.5 62t139.5 92.5t118.5 132t81.5 179.5zM882 669q-34 -107 -99.5 -200.5t-152 -166t-190 -122.5t-212.5 -70 l-31 -276q-2 -20 -9 -42.5t-16 -41t-19 -32t-17 -15.5q-17 -10 -32 -4t-26 25.5t-18 51.5t-7 75q0 16 1.5 33.5t3.5 37.5q5 48 12.5 121t16.5 164q10 97 21 209t23 227t25 227.5t25.5 211t25 177.5t23.5 126q10 45 35 73.5t83 42.5q30 8 46 8q24 0 34.5 -12t10.5 -35 q0 -24 -8.5 -55t-24.5 -70q-14 -38 -28 -84.5t-28 -105.5t-27 -132t-23 -163q42 54 80.5 90t74.5 58.5t70 35.5t67 21q24 5 45 8t41 3q54 0 96.5 -18.5t72 -51.5t45 -79t15.5 -101q0 -35 -6 -72.5t-19 -76.5z" />
<glyph unicode="&#xff;" horiz-adv-x="1076" d="M457 1458q9 -14 9 -35q0 -22 -8 -46t-21 -45t-29.5 -36t-34.5 -18h1q-18 -3 -30.5 -5t-18.5 -2q-10 0 -17.5 5.5t-21.5 17.5v-1l-10 10l-11 11q-22 21 -22 58q0 22 7 45.5t17 43t21 32.5t20 15q20 5 43 2t44 -10.5t37.5 -19t24.5 -22.5zM902 1458q9 -14 9 -35t-8 -45 t-21.5 -45t-30 -36t-34.5 -19q-16 -3 -29 -5t-20 -2q-11 0 -18 5.5t-20 16.5l-10 10l-11 11q-22 21 -22 58q0 22 7 45.5t17 43t21 32.5t20 15q20 5 43.5 2t44.5 -10.5t37.5 -19t24.5 -22.5zM967 995q-8 -35 -17 -90.5t-18 -124t-18.5 -144t-18.5 -148.5q-7 -60 -14 -119.5 t-14 -113.5t-13.5 -102t-13.5 -86q-13 -88 -48.5 -164t-90.5 -132t-128 -88t-161 -32q-60 0 -119 25t-99 74q-48 65 -71 112t-23 74q0 20 12 29.5t31 9.5q35 0 76.5 -22.5t69.5 -59.5q23 -27 53.5 -51t62.5 -29q42 -8 86.5 7t84.5 55.5t71 109.5t45 170l38 359 q-13 -31 -39.5 -66.5t-59.5 -70t-69 -64.5t-67 -51q-61 -41 -111 -58.5t-92 -17.5q-52 0 -90 24.5t-62.5 64.5t-36.5 91t-12 104q0 16 1.5 33t3.5 34q7 45 18 105t24 123t28 124.5t31 110.5t32.5 80t32.5 33q69 -15 97 -33t28 -48q0 -24 -11 -57q-10 -19 -21.5 -53 t-23.5 -76t-24 -88t-22.5 -88.5t-18 -78t-11.5 -55.5v1q-4 -20 -4 -47q0 -24 5 -47.5t16.5 -41.5t29 -29.5t42.5 -11.5q26 0 62 15.5t81 52.5v-1q51 36 95 93t79.5 118t62 118.5t43.5 93.5q8 46 17.5 91.5t17.5 90.5l-1 -2q7 22 13 41t16.5 35t27.5 27.5t44 18.5q18 6 31 6 q26 0 40 -17.5t14 -51.5q0 -39 -19 -92z" />
<glyph unicode="&#x152;" horiz-adv-x="1680" d="M724 1203q-15 17 -39.5 27.5t-55.5 10.5q-37 0 -79.5 -15.5t-81.5 -50.5h1q-29 -25 -55.5 -73.5t-50 -111.5t-42.5 -136t-32.5 -147t-21 -144t-7.5 -126q0 -59 9 -100.5t29 -55.5q34 -24 77 -24q50 0 104.5 32t102.5 83t85.5 113.5t53.5 124.5l-1 -1q19 65 35.5 142.5 t27.5 145.5q6 40 6 79t-6 74.5t-15.5 64.5t-21 51.5t-22.5 36.5zM1460 1426q28 3 50.5 -13t22.5 -38q0 -14 -13 -27.5t-40.5 -25.5t-71.5 -21t-107 -13l-258 -10q-32 -85 -46.5 -165.5t-24.5 -156.5q-3 -25 -7.5 -57t-8.5 -56l415 34q34 3 61 3q53 0 75.5 -7.5t22.5 -19.5 q0 -10 -10.5 -22t-28.5 -24.5t-43 -25t-55 -23.5h1q-60 -20 -178.5 -37.5t-281.5 -33.5q-8 -36 -16.5 -81.5t-16 -90t-13.5 -82t-9 -56.5q-5 -28 -5 -58q0 -23 4.5 -43.5t15 -36t28 -23t43.5 -3.5q71 13 147 32.5t148 43t135 48t109 47.5q44 22 81 22q17 0 28.5 -5t11.5 -15 q0 -14 -15 -35.5t-50 -51.5q-92 -77 -184.5 -128.5t-181.5 -83t-173 -46.5t-159 -18q-33 1 -56.5 18.5t-40.5 47t-29 68.5t-22 81q-42 -39 -92 -74t-103 -62t-106 -42.5t-102 -15.5q-32 0 -61.5 6.5t-55.5 22.5t-44.5 49.5t-30.5 79.5t-18 103t-6 119q0 69 7.5 142t21 144.5 t33 138t43.5 120.5q-42 0 -42 16q0 66 35 128.5t87 115.5t111.5 92.5t108.5 59.5q29 9 62.5 15.5t59.5 6.5q54 0 99.5 -25t77.5 -78q12 21 24 42.5t26 38t30.5 27t36.5 10.5h71q35 0 77.5 -0.5t88.5 -0.5q43 0 86.5 0.5t84 1.5t75 2.5t60.5 4.5h1z" />
<glyph unicode="&#x153;" horiz-adv-x="1584" d="M1305 865q-14 20 -39 30t-54 10q-27 0 -56.5 -7t-58 -21t-55 -34.5t-46.5 -47.5t-35 -53.5t-27 -53.5t-21 -56t-18 -60q81 -6 156.5 16.5t138.5 58.5q22 14 45.5 32.5t43 39.5t31.5 43.5t12 44.5q0 27 -17 58zM622 890q-18 7 -34 9.5t-30 2.5q-48 0 -86.5 -24 t-68.5 -58.5t-52.5 -71.5t-37.5 -64q-13 -24 -25 -62t-21.5 -81.5t-15.5 -88.5t-6 -83q0 -40 9 -69.5t28 -40.5q27 -22 54 -31.5t55 -9.5q30 0 59.5 10.5t56.5 28t51.5 41.5t45.5 51q22 30 41 63t35 67t27 66.5t16 61.5q2 14 3.5 29.5t1.5 30.5q0 36 -7 70.5t-20 64 t-33 52.5t-45 36h-1zM1406 990q90 -85 90 -179q0 -67 -49 -134.5t-153 -131.5q-45 -28 -85.5 -46.5t-80.5 -31t-82 -21t-91 -16.5q-14 -2 -32.5 -5t-34.5 -6q-6 -11 -10 -26.5t-4 -35.5q0 -17 2.5 -35t8 -34.5t14.5 -30.5t21 -21q52 -29 109 -29q65 0 133.5 32.5t148.5 78.5 q25 16 53 35q18 13 35 25t34 21.5t33 14t31 2.5l-2 1q24 -8 24 -39q0 -17 -6 -36.5t-16.5 -38t-24 -35.5t-28.5 -28q-39 -39 -94.5 -71.5t-120 -55.5t-133 -35.5t-131.5 -12.5q-43 0 -82.5 6t-71.5 19q-37 14 -62 44.5t-44 75.5q-82 -77 -173.5 -114.5t-176.5 -37.5 q-60 0 -114 17t-96 52q-20 16 -33.5 42t-22 59t-12.5 71.5t-4 79.5q0 47 5 96.5t13 96t18.5 87.5t22.5 72q16 41 34.5 84.5t39.5 85t45 80t52 70.5q11 12 21.5 17t20.5 5q19 0 38 -17t30 -40q30 14 68 20t78 6q51 0 100 -9.5t77 -29.5q34 -23 62.5 -59.5t51.5 -77.5 q40 43 87.5 76.5t97.5 56.5t101.5 35t98.5 12q51 0 95 -14t76 -43v1z" />
<glyph unicode="&#x178;" horiz-adv-x="1157" d="M863 1837q9 -15 9 -37q0 -21 -7.5 -43.5t-20 -42t-28 -34t-31.5 -18.5q-33 -6 -47 -6q-11 0 -18.5 5t-20.5 17q-8 9 -20 20v-1q-21 20 -21 54q0 22 7 44.5t17 41.5t21 32.5t19 16.5l-1 -1q19 5 41.5 1.5t42.5 -11t36 -18t22 -20.5zM436 1837q5 -8 6.5 -16.5t1.5 -17.5 q0 -21 -7.5 -44.5t-20 -44t-28.5 -35t-33 -17.5h1q-18 -3 -29.5 -5t-18.5 -2q-11 0 -18.5 5.5t-20.5 18.5l-18 19q-21 23 -21 54q0 22 7 44.5t17 41.5t21.5 32t20.5 16l-1 -1q19 5 40.5 1.5t42 -11.5t36.5 -18.5t23 -20.5zM572 624q-9 -54 -14.5 -119.5t-9.5 -133t-6.5 -133 t-3.5 -118.5q-2 -46 -3 -79t-3 -48q0 -39 -6.5 -64t-18 -39.5t-27 -19.5t-33.5 -5q-15 0 -31 3q-46 9 -63.5 50.5t-18.5 103.5q1 10 2 34t3 59q2 46 5.5 108t8.5 131.5t12 141.5t16 139q-4 6 -9.5 14.5t-10.5 16.5q-14 21 -31 48.5t-34.5 57t-34 59t-28.5 53.5 q-33 71 -58.5 130t-44 109.5t-32 92.5t-23.5 80v-2q-3 22 -3 37q0 52 19.5 78.5t47.5 26.5q13 0 27.5 -8t29 -22t27 -33.5t22.5 -43.5l90 -262q2 -5 5.5 -12.5t7.5 -14.5q10 -25 25 -56.5t32.5 -60t36.5 -48t37 -19.5q11 0 19.5 5t16.5 16q25 36 58 86.5t69.5 109t75.5 121 t77 124.5q60 97 114.5 186.5t99.5 154.5l-2 -1q8 11 18.5 15.5t20.5 4.5q27 0 49.5 -27t22.5 -73q0 -23 -6.5 -47t-20.5 -50v1z" />
<glyph unicode="&#x2c6;" horiz-adv-x="965" d="M675 1502q-22 20 -52.5 46t-59.5 49q-33 26 -69 53q-37 -26 -73 -52q-31 -23 -65 -48.5t-60 -46.5q-27 -21 -54 -32.5t-46 -11.5q-12 0 -19.5 5t-7.5 14q0 17 23 48q54 70 117 134t118 117q16 14 33.5 20.5t34.5 6.5q40 0 69 -27q66 -54 118.5 -110.5t97.5 -126.5 q22 -34 22 -57q0 -13 -9 -19t-23 -6q-20 0 -46 11.5t-49 32.5z" />
<glyph unicode="&#x2dc;" horiz-adv-x="1260" d="M1032 1647q-57 -76 -110 -116.5t-114 -40.5q-36 0 -77 14.5t-89 46.5q-17 10 -33.5 22t-30.5 23q-31 23 -60.5 41t-53.5 15q-42 -9 -69.5 -29t-50.5 -44l-11 -11t-12 -11q-29 -32 -52 -46.5t-38 -14.5q-21 0 -21 27q0 23 17 58q18 39 41 75.5t52 64.5t65.5 45t83.5 18 q36 1 62.5 -5t48 -17t39.5 -25t36 -30q21 -17 43.5 -35.5t54.5 -35.5h-1q20 -12 36 -16.5t31 -4.5q32 0 57.5 16t52.5 36q9 7 18 13.5t20 13.5q56 35 84 35q18 0 18 -13q0 -11 -8.5 -28.5t-28.5 -40.5z" />
<glyph unicode="&#x2000;" horiz-adv-x="1073" />
<glyph unicode="&#x2001;" horiz-adv-x="2146" />
<glyph unicode="&#x2002;" horiz-adv-x="1073" />
<glyph unicode="&#x2003;" horiz-adv-x="2146" />
<glyph unicode="&#x2004;" horiz-adv-x="715" />
<glyph unicode="&#x2005;" horiz-adv-x="536" />
<glyph unicode="&#x2006;" horiz-adv-x="357" />
<glyph unicode="&#x2007;" horiz-adv-x="357" />
<glyph unicode="&#x2008;" horiz-adv-x="268" />
<glyph unicode="&#x2009;" horiz-adv-x="429" />
<glyph unicode="&#x200a;" horiz-adv-x="119" />
<glyph unicode="&#x2010;" horiz-adv-x="1227" d="M837 950q32 0 62.5 1t62.5 3q54 -3 91.5 -9t60.5 -14.5t33.5 -18t10.5 -19.5q0 -13 -13 -25.5t-34 -23t-47.5 -18t-53.5 -8.5l-777 -68q-8 -1 -15.5 -1.5t-14.5 -0.5q-26 0 -43 9.5t-17 35.5q0 20 11 53v-1q7 19 17 31t21 22v-1q6 5 12 12.5t11 14.5q83 9 152.5 14.5 t128 8.5t108.5 3.5t94 0.5h73q17 0 33.5 -0.5t32.5 -0.5z" />
<glyph unicode="&#x2011;" horiz-adv-x="1227" d="M837 950q32 0 62.5 1t62.5 3q54 -3 91.5 -9t60.5 -14.5t33.5 -18t10.5 -19.5q0 -13 -13 -25.5t-34 -23t-47.5 -18t-53.5 -8.5l-777 -68q-8 -1 -15.5 -1.5t-14.5 -0.5q-26 0 -43 9.5t-17 35.5q0 20 11 53v-1q7 19 17 31t21 22v-1q6 5 12 12.5t11 14.5q83 9 152.5 14.5 t128 8.5t108.5 3.5t94 0.5h73q17 0 33.5 -0.5t32.5 -0.5z" />
<glyph unicode="&#x2012;" horiz-adv-x="1227" d="M837 950q32 0 62.5 1t62.5 3q54 -3 91.5 -9t60.5 -14.5t33.5 -18t10.5 -19.5q0 -13 -13 -25.5t-34 -23t-47.5 -18t-53.5 -8.5l-777 -68q-8 -1 -15.5 -1.5t-14.5 -0.5q-26 0 -43 9.5t-17 35.5q0 20 11 53v-1q7 19 17 31t21 22v-1q6 5 12 12.5t11 14.5q83 9 152.5 14.5 t128 8.5t108.5 3.5t94 0.5h73q17 0 33.5 -0.5t32.5 -0.5z" />
<glyph unicode="&#x2013;" horiz-adv-x="1116" d="M883 784q54 -2 91.5 -7t61 -12.5t33.5 -17.5t10 -20q0 -13 -13 -26.5t-34 -25t-47.5 -19t-53.5 -9.5l-801 -70q-8 -1 -16 -1.5t-16 -0.5q-27 0 -46 10t-19 37q0 21 11 52v-1q11 29 26 46t38 33q68 8 156.5 14.5t183 10.5t186 6t165.5 2h43.5t39.5 -1h1z" />
<glyph unicode="&#x2014;" horiz-adv-x="1587" d="M1323 784q108 -3 152 -19.5t44 -37.5q0 -13 -13 -26.5t-34 -24.5t-47.5 -19t-53.5 -10l-1219 -70q-8 -1 -16 -1.5t-16 -0.5q-26 0 -45.5 10t-19.5 37q0 21 11 52v-1q11 29 26.5 46t38.5 33q98 11 207 18t220 11t219.5 5.5t204.5 1.5q113 0 201.5 -1.5t139.5 -2.5z" />
<glyph unicode="&#x2018;" horiz-adv-x="567" d="M157 1202q10 43 26.5 87t38 85t47.5 76t54 59q25 24 48 36t38 12q7 0 12 -4t5 -12q0 -13 -8.5 -32.5t-28.5 -48.5l-2 -3q-25 -37 -42 -65.5t-28.5 -52.5t-19 -46t-13.5 -45q2 -1 12 -5t17 -7q16 -7 34.5 -15.5t35 -22t27.5 -34t11 -50.5q4 -26 -2.5 -48t-19.5 -40.5 t-31 -33t-37 -24.5q-10 -6 -19.5 -8t-20.5 -2q-23 0 -49 9.5t-48 29t-36 50.5t-14 74q0 17 3.5 37.5t9.5 43.5z" />
<glyph unicode="&#x2019;" horiz-adv-x="567" d="M409 1308q-14 -42 -31 -85.5t-37.5 -84t-44.5 -75t-52 -58.5q-26 -23 -48.5 -35.5t-37.5 -12.5t-15 16q0 13 8 29t25 45l3 5q26 37 43.5 66.5t29 54.5t19 47t13.5 45q-3 2 -12 4t-12 4q-16 6 -35.5 15.5t-36.5 24t-28.5 35.5t-11.5 51q-5 26 2.5 49t21.5 42.5t33 34.5 t38 24q13 6 33 6q23 0 49 -9t48 -28.5t36.5 -50t14.5 -73.5q0 -40 -13 -80z" />
<glyph unicode="&#x201a;" horiz-adv-x="539" d="M394 71q-9 -43 -25.5 -87.5t-38.5 -85.5t-48 -76t-54 -59q-26 -24 -49 -36t-38 -12q-16 0 -16 15q0 13 8.5 33t28.5 49v-1q26 37 43.5 66t29.5 54t19.5 47t13.5 45l-10 4q-9 3 -15 7q-16 6 -35.5 14.5t-37 23t-29 35t-11.5 50.5q-4 26 3 49t21.5 42.5t33 34.5t37.5 24h-1 q13 6 35 6q23 0 49 -9t48 -28.5t36.5 -50.5t14.5 -74q0 -17 -3.5 -37t-9.5 -43z" />
<glyph unicode="&#x201c;" horiz-adv-x="890" d="M120 1192q11 43 27.5 87.5t38 85.5t47 76t53.5 58q26 24 48.5 36t39.5 12q14 0 14 -15q0 -14 -7.5 -33.5t-28.5 -47.5l-3 -4q-26 -36 -42.5 -64t-27.5 -52.5t-18 -46.5t-14 -45q6 -3 11 -5t9 -3.5t6 -2.5q16 -6 35.5 -15.5t36 -24t28 -35t11.5 -48.5q4 -26 -3 -49 t-21.5 -42t-33 -34t-37.5 -24l-4 -2q-11 -5 -30 -5q-23 0 -49 9.5t-48 29t-36 50t-14 73.5q0 34 12 81zM513 1192q10 43 26.5 87.5t38 85t47 75.5t53.5 59q56 48 89 48q15 0 15 -15q0 -14 -8 -33.5t-29 -47.5l-3 -4q-26 -37 -43 -65.5t-28 -52.5t-18 -45.5t-13 -44.5l10 -4 t9 -4t7 -3q16 -6 35.5 -15.5t36.5 -24t28.5 -35t11.5 -48.5q4 -26 -3.5 -49t-22 -42t-33 -34t-37.5 -24l-4 -2q-11 -5 -30 -5q-23 0 -49 9.5t-48 29t-36 50t-14 73.5q0 34 12 81z" />
<glyph unicode="&#x201d;" horiz-adv-x="890" d="M376 1313q-10 -43 -26.5 -87t-38.5 -85t-47.5 -76.5t-53.5 -59.5q-54 -48 -87 -48q-15 0 -15 16q0 13 5.5 30t27.5 44l4 5q25 36 42.5 65.5t29 55t19 48.5t13.5 47q-14 3 -16.5 3.5t-2.5 1.5q-17 6 -37.5 15.5t-38.5 24t-30 35.5t-12 51q-4 26 2.5 49t20 41.5t31.5 33.5 t37 24l4 2q13 6 33 6q23 0 49 -9t48 -28.5t36.5 -50.5t14.5 -74q0 -35 -12 -80zM770 1313q-10 -43 -27 -87.5t-39 -85.5t-48 -76t-54 -59q-27 -23 -48.5 -35.5t-37.5 -12.5q-15 0 -15 15q0 13 6.5 30.5t27.5 45.5l3 4q25 36 42 65.5t28.5 55t19.5 48.5t15 47q-16 3 -20 5 q-17 6 -37.5 15.5t-38.5 24t-30 35.5t-12 51q-4 26 3.5 49t21.5 42.5t33 34.5t38 24q13 6 32 6q23 0 49.5 -9.5t48.5 -29t36.5 -50.5t14.5 -74q0 -34 -12 -79z" />
<glyph unicode="&#x201e;" horiz-adv-x="877" d="M388 71q-9 -44 -26 -88.5t-38.5 -85t-47.5 -75.5t-54 -59q-26 -24 -49 -36t-38 -12t-15 15q0 13 8 33t28 49v-1q26 36 43.5 65.5t29 54t19 47t13.5 45.5q-6 3 -12.5 6t-11.5 5q-16 6 -35.5 14.5t-37 23t-29 35t-11.5 50.5q-4 26 3.5 49t21.5 42.5t33 34.5t38 24h-2 q15 6 35 6q23 0 49 -9t47.5 -28.5t36 -50t14.5 -73.5q0 -35 -12 -81zM803 71q-9 -43 -26 -87.5t-39 -85.5t-48 -76t-54 -59q-53 -48 -87 -48q-15 0 -15 15q0 13 8.5 33t28.5 49v-1q26 36 43.5 65.5t29 54.5t19 47t13.5 45q-6 3 -13 6t-12 5q-15 6 -34.5 14.5t-37 22.5 t-29 35t-11.5 51q-5 26 2.5 49t22 42.5t33.5 34.5t38 24h-1q13 6 35 6q23 0 48.5 -9t47.5 -28.5t36 -50.5t14 -74q0 -34 -12 -80z" />
<glyph unicode="&#x2022;" horiz-adv-x="556" d="M455 908q9 -20 13 -41t4 -44q0 -41 -11 -81.5t-30 -75.5t-44 -62.5t-52 -42.5l1 1q-39 -17 -75 -17q-38 0 -77 15t-83 41q-23 12 -33 37.5t-10 59.5q0 44 14.5 94.5t36.5 95t47.5 76t46.5 37.5q14 2 31 3.5t35 1.5q25 0 52.5 -4t53 -14.5t46.5 -30t34 -49.5z" />
<glyph unicode="&#x2026;" horiz-adv-x="1488" d="M370 172q-6 -31 -18 -58t-29.5 -47.5t-41.5 -32t-54 -11.5q-35 0 -58.5 14t-36 36.5t-15.5 50.5t5 55q6 21 16.5 52.5t26.5 60t38 46t51 10.5q67 -9 98 -67q30 -59 18 -109zM857 172q-6 -31 -17.5 -58t-29 -47.5t-41.5 -32t-55 -11.5q-35 0 -58 14t-36 36.5t-15.5 50.5 t5.5 55q6 21 16.5 52.5t26.5 60t38 46t51 10.5q67 -9 98 -67q29 -58 17 -109zM1342 172q-6 -31 -17.5 -58t-29 -47.5t-42 -32t-55.5 -11.5q-33 0 -56.5 14t-36 36.5t-15.5 50.5t5 55q4 21 14.5 53t26.5 60t38.5 45.5t52.5 10.5q67 -9 98 -67q29 -58 17 -109z" />
<glyph unicode="&#x202f;" horiz-adv-x="429" />
<glyph unicode="&#x2039;" horiz-adv-x="853" d="M403 620q-21 -26 -33.5 -47t-13.5 -41t11 -42t40 -50l167 -182q19 -17 30 -42.5t14 -52t-1.5 -50t-15.5 -36.5t-29.5 -12t-42.5 23l-380 356q-14 10 -20 28.5t-6.5 39t4.5 40t14 33.5q31 49 66.5 97t77 98t88.5 104t101 116q32 39 56 51.5t40 5.5t24 -29t6.5 -51.5 t-12.5 -62t-32 -59.5z" />
<glyph unicode="&#x203a;" horiz-adv-x="869" d="M266 855q-21 27 -32 59.5t-12.5 62t6.5 51.5t24 29t40 -5.5t56 -51.5q54 -62 101 -116t88.5 -104t77 -98t66.5 -97q9 -14 14 -33.5t4.5 -40t-6.5 -39t-20 -28.5l-380 -356q-24 -22 -42.5 -23t-29.5 12t-15.5 36.5t-1.5 50t14 52t30 42.5l167 182q28 28 40 50t11 42 t-13.5 41t-33.5 47z" />
<glyph unicode="&#x205f;" horiz-adv-x="536" />
<glyph unicode="&#x20ac;" horiz-adv-x="1175" d="M849 563q-85 -34 -182 -56t-206 -42q5 -87 26 -152.5t56 -94.5q23 -20 49.5 -29t55.5 -9q37 0 77.5 13t79.5 33.5t72 44.5t55 46q21 21 44 43.5t45.5 41t44 30t40.5 11.5q17 0 27 -8t10 -28q0 -16 -6.5 -38t-19 -47.5t-30.5 -54t-40 -57.5q-32 -42 -80 -80t-106 -66.5 t-121 -45.5t-123 -17q-51 0 -96.5 13.5t-83.5 43.5q-68 63 -102 162t-44 220q-29 -4 -59.5 -7.5t-61.5 -7.5q-47 0 -71 12.5t-34 56.5q-3 13 -8 27.5t-8 27.5q-5 21 5 34t27.5 19.5t38.5 8.5t39 2q42 0 72.5 3.5t59.5 6.5q4 57 11.5 112.5t18.5 110.5q-33 -4 -67 -8t-68 -4 q-35 0 -57.5 14t-36.5 31q-17 20 -26 46q-5 17 -5 28q0 15 6.5 27t17 20t23.5 12.5t26 5.5l236 11q10 29 20.5 57t23.5 54q32 67 80.5 130t106 111.5t121 78t124.5 29.5q57 0 110 -27t101 -90q36 -47 52 -84t16 -63q0 -22 -12.5 -34t-32.5 -12q-27 0 -63.5 19t-76.5 58 q-48 48 -106 48q-37 0 -74 -19.5t-72 -55t-67.5 -84.5t-59.5 -108q87 4 135.5 6.5t72.5 3.5t31 1.5t10 0.5q48 0 80.5 -16.5t32.5 -38.5q0 -16 -23.5 -33t-77.5 -31q-154 -41 -322 -63q-14 -55 -23 -113t-14 -116q159 13 312 27q12 1 22 1.5t20 0.5q52 0 85.5 -8.5 t33.5 -25.5q0 -11 -18 -30.5t-64 -37.5z" />
<glyph unicode="&#x2122;" horiz-adv-x="1896" d="M639 1296q-20 -59 -35.5 -121t-28.5 -125t-25.5 -124.5t-27.5 -119.5q-13 -52 -37.5 -77.5t-48 -24t-39.5 30t-12 84.5q1 21 5 73.5t11 119t16.5 139.5t22.5 135l-219 -13q-22 -2 -38 10t-26.5 29t-15.5 35.5t-4 30.5q2 29 25 47.5t83 21.5q25 1 69.5 1.5t98.5 1t114.5 1 t118 1.5t108 3t85.5 5q26 3 49 -5t37.5 -22.5t17.5 -33t-10.5 -35.5t-46.5 -31t-90 -19zM1243 765q-12 25 -27.5 68t-34 93.5t-41 104t-49.5 99.5q-33 -82 -56 -150t-36.5 -117.5t-18.5 -78.5t-2 -33q31 -37 35 -62t-8 -41t-34 -23.5t-44 -8.5q-7 -2 -28 0.5t-41 16t-30 43 t5 83.5q18 96 46 194.5t64 194t81 185.5t98 170q19 26 48 30t51.5 -8t32 -36t-10.5 -54q-11 -19 -18 -31t-13.5 -25.5t-15 -32.5t-23.5 -52q23 -42 41.5 -80t35 -75.5t31.5 -76.5t31 -84q20 49 45.5 102.5t53 106.5t55.5 104.5t55 96.5q9 16 26.5 33.5t37.5 24t39.5 -5.5 t31.5 -54q8 -29 18.5 -78t21 -108.5t21 -122.5t19 -119.5t14 -101.5t7.5 -66q4 -31 -3.5 -53t-22.5 -35t-33.5 -16.5t-36 3.5t-30.5 24.5t-16 47.5q-2 52 -9.5 107.5t-16 106.5t-17.5 94.5t-14 72.5q-15 -21 -38.5 -65.5t-49 -95.5t-50 -102t-40.5 -85q-15 -35 -34.5 -59.5 t-39 -31.5t-36.5 6.5t-27 55.5z" />
<glyph unicode="&#x25fc;" horiz-adv-x="1235" d="M0 1235h1235v-1235h-1235v1235z" />
<glyph unicode="&#xfb01;" horiz-adv-x="1524" d="M836 739q-65 -15 -124 -26.5t-122 -22.5q-20 -4 -44 -8.5t-44 -8.5q-17 -106 -31 -189.5t-22 -134.5q-7 -39 -11.5 -67t-7 -50t-3.5 -41.5t-1 -42.5q39 -39 56 -71t17 -56q0 -31 -27 -49t-69 -21q-9 -2 -35 -1t-53.5 18t-48.5 55.5t-21 111.5q0 11 0.5 20.5t1.5 20.5 q1 25 4 43.5t9 48.5q3 19 8.5 50.5t13 77.5t17 109t21.5 147l-172 -26q-19 -4 -32 -4q-37 0 -56 18.5t-19 45.5q0 26 17 56.5t54 59.5l-2 -2q2 1 15 1.5t36 1.5q40 2 92 4.5t100 9.5q11 82 21.5 144.5t20.5 112t20 89t20 75.5q13 58 37 100t55 69t68 39.5t75 12.5 q53 0 105 -22t94 -64h-1q30 -33 52 -62t38 -57t27.5 -58t21.5 -65q-7 -22 -17.5 -42t-23.5 -35t-27 -24t-28 -9q-11 0 -19 7q-10 8 -14.5 22.5t-8.5 31.5q-4 16 -9 35.5t-14 40.5t-22 42t-32 42q-21 18 -48.5 30t-53.5 12q-32 0 -60.5 -20t-43.5 -73q-8 -32 -14.5 -64.5 t-14 -73.5t-16.5 -94.5t-20 -126.5l330 24q48 3 68 -8t20 -28q0 -22 -29 -46.5t-74 -34.5zM1171 865q12 8 25 8.5t25 -1.5q10 -2 25.5 -9t24.5 -16q15 -13 26.5 -34t11.5 -53q0 -23 -7 -52t-23 -66q-17 -37 -26.5 -85.5t-15 -102.5t-8 -111t-4.5 -112q-2 -42 -3 -81v1 q-7 -108 -35 -159.5t-58 -51.5q-15 0 -28.5 15.5t-24 43t-17 66t-6.5 84.5q3 30 5.5 71.5t5.5 90.5q3 54 6.5 113t8 114.5t11 102.5t14.5 79q2 8 4 15t4 15q4 16 10 33.5t13.5 33t16.5 28.5t19 20zM1402 1235q29 -7 51 -16.5t22 -22.5q0 -12 -2.5 -25t-17.5 -26t-47 -25 t-90 -21q-50 -8 -79.5 -11t-54.5 -3q-31 0 -51 4q-35 7 -48 25t-13 42q0 11 1.5 23t5.5 24q7 27 36 42.5t98 15.5q92 -4 189 -26z" />
<glyph unicode="&#xfb02;" horiz-adv-x="1486" d="M1262 1267q-16 -44 -29.5 -108t-24.5 -139.5t-19.5 -159t-14.5 -166.5t-9 -161.5t-3 -144.5q0 -43 2 -79.5t5.5 -65t8.5 -47t11 -24.5q10 -8 22.5 -10t27.5 1t30.5 8.5t31.5 12.5q25 11 51.5 21t51.5 10q17 0 31.5 -5t28.5 -19q-13 -30 -34.5 -57t-48 -50.5t-56 -43.5 t-56.5 -36t-49.5 -26.5t-36.5 -15.5q-5 -2 -16 -3.5t-25 -1.5q-20 0 -44 8.5t-46.5 32.5t-39.5 67.5t-23 112.5q-3 58 -3 161q0 90 3 202.5t12 232.5q-11 -5 -21.5 -8.5t-21.5 -7.5l1 1q-72 -19 -149 -32t-154 -24q-45 -7 -93 -14.5t-89 -15.5q-17 -106 -31 -189.5 t-22 -134.5q-7 -39 -11.5 -67t-7 -50t-3.5 -41.5t-1 -42.5q40 -39 57 -71t17 -56q0 -31 -27 -49t-69 -21q-7 -1 -21 -1.5t-31.5 4t-36.5 15t-34.5 32t-25.5 55t-10 83.5v18t1 19q2 25 4.5 42.5t8.5 46.5q3 19 8.5 50t13.5 77.5t18 110.5t22 150l-147 -27q-17 -4 -34 -4 q-36 0 -55.5 18.5t-19.5 45.5q0 26 17 56.5t54 59.5l-2 -2q2 1 14 1.5t31 1.5q35 2 81.5 4.5t92.5 9.5q10 81 20.5 143t20.5 111.5t20 89.5t21 76q13 58 35.5 100t51.5 69t63 40t70 13q50 0 99 -22t91 -64h-1q30 -33 52 -61.5t38 -57t27.5 -58t21.5 -65.5q-7 -22 -17.5 -42 t-23.5 -35t-27 -24t-27 -9t-22 9q-10 7 -13.5 20.5t-8.5 32.5q-4 16 -9 35t-13.5 40t-22.5 43.5t-36 45.5q-19 16 -41 26.5t-45 10.5q-28 0 -51.5 -20.5t-37.5 -72.5q-9 -34 -16.5 -68.5t-15.5 -76t-17 -93.5t-20 -121l443 27q22 3 40 5t34 3q6 72 14 143t19 136t25 122.5 t31 103.5l-1 -1q19 33 40.5 47t42.5 14q18 0 34 -9t28.5 -25t19.5 -38t7 -47t-6 -46zM956 1128q-1 0 -1 1v2q1 1 1 2t1 3z" />
<glyph unicode="&#xfb03;" horiz-adv-x="2016" d="M1419 792q-31 -8 -53.5 -13.5t-42.5 -10t-40.5 -8t-47.5 -6.5q-38 -5 -81.5 -12t-86.5 -15q-5 -31 -10.5 -64t-9.5 -59q-17 -106 -28 -177t-17 -120t-8.5 -82.5t-2.5 -64.5q39 -39 56 -71t17 -55q0 -32 -26.5 -50t-68.5 -21q-7 -1 -21 -1.5t-32 3.5t-36.5 14.5 t-33.5 31.5t-25 54t-10 82q0 10 0.5 20t1.5 21q1 24 3 48t6.5 59t12.5 88.5t20 136.5q5 37 12 88.5t15 102.5q-27 -2 -65.5 -4t-70.5 -4q-102 -6 -186.5 -12.5t-136.5 -11.5q-11 -69 -21 -130.5t-18 -106.5q-11 -66 -18 -112t-11 -80t-6 -61t-2 -54q40 -38 57 -70t17 -56 q0 -31 -26 -49.5t-68 -20.5q-7 -1 -21.5 -1.5t-32.5 4t-37 15t-34.5 31t-25.5 54t-10 82.5q0 9 0.5 19t1.5 21q2 22 4 41t5.5 46t9 67.5t14.5 104.5l15 105t20 135l-107 -11q-10 -2 -18.5 -3t-14.5 -1q-37 0 -56 17.5t-19 45.5q0 26 17 56t55 59l-1 -1h7.5t17.5 -1 q11 0 25 -0.5t31 -0.5q20 0 44.5 1t52.5 5q17 129 38 214t39 145q5 17 10 33t9 32q13 58 35.5 100t51 69t62 40t68.5 13q48 0 96.5 -22.5t90.5 -64.5q26 -31 42 -59t26.5 -56.5t17.5 -59.5t15 -68q-7 -21 -18 -40.5t-24 -34.5t-27.5 -24.5t-27.5 -9.5q-14 0 -26 11 q-12 8 -18 48q-5 36 -14 72.5t-24 66t-36 48t-51 18.5q-26 0 -49 -20.5t-37 -74.5l1 1q-4 -13 -7.5 -26.5t-7.5 -27.5l1 1q-8 -28 -16.5 -59t-17.5 -68t-18 -82t-18 -101q94 7 159.5 11t111 6.5t75.5 4t53 1.5q15 0 25.5 0.5t19.5 1t18 1.5t21 3q8 64 17.5 115.5t19 93.5 t19 75.5t17.5 61.5q5 14 9 29t8 29q13 58 35.5 100.5t51 69.5t62 40t68.5 13q50 0 98.5 -22t90.5 -64q25 -34 41 -64t26.5 -58.5t17 -58t13.5 -63.5q-7 -21 -18 -41t-23.5 -35.5t-26.5 -24.5t-27 -9t-26 11q-6 6 -9.5 19t-8.5 31q-5 21 -13 56t-22 68t-36 57t-55 23 q-28 -1 -50 -21t-37 -74q-4 -17 -8 -32.5t-9 -32.5q-6 -23 -12.5 -48t-13.5 -57.5t-15 -74.5t-16 -99l326 13q54 2 79.5 -11t24.5 -32q-1 -17 -25.5 -35t-72.5 -28zM1671 865q12 8 25 8.5t25 -1.5q10 -2 25.5 -9t24.5 -16q15 -13 26.5 -34t11.5 -53q0 -23 -7 -52t-23 -66 q-17 -37 -26.5 -85.5t-15 -102.5t-8 -111t-4.5 -112q-2 -42 -3 -81v1q-7 -108 -35 -159.5t-58 -51.5q-15 0 -28.5 15.5t-24 43t-17 66t-6.5 84.5q3 30 5.5 71.5t5.5 90.5q3 54 6.5 113t8 114.5t11 102.5t14.5 79q2 8 4 15t4 15q4 16 10 33.5t13.5 33t16.5 28.5t19 20z M1902 1235q29 -7 51 -16.5t22 -22.5q0 -12 -2.5 -25t-17.5 -26t-47 -25t-90 -21q-50 -8 -79.5 -11t-54.5 -3q-31 0 -51 4q-35 7 -48 25t-13 42q0 11 1.5 23t5.5 24q7 27 36 42.5t98 15.5q92 -4 189 -26z" />
<glyph unicode="&#xfb04;" horiz-adv-x="2056" d="M1836 1267q-16 -44 -29.5 -108.5t-24.5 -140t-20 -159t-14.5 -166.5t-8.5 -161.5t-3 -144.5q0 -88 6 -146t19 -69q10 -9 23 -11t27.5 1t30 9t31.5 13q25 11 52.5 21t51.5 10q17 0 32 -5t29 -19q-18 -44 -57 -82.5t-82 -68.5t-82.5 -50.5t-60.5 -27.5q-5 -2 -15.5 -3.5 t-24.5 -1.5q-20 0 -44.5 8.5t-46.5 32.5t-39 67.5t-22 112.5q-2 29 -2.5 70t-0.5 92q0 96 3.5 217t13.5 249l-24 -9l1 1q-65 -18 -136.5 -26.5t-141.5 -16.5q-52 -5 -106.5 -12.5t-100.5 -15.5q-7 -44 -14.5 -87t-12.5 -78q-14 -87 -23.5 -150t-15.5 -109.5t-9 -80.5t-3 -62 q40 -40 57.5 -72t17.5 -55q0 -31 -26.5 -49.5t-68.5 -20.5q-7 -1 -21.5 -1.5t-32 3.5t-36.5 15t-34.5 32t-25.5 54.5t-10 82.5q0 9 0.5 18.5t1.5 20.5q1 19 2.5 35.5t3.5 37t6 48t9.5 69t14.5 100t21 141.5q2 18 6 45t7 47q-57 -3 -125.5 -7.5t-134.5 -9t-123 -8.5t-91 -7 q-11 -69 -21.5 -130.5t-17.5 -106.5q-11 -66 -18 -112t-11.5 -80t-6.5 -61t-2 -54q40 -38 57.5 -70t17.5 -56q0 -31 -26 -49.5t-68 -20.5q-7 -1 -21.5 -1.5t-32.5 4t-37 15t-34.5 31t-25.5 54t-10 82.5q0 9 0.5 19t1.5 21q1 22 3 41t5.5 46t9.5 67.5t15 104.5l15 105t19 135 l-106 -11q-19 -4 -33 -4q-37 0 -56 17.5t-19 45.5q0 26 17 56t55 59l-1 -1h7t17 -1q11 0 25 -0.5t31 -0.5q20 0 44.5 1t53.5 5q17 129 38 214t38 145q6 17 11 33t9 32q13 58 34 100t47 69t57 40t63 13q46 0 92 -22.5t88 -64.5h-1q30 -33 52 -61.5t38 -56.5t27.5 -58 t21.5 -67q-8 -21 -18.5 -40.5t-23.5 -35t-26.5 -24.5t-26.5 -9q-12 0 -20 7q-11 8 -15.5 21.5t-8.5 31.5q-4 16 -9 35.5t-14 40.5t-23.5 43.5t-36.5 45.5q-18 15 -36.5 27t-35.5 12q-22 0 -40 -20.5t-32 -74.5l1 1q-4 -13 -8 -26.5t-8 -27.5l1 1q-8 -28 -16 -59t-17 -68 t-18 -82t-18 -101q93 6 163 10.5t120.5 7t83.5 4t53 1.5q25 1 39.5 1t37.5 5q9 69 18.5 121.5t19.5 94t19.5 74.5t18.5 63q4 14 9 30.5t9 28.5q25 112 79 163.5t119 51.5q47 0 93 -22t88 -64h-1q30 -33 52 -62t38 -57.5t27.5 -58.5t21.5 -66q-7 -21 -18 -41t-23.5 -35.5 t-27 -24.5t-27.5 -9q-12 0 -25 11q-6 6 -9.5 19t-8.5 31q-4 16 -9 35.5t-14.5 41t-23.5 43.5t-36 45q-18 16 -36.5 27.5t-35.5 11.5q-22 0 -40 -20.5t-32 -74.5q-4 -13 -6.5 -24.5t-6.5 -24.5q-7 -26 -14.5 -53t-15.5 -61t-16.5 -78t-17.5 -102l439 12q35 5 59 6 q14 136 34 258t50 210q18 31 39.5 45.5t41.5 14.5q18 0 34.5 -9t29 -25t20 -38t7.5 -47t-6 -46zM1532 1167q-1 1 -1 2q1 1 1 2t1 3z" />
</font>
</defs>
</svg>
