<?xml version="1.0" standalone="no"?>
<!DOCTYPE svg PUBLIC "-//W3C//DTD SVG 1.1//EN" "http://www.w3.org/Graphics/SVG/1.1/DTD/svg11.dtd" >
<svg xmlns="http://www.w3.org/2000/svg" xmlns:xlink="http://www.w3.org/1999/xlink" version="1.1">
<metadata></metadata>
<defs>
<font id="thin_fomaeo" horiz-adv-x="1014" >
<font-face units-per-em="2048" ascent="1638" descent="-410" />
<missing-glyph horiz-adv-x="500" />
<glyph horiz-adv-x="0" />
<glyph horiz-adv-x="682" />
<glyph unicode="!" horiz-adv-x="343" d="M20 1343q50 79 197 36q54 -966 34 -1086l-43 -12h-31q-126 0 -157 1062zM135 123.5q13 86.5 97.5 75.5t68 -100.5t-97.5 -75.5t-68 100.5z" />
<glyph unicode="&#x22;" horiz-adv-x="374" d="M37 1352q47 106 118 11l6 -317q-46 -65 -88 -29.5t-36 335.5zM220 1354q47 108 118 11l6 -322q-46 -66 -88 -30t-36 341z" />
<glyph unicode="#" horiz-adv-x="1330" d="M58 400q-63 75 2 135l250 7l26 352l-266 8q-54 78 3 144l268 4l38 290q76 93 172 4l-34 -303l288 -1l41 328q52 63 152 -15l-31 -310l237 -14q116 -78 2 -148l-259 1l-34 -356l322 -21q64 -96 -65 -141l-286 6l-29 -308q-70 -63 -122 15l11 308l-300 4l-18 -298 q-62 -97 -139 5l23 305zM459 535l287 -6l46 360l-313 1z" />
<glyph unicode="%" horiz-adv-x="1312" d="M20 231q926 933 1165 1042q115 5 88 -88l-1158 -1041q-64 20 -95 87zM57 1068.5q51 217.5 211.5 301t307.5 -89t3.5 -365.5t-358.5 -128.5t-164 282zM183.5 1114.5q-86.5 -198.5 112 -219.5t236.5 149.5t-112 219.5t-236.5 -149.5zM588 269q-46 228 169 317.5t370.5 -82 t9 -331.5t-324.5 -146t-224 242zM730.5 198.5q106.5 -122.5 275 2.5t6.5 250t-275 -2.5t-6.5 -250z" />
<glyph unicode="&#x26;" horiz-adv-x="1231" d="M71.5 265q-50.5 219 18.5 361.5t163 193.5q-206 223 -151 405t306 182q315 -34 363 -334.5t-184 -331.5q50 -55 164 -161t227 149q157 22 156 -155q-127 -53 -155 -190l164 -190q39 -149 -100 -154q-61 119 -176 161q-172 -181 -458.5 -168t-337 232zM207.5 377 q-10.5 -198 248.5 -180.5t288.5 97t-168.5 245.5t-278 101t-90.5 -263zM256.5 1088.5q46.5 -197.5 222 -217.5t134 192.5t-222 217.5t-134 -192.5z" />
<glyph unicode="'" horiz-adv-x="211" d="M37 1352q47 106 118 11l6 -317q-46 -65 -88 -29.5t-36 335.5z" />
<glyph unicode="(" horiz-adv-x="460" d="M32 743.5q8 449.5 251 650.5q106 52 97 -49q-219 -345 -219 -582q-19 -247 198 -629q78 -141 -51 -97q-284 257 -276 706.5z" />
<glyph unicode=")" horiz-adv-x="460" d="M43 1345q-10 101 109 49q270 -201 279 -650.5t-308 -706.5q-143 -44 -56 97q241 382 220 629q0 237 -244 582z" />
<glyph unicode="*" horiz-adv-x="547" d="M51 1155q-51 32 0 67l126 -2l-79 97q-19 79 51 41l69 -105l-2 120q32 70 56 2l10 -136l85 124q90 46 52 -38l-89 -112l126 2q116 -36 20 -69l-140 3l100 -119q-3 -66 -55 -42l-93 116l3 -122q-21 -77 -60 -12l-7 130l-89 -100q-76 -37 -44 54l99 97z" />
<glyph unicode="+" horiz-adv-x="1299" d="M129 649q-208 102 33 188l387 -11l72 460q192 228 203 -17l-76 -453l438 -12q148 -106 -31 -188l-435 10l-92 -510q-118 -195 -176 48l74 463z" />
<glyph unicode="," horiz-adv-x="557" d="M65.5 114q19.5 79 91 67.5t77 -106.5t-91 -195t-28.5 126q-68 29 -48.5 108z" />
<glyph unicode="-" horiz-adv-x="852" d="M76 607q-88 62 1 110q328 1 683 1q65 -51 15 -110q-359 -29 -699 -1z" />
<glyph unicode="." horiz-adv-x="291" d="M65.5 133.5q13.5 86.5 98 75.5t67.5 -100.5t-98 -75.5t-67.5 100.5z" />
<glyph unicode="/" horiz-adv-x="578" d="M37 137q201 620 388 1193q105 129 125 -57q-160 -608 -397 -1220q-95 -55 -116 84z" />
<glyph unicode="0" d="M54 610.5q-46 563.5 218 726t525 -92.5t171 -745t-479 -471t-435 582.5zM226.5 674.5q19.5 -275.5 168 -400t324 147.5t-9.5 559t-343.5 128t-139 -434.5z" />
<glyph unicode="1" horiz-adv-x="881" d="M20 852q106 153 684 565h59q43 0 31 -44.5t-31 -1293.5q0 -59 -59 -59q-43 0 -90 89v981q-123 0 -475 -297h-60q-59 0 -59 59z" />
<glyph unicode="2" horiz-adv-x="970" d="M20 132q615 594 615 810v28q0 244 -179 278t-223.5 -24t-114.5 -58t-70 55v28q119 168 251 168q339 0 449 -215t1 -472t-294.5 -403.5t-139 -142.5t214 0.5t290 0t122.5 -80.5q0 -40 -84 -84q-484 28 -782 28z" />
<glyph unicode="3" d="M30 291q27 81 100 65q226 -141 387.5 -159t236.5 91t-6.5 241t-365.5 167v55q243 169 243 291t-90.5 184t-200.5 3q-99 -73 -115 -73h-27q-54 0 -54 71.5t51.5 115t143.5 60t241.5 -25.5t206 -203.5t-98.5 -370.5q295 -163 295 -485q-46 -236 -406 -298q-376 0 -541 271z " />
<glyph unicode="4" d="M52.5 1396q64.5 37 110.5 -31t118 -702h461q-3 198 -16 407.5t66 235.5h25q78 -26 78 -154v-52q115 -969 54 -1031t-106.5 17.5t-92.5 436.5q-345 -14 -601 -14q-26 90 -93.5 470t-3 417z" />
<glyph unicode="5" d="M20 1162q0 140 27.5 194t416.5 55.5t397 -90t-143 -103.5q-398 28 -537 28l43 -377q472 12 608 -145.5t103.5 -369t-192 -286.5t-372 -47t-324.5 222q-11 97 65.5 71.5t233.5 -90.5t264.5 -7t107.5 211.5t-153 209t-297 21.5q-248 2 -248 503z" />
<glyph unicode="6" horiz-adv-x="1122" d="M54 585q50 398 210.5 611.5t405.5 204t366 -348.5q-120 -93 -182.5 28.5t-196.5 136.5t-330 -350q428 -3 584.5 -226t11 -460t-532 -115.5t-336.5 519.5zM280.5 518.5q-22.5 -214.5 229 -279.5t262 156t-229 279.5t-262 -156z" />
<glyph unicode="7" d="M30 1247v60q0 60 479 60t479 -90q-203 -426 -359 -1227l-60 -30h-30q-60 0 -60 60v30q0 257 270 1048q-221 0 -405 15t-284 15z" />
<glyph unicode="8" d="M56.5 262q-103.5 276 263.5 495q-286 176 -262 413t369 232.5t368.5 -237t-174.5 -408.5q341 -170 356.5 -433.5t-401 -300.5t-520 239zM270.5 1023q41.5 -153 202 -127.5t164 168t-136 179t-205.5 -15t-24.5 -204.5zM275.5 310q62.5 -132 226 -126.5t209.5 101.5t-4 189 t-141 127.5t-222 -62.5t-68.5 -229z" />
<glyph unicode="9" horiz-adv-x="1008" d="M57 333q109 105 184.5 -9t210 -114.5t290.5 381.5q-425 -42 -604.5 163.5t-59.5 456.5t517 171t389.5 -481t-145 -630.5t-382 -245.5t-400.5 308zM251 1014q13 -221 257 -254t243.5 183t-257 254t-243.5 -183z" />
<glyph unicode=":" horiz-adv-x="291" d="M65.5 143.5q13.5 86.5 98 75.5t67.5 -100.5t-98 -75.5t-67.5 100.5zM65.5 783.5q13.5 86.5 98 75.5t67.5 -100.5t-98 -75.5t-67.5 100.5z" />
<glyph unicode=";" horiz-adv-x="557" d="M65.5 114q19.5 79 91 67.5t77 -106.5t-91 -195t-28.5 126q-68 29 -48.5 108zM65.5 783.5q13.5 86.5 98 75.5t67.5 -100.5t-98 -75.5t-67.5 100.5z" />
<glyph unicode="=" horiz-adv-x="869" d="M104 557q-84 62 1 110q311 1 649 1q61 -51 14 -110q-341 -29 -664 -1zM104 837q-84 62 1 110q311 1 649 1q61 -51 14 -110q-341 -29 -664 -1z" />
<glyph unicode="?" horiz-adv-x="924" d="M21 1061q98 373 482 332.5t370 -309t-207.5 -332.5t-176.5 -361q-65 -141 -189 6q32 343 214.5 450.5t140 245t-214 120t-233.5 -194.5q-126 -63 -186 43zM324 164q66 75 137.5 25.5t23.5 -123.5t-137.5 -25.5t-23.5 123.5z" />
<glyph unicode="@" horiz-adv-x="1368" d="M91.5 1123.5q120.5 261.5 421.5 280.5h47q372 -14 533 -172.5t205.5 -325.5t15 -386t-214.5 -195q-90 21 -117 94h-47q-123 -94 -258 -94h-47q-309 70 -305 446q52 305 281 305q271 0 377 -182.5t46 -310.5q0 -62 117 -117q70 113 31 353t-259 361t-399.5 99t-269 -157 t-88.5 -317t84 -348.5t225 -231t277 -64.5h47l164 23q93 -117 -140 -164q-599 24 -723 433t-3.5 670.5zM442 771q-3 -251 188 -329q219 0 281 188q48 315 -303 334q-135 -29 -166 -193z" />
<glyph unicode="A" horiz-adv-x="1042" d="M11 32q214 1381 314 1381h21q540 -940 675 -1328l-78 -33l-258 422l-445 -26l-133 -423zM270 576l355 22l-279 548z" />
<glyph unicode="B" horiz-adv-x="1046" d="M20 1385q24 0 24 24h293q341 0 395 -269q-4 -162 -176 -267l-54 -33q517 -219 517 -576q-120 -244 -390 -244q-413 0 -413 73q0 4 2 9q-198 1234 -198 1283zM178 1290q37 -330 53 -396q21 -2 41 -2q207 0 310 198q3 202 -336 202q-33 0 -68 -2zM264 727q48 -305 97 -552 l219 -33q293 0 293 244q-268 342 -569 342q-20 0 -40 -1z" />
<glyph unicode="C" horiz-adv-x="1198" d="M56 1044q93 331 351 350q16 1 31 1q290 0 426 -180q131 -173 131 -259q1 -8 -1 -15q-14 -85 -70 -85t-149 150t-300 194q-225 -44 -275 -290q-20 -97 -20 -193q0 -149 46 -299q67 -217 270 -217q27 0 57 4q328 28 564 190q55 -9 55 -58v-57q-202 -230 -592 -268 q-36 -4 -71 -4q-331 0 -433 336q-62 203 -62 394q0 157 42 306z" />
<glyph unicode="D" horiz-adv-x="1189" d="M30 1296q39 104 78 104q440 0 746 -190q289 -180 289 -604q0 -24 -1 -48q-17 -464 -800 -538h-182q-78 0 -130 1276zM186 1192q26 -391 39 -687.5t92 -342.5h18q375 0 549 206q111 132 111 269q1 81 -39 165q-106 224 -535 390l-183 26z" />
<glyph unicode="E" horiz-adv-x="1126" d="M41 1239l8 150q277 13 473 13q468 0 473 -74l-34 -106l-765 22l24 -425l380 -7l-2 -115q-187 -12 -280 -12q-89 0 -93 11q23 -508 58 -508h2l786 8l21 -47v-24q0 -81 -441 -95l-505 23q-36 75 -105 1186z" />
<glyph unicode="F" horiz-adv-x="966" d="M20 1357l56 28q507 28 641 28q222 -50 222 -111q0 -40 -83 -84h-370.5t-270.5 -56l27 -344q9 -34 108 -34q34 0 80 4q25 2 46 2q131 0 146 -83q2 -9 2 -17q0 -80 -155 -82q-170 -2 -198 -59v-83q0 -87 111 -390l-83 -56h-28q-167 0 -251 1337z" />
<glyph unicode="G" horiz-adv-x="1328" d="M34 738v11q0 355 278 523q217 131 410 131q57 0 112 -11q241 -51 316 -224q39 -88 39 -140q0 -48 -35 -64q-10 -5 -21 -5q-66 0 -163 165q-65 109 -203 109q-106 0 -256 -64q-318 -135 -318 -397q0 -22 3 -46q29 -295 249 -438q174 -114 359 -114q48 0 98 8 q237 38 237 163q0 135 -352 135q-162 27 -162 81v27q8 54 54 54h243q289 0 379 -162v-54q-25 -317 -376 -387q-90 -18 -175 -18q-245 0 -444 151q-267 202 -272 566z" />
<glyph unicode="H" horiz-adv-x="1236" d="M28 834q-7 135 -7 238q0 305 62 324h2q125 0 130 -582h80h358t312 21l-9 85q0 138 -13 294q-2 22 -2 41q0 117 70 126h2q80 0 130 -800l51 -500q-26 -61 -79 -61q-92 0 -132 662h-27q-448 -27 -661 -27h-27l-53 -26q50 -302 50 -453q1 -100 -21 -134q-18 -29 -38 -28 q-40 0 -84 113q-66 171 -94 707z" />
<glyph unicode="I" horiz-adv-x="270" d="M44 1054.5q0 345.5 75 356.5q5 1 9 1q59 0 59 -127q0 -15 -1 -31v-617q0 -85 22 -341q9 -102 9 -166q0 -94 -20 -100q-5 -1 -11 -2q-30 0 -63 44q-40 52 -59.5 344.5t-19.5 638z" />
<glyph unicode="J" horiz-adv-x="974" d="M29 347q6 80 30 80q10 0 22 -13q43 -46 265 -194q53 -36 94 -36q128 0 128 357q1 71 1 135q0 539 -90 567q-78 3 -154 3q-68 0 -133 -2q-6 -1 -12 -1q-68 0 -68 28q0 22 41 60q79 74 309 74q57 0 124 -5q334 -23 355 -153q0 -43 -95 -43q-41 0 -99 8q-60 -4 -60 -154 q0 -46 5 -106q25 -256 44 -504q3 -28 3 -54q0 -207 -139 -312q-73 -56 -157 -56q-98 0 -211 73q-203 130 -203 239v9z" />
<glyph unicode="K" horiz-adv-x="1156" d="M30 1334v23q7 47 45 47q66 0 178 -657h22q470 610 513 610h22q45 -7 45 -47v-47l-468 -633q421 -210 735 -516v-24q0 -53 -111 -70q-217 205 -647 422l-89 71l-22 -47l67 -352l-45 -24h-22q-116 0 -169.5 547.5t-53.5 696.5z" />
<glyph unicode="L" horiz-adv-x="962" d="M30 153v958q0 293 80 293l106 -80l-26 -319v-799l708 30q38 -44 38 -97q0 -6 -1 -13q-25 -78 -355 -88q-196 -6 -312 -6q-80 0 -122 2q-104 6 -116 119z" />
<glyph unicode="M" horiz-adv-x="1227" d="M20 625v363v194v170q7 48 43 48h43l492 -484h22q337 387 449 387q31 0 64 -72v-194q0 -204 65 -993l-43 -24q-130 20 -150 1041l-407 -339q-243 233 -450 412v-267q0 -65 43 -653v-25q0 -48 -43 -48h-21q-47 0 -107 484z" />
<glyph unicode="N" horiz-adv-x="1216" d="M99 1316q21 6 40 6q54 0 86 -48q43 -64 772 -993q-74 573 -74 852q0 261 65 264h4q130 -1 143 -381q13 -386 26 -715q1 -31 1 -58q0 -219 -78 -219q-16 0 -36 10q-126 62 -270 260.5t-570 739.5q78 -562 77 -813q0 -203 -50 -203h-5q-112 18 -112 174q0 12 1 24 q-57 597 -57 870q0 220 37 230z" />
<glyph unicode="O" horiz-adv-x="1354" d="M46 856q48 362 399 505q148 41 220 41q347 0 590 -427q59 -150 58 -297q0 -142 -54 -281q-111 -284 -471 -377h-99q-375 51 -533 262q-120 161 -121 411q0 78 11 163zM198 631q0 -219 173 -326q132 -82 330 -82q62 -1 130 7q287 34 310 404q2 36 2 70q1 312 -191 424 q-143 83 -280 83q-65 1 -129 -19q-196 -60 -270 -200q-75 -141 -75 -361z" />
<glyph unicode="P" horiz-adv-x="978" d="M20 1377l53 27q62 3 120 2q728 0 759 -454v-80q0 -287 -453 -320h-186q53 -229 53 -292v-187q0 -53 -53 -53h-27q-127 0 -266 1357zM238 1133q0 -401 151 -401h50q326 18 326 100v25q-1 273 -207 331q-126 35 -217 35q-59 0 -103 -14v-76z" />
<glyph unicode="Q" horiz-adv-x="1362" d="M54 940q35 309 285 414q112 47 243 47q163 0 356 -72q348 -130 382 -584q3 -43 3 -84q0 -386 -290 -538l74 -123q13 -38 13 -63q0 -41 -37 -41q-26 0 -71 21l-100 150q-77 -30 -164 -30q-122 0 -262 59q-241 102 -354 318q-86 165 -86 385q0 68 8 141zM206 692 q58 -314 237 -411q134 -72 276 -72q49 0 98 8q-104 179 -144 229v12q0 89 47 89q26 0 66 -27l150 -240q251 122 251 401q0 42 -5 87q-44 349 -362 442q-123 36 -225 36q-162 0 -270 -91q-133 -112 -133 -318q0 -67 14 -145z" />
<glyph unicode="R" horiz-adv-x="1004" d="M36 1334q38 50 100.5 53t156.5 18l140 -1q391 -72 425 -323q5 -34 6 -67q0 -206 -183 -346q225 -323 302 -534q-5 -93 -80 -93q-31 0 -73 16l-356 563l-233 -20q13 -183 13 -309q0 -273 -62 -276h-5q-86 0 -95 130q-67 811 -67 1070q0 104 11 119zM208 1252 q-13 -94 -13 -210q0 -129 16 -285l293 13q184 62 184 242q0 23 -4 48q-24 195 -380 195q-45 0 -96 -3z" />
<glyph unicode="S" horiz-adv-x="1084" d="M37 430q23 56 87 96q11 7 23 7q55 -1 123 -153q80 -179 299 -178h17q232 6 246 186q1 9 1 18q0 168 -256 276q-346 147 -346 336q-1 43 17 88q96 244 356 290q330 0 437 -361q-2 -67 -58 -67q-14 0 -31 4q-179 270 -319 270q-23 0 -44 -8q-155 -50 -187 -172 q-3 -12 -3 -24q-1 -112 275 -220q304 -120 333 -371q4 -37 4 -71q0 -194 -138 -276q-125 -74 -289 -75q-48 1 -100 7q-226 28 -447 398z" />
<glyph unicode="T" horiz-adv-x="1219" d="M20 1290q0 79 287 105q75 1 143 1q722 0 731 -106v-30q0 -63 -54 -63l-445 18q13 -274 117 -1164l-77 -31h-27q-99 0 -208 1202q-116 -9 -203 -9q-256 0 -264 77z" />
<glyph unicode="U" horiz-adv-x="1210" d="M61 1302q50 76 105 76t114 -76q-65 -359 -65 -599q1 -363 149 -451q114 -68 224 -67q132 0 258 94q145 108 144 472q0 225 -55 548q16 80 73 80q35 0 85 -30q66 -265 66 -579q0 -128 -11 -266q-38 -472 -504 -488q-22 -1 -43 -1q-427 0 -509 339q-52 217 -52 522 q0 195 21 426z" />
<glyph unicode="V" horiz-adv-x="1388" d="M38 1259q4 147 62 147q39 0 103 -67q45 -154 447 -1042q317 523 536 1054q42 27 75 27q70 0 100 -121q-74 -213 -541 -1055q-74 -177 -156 -177q-85 0 -180 189q-206 447 -446 1045z" />
<glyph unicode="W" horiz-adv-x="1636" d="M34 1294q19 107 71 107q33 0 79 -44l269 -1003l242 205l245 -262l258 1016q63 62 104 62q55 0 71 -110l-345 -1170q-34 -76 -80 -76q-40 0 -88 58l-171 256l-220 -228q-43 -35 -73 -35q-42 0 -60 68z" />
<glyph unicode="X" horiz-adv-x="1236" d="M20 1375l51 29h26q35 0 167.5 -186t320.5 -373q231 283 277 423q46 137 179 136h6l27 -59q3 -160 -364 -633l484 -579q1 -11 1 -20q0 -93 -70 -93q-65 0 -528 538q-141 -202 -200.5 -294.5t-196.5 -214.5q-37 0 -77 89q94 211 347 568q-450 490 -450 669z" />
<glyph unicode="Y" horiz-adv-x="1156" d="M58 1377q32 0 96 -54l427 -414l450 473q9 1 17 1q75 0 75 -62q0 -25 -12 -59q-279 -317 -360 -437.5t-90 -429.5l-4 -209q0 -144 -83 -166h-28q-55 0 -55 55v499q0 167 -194 332q-275 298 -275 412q0 59 36 59z" />
<glyph unicode="Z" horiz-adv-x="995" d="M30 99v53q561 773 635 1006h-26q-556 0 -556 106q-9 36 -9 62q0 52 35 70q477 -26 794 -106v-53q0 -68 -608 -1005v-27q481 -26 608 -26q36 -51 36 -88q0 -48 -62 -71h-265h-291q-291 0 -291 79z" />
<glyph unicode="\" horiz-adv-x="578" d="M41 1284q20 189 125 58q186 -583 387 -1213q-21 -141 -116 -85q-236 622 -396 1240z" />
<glyph unicode="_" horiz-adv-x="976" d="M85 37q-106 62 1 110q395 1 823 1q77 -51 18 -110q-433 -29 -842 -1z" />
<glyph unicode="a" horiz-adv-x="746" d="M11 30q151 976 222 976h15q382 -664 477 -939l-55 -23l-183 298l-314 -18l-94 -299zM194 415l251 15l-197 387z" />
<glyph unicode="b" horiz-adv-x="742" d="M20 978q17 0 17 17h205q240 0 278 -188q-3 -114 -124 -188l-38 -24q363 -153 363 -404q-84 -171 -273 -171q-290 0 -290 51q0 3 1 6q-139 867 -139 901zM131 912q26 -232 37 -279q14 -1 28 -1q146 0 219 139q2 142 -239 142q-21 0 -45 -1zM191 516q34 -214 68 -387 l154 -23q206 0 206 171q-188 240 -400 240q-14 0 -28 -1z" />
<glyph unicode="c" horiz-adv-x="860" d="M44 750q66 238 252 250h25q205 0 301 -128q94 -124 94 -185v-11q-10 -61 -50 -61t-106.5 107.5t-214.5 139.5q-163 -32 -198 -208q-14 -69 -13 -138q0 -107 32 -214q48 -156 195 -156q19 0 40 3q234 20 403 136q40 -6 40 -41v-42q-146 -164 -425 -191q-26 -3 -50 -3 q-236 0 -310 240q-44 145 -44 282q-1 113 29 220z" />
<glyph unicode="d" horiz-adv-x="856" d="M30 923q28 74 55 74q311 0 528 -134q205 -127 205 -427v-36q-12 -328 -567 -380h-129q-55 0 -92 903zM141 850q18 -277 27 -487t66 -242h14q263 0 386 145q79 94 79 191q1 58 -27 117q-74 159 -379 276l-130 18z" />
<glyph unicode="e" horiz-adv-x="814" d="M37 944q13 52 163 62q80 5 176 5q86 0 182 -4q172 -7 171 -51q-1 -10 -7 -20q-41 -62 -530 -61h-16l9 -272q38 2 70 2q186 0 186 -56q0 -62 -134 -62q-122 0 -122 -53q0 -6 2 -13q-2 -44 -2 -81q0 -204 63 -204h4l510 9l15 -33v-18q0 -58 -170 -68q-148 -9 -299 -9 q-24 1 -46 1q-174 2 -182 48t-32 436q-15 251 -16 362q0 61 5 80z" />
<glyph unicode="f" horiz-adv-x="700" d="M20 960l39 20q357 19 451 19q156 -35 156 -78q0 -28 -58 -59h-261t-190 -39l19 -242q6 -24 76 -24q24 0 56 3q17 2 32 2q93 0 103 -59q1 -6 1 -12q0 -56 -108 -58q-120 -2 -140 -41v-59q0 -61 79 -274l-59 -39h-20q-117 0 -176 940z" />
<glyph unicode="g" horiz-adv-x="953" d="M34 524v8q0 250 194 368q153 92 288 92q41 0 80 -8q169 -36 222 -157q27 -62 27 -98q0 -35 -24 -45q-7 -4 -15 -4q-46 0 -115 116q-45 76 -142 76q-75 0 -180 -44q-223 -96 -223 -280q0 -15 2 -32q20 -207 174 -308q123 -79 253 -79q34 0 69 5q166 27 166 114 q0 95 -247 95q-114 19 -114 57v19q6 38 38 38h171q202 0 266 -114v-38q-18 -222 -264 -271q-64 -13 -124 -13q-171 0 -311 105q-188 143 -191 398z" />
<glyph unicode="h" horiz-adv-x="797" d="M26 597q-5 98 -5 172q0 214 39 229h1q79 0 83 -415h51h226t197 15l-5 61q-1 99 -9 209q-1 16 -1 30q1 82 45 89h1q51 0 82 -569l32 -356q-17 -44 -49 -44q-59 0 -85 471h-16q-283 -19 -418 -19h-17l-34 -18q31 -216 31 -323q0 -71 -13 -95q-11 -20 -24 -20q-24 0 -52 80 q-42 120 -60 503z" />
<glyph unicode="i" horiz-adv-x="219" d="M44 742q0 240 52 248q3 0 7 1q41 0 41 -87q0 -11 -1 -23v-429q-1 -60 15 -238q6 -71 7 -115q-1 -67 -15 -71q-24 -6 -51.5 30.5t-41 240t-13.5 443.5z" />
<glyph unicode="j" horiz-adv-x="709" d="M28 250q5 56 21 56q7 0 15 -10q30 -31 186 -134q37 -25 65 -25q90 0 90 249q1 53 1 100q0 371 -63 391q-52 1 -102 1t-99 -1h-8q-48 0 -48 19q0 15 29 42q55 51 216 51q40 0 87 -3q233 -16 248 -107q0 -29 -67 -29q-28 0 -69 5q-43 -3 -43 -107q0 -33 5 -76 q17 -178 30 -352q2 -19 2 -37q0 -145 -97 -219q-51 -38 -110 -38q-68 0 -147 51q-142 91 -142 166v7z" />
<glyph unicode="k" horiz-adv-x="831" d="M30 947v17q5 33 31 33q48 0 126 -464h16q332 431 362 431h16q31 -5 31 -33v-33l-330 -447q298 -148 519 -365v-16q0 -38 -78 -50q-154 145 -457 298l-63 50l-16 -33l48 -249l-32 -16h-16q-82 0 -119.5 386t-37.5 491z" />
<glyph unicode="l" horiz-adv-x="696" d="M30 116v670q0 204 56 204l74 -56l-18 -223v-557l494 20q26 -31 26 -68v-8q-17 -56 -248 -62q-136 -4 -218 -4q-56 0 -86 2q-72 4 -80 82z" />
<glyph unicode="m" horiz-adv-x="898" d="M20 452v259v138v120q5 35 31 35h30l351 -345h15q241 276 321 276q22 0 46 -52v-138q0 -145 46 -708l-31 -17q-93 14 -107 742l-290 -241q-173 166 -320 293v-190q0 -46 30 -466v-17q0 -35 -30 -35h-16q-33 0 -76 346z" />
<glyph unicode="n" horiz-adv-x="848" d="M58 940q15 4 29 4q39 0 61 -34q30 -46 548 -705q-53 408 -53 606q0 184 46 186h3q92 0 101 -270q10 -274 19 -508q1 -21 1 -40q0 -157 -56 -157q-11 0 -25 7q-90 44 -192 185t-405 525q55 -399 56 -577q0 -143 -36 -144h-3q-80 13 -80 125v16q-40 423 -40 617 q0 157 26 164z" />
<glyph unicode="o" horiz-adv-x="970" d="M44 610q34 256 280 355q105 29 155 29q245 0 416 -301q41 -105 41 -209q0 -100 -38 -198q-78 -200 -332 -266h-70q-265 36 -376 185q-85 114 -85 289q1 55 9 116zM150 451q0 -154 122 -230q93 -58 233 -58q43 -1 91 5q202 24 218 285q2 26 2 50q0 220 -135 298 q-101 59 -197 59q-46 0 -91 -14q-138 -42 -190 -140q-53 -100 -53 -255z" />
<glyph unicode="p" horiz-adv-x="709" d="M20 980l38 19q43 2 83 2q516 0 538 -322v-57q0 -202 -320 -226h-132q38 -162 38 -207v-131q0 -38 -38 -38h-19q-90 0 -188 960zM174 807q0 -284 107 -284h35q231 13 231 71v18q0 194 -146 234q-89 25 -154 25q-41 0 -73 -10v-54z" />
<glyph unicode="q" horiz-adv-x="1000" d="M32 657q25 226 208 302q81 34 176 34q119 0 260 -53q254 -94 279 -425q2 -32 2 -62q0 -281 -212 -391l55 -90q9 -28 9 -45q0 -31 -27 -31q-20 0 -52 15l-73 110q-57 -23 -121 -23q-88 0 -190 44q-175 74 -257 232q-63 120 -63 281q0 49 6 102zM143 476q42 -229 173 -300 q97 -52 201 -52q35 0 71 6q-75 131 -105 167v7q0 67 34 67q19 0 48 -20l110 -175q183 89 183 292q0 31 -4 64q-32 254 -264 322q-90 26 -164 26q-118 0 -196 -66q-97 -81 -97 -232q0 -49 10 -106z" />
<glyph unicode="r" horiz-adv-x="725" d="M33 950q27 36 71 38t111 12l99 -1q278 -51 302 -229q3 -25 4 -48q0 -146 -130 -245q160 -228 214 -378q-4 -66 -56 -66q-22 0 -52 12l-253 399l-165 -14q10 -131 9 -221q1 -193 -43 -195h-4q-61 0 -67 93q-48 575 -48 759q0 74 8 84zM155 891q-10 -67 -10 -146 q0 -87 12 -188l210 6q128 32 128 158q-1 16 -3 34q-16 138 -268 138q-33 0 -69 -2z" />
<glyph unicode="s" horiz-adv-x="776" d="M27 311q15 40 61 68q8 5 17 5q39 0 87 -108q56 -126 211 -126h11q164 6 175 132v12q0 118 -181 195q-244 104 -244 238q0 29 12 61q67 172 251 205q233 0 309 -255q-2 -47 -41 -47q-10 0 -22 3q-126 190 -225 190q-16 0 -32 -5q-110 -36 -132 -122q-2 -8 -1 -16 q0 -77 194 -155q215 -86 235 -264q3 -26 2 -50q0 -137 -96 -195q-88 -52 -203 -52q-35 1 -72 5q-160 20 -316 281z" />
<glyph unicode="t" horiz-adv-x="898" d="M30 926q0 56 205 75q54 1 104 1q514 0 519 -76q11 -19 11 -34q0 -27 -36 -40l-331 15q10 -190 83 -825l-54 -22h-19q-71 0 -149 858q-84 -7 -148 -7q-179 0 -185 55z" />
<glyph unicode="u" horiz-adv-x="877" d="M56 939q36 54 75 54.5t82 -54.5q-47 -258 -47 -431q0 -258 106 -322q81 -49 162 -49q94 -1 184 67q104 78 105 339q0 161 -40 393q11 58 51 58q25 0 62 -22q48 -190 48 -415q0 -92 -8 -191q-28 -338 -362 -350q-16 -1 -31 -1q-306 -1 -365 243q-38 155 -38 374 q0 140 16 307z" />
<glyph unicode="v" horiz-adv-x="1000" d="M38 887q2 102 43 102q27 0 72 -47q32 -107 312 -727q222 365 374 736q30 19 53 19q49 0 70 -84q-51 -149 -378 -738q-52 -123 -109 -123q-59 0 -125 132q-144 312 -312 730z" />
<glyph unicode="w" horiz-adv-x="1000" d="M34 910q13 73 49 73q23 0 55 -30l186 -693l168 142l170 -181l179 702q43 43 72 43q38 0 49 -76l-239 -808q-24 -53 -55 -53q-28 0 -62 40l-118 177l-152 -157q-30 -24 -51 -24q-29 0 -42 46z" />
<glyph unicode="x" horiz-adv-x="886" d="M20 980l36 21h19q24 0 118 -132t227 -265q163 201 196 300q32 97 128 97h4l18 -42q2 -114 -257 -449l343 -410v-13q0 -67 -49 -67q-46 0 -374 381q-100 -143 -142.5 -208.5t-139.5 -151.5q-26 0 -54 62q67 150 246 403q-319 347 -319 474z" />
<glyph unicode="y" horiz-adv-x="839" d="M48 996q24 0 69 -39l307 -298l324 341h12q54 0 54 -45q0 -17 -8 -42q-201 -228 -259.5 -314.5t-64.5 -308.5l-3 -151q0 -103 -60 -119h-20q-40 0 -40 40v358q0 121 -139 239q-197 215 -197 296q0 43 25 43z" />
<glyph unicode="z" horiz-adv-x="721" d="M30 76v38q398 548 451 713h-19q-394 0 -394 75q-6 26 -6 45q0 37 24 49q338 -18 564 -75v-37q0 -49 -432 -714v-19q342 -18 432 -18q25 -36 25 -62q0 -34 -44 -51h-188h-206q-207 0 -207 56z" />
<glyph unicode="&#xad;" horiz-adv-x="852" d="M76 607q-88 62 1 110q328 1 683 1q65 -51 15 -110q-359 -29 -699 -1z" />
<glyph unicode="&#x2000;" horiz-adv-x="708" />
<glyph unicode="&#x2001;" horiz-adv-x="1417" />
<glyph unicode="&#x2002;" horiz-adv-x="708" />
<glyph unicode="&#x2003;" horiz-adv-x="1417" />
<glyph unicode="&#x2004;" horiz-adv-x="472" />
<glyph unicode="&#x2005;" horiz-adv-x="354" />
<glyph unicode="&#x2006;" horiz-adv-x="236" />
<glyph unicode="&#x2007;" horiz-adv-x="236" />
<glyph unicode="&#x2008;" horiz-adv-x="177" />
<glyph unicode="&#x2009;" horiz-adv-x="283" />
<glyph unicode="&#x200a;" horiz-adv-x="78" />
<glyph unicode="&#x2010;" horiz-adv-x="852" d="M76 607q-88 62 1 110q328 1 683 1q65 -51 15 -110q-359 -29 -699 -1z" />
<glyph unicode="&#x2011;" horiz-adv-x="852" d="M76 607q-88 62 1 110q328 1 683 1q65 -51 15 -110q-359 -29 -699 -1z" />
<glyph unicode="&#x2012;" horiz-adv-x="852" d="M76 607q-88 62 1 110q328 1 683 1q65 -51 15 -110q-359 -29 -699 -1z" />
<glyph unicode="&#x2013;" horiz-adv-x="1110" d="M91 607q-118 62 1 110q439 1 915 1q87 -51 20 -110q-481 -29 -936 -1z" />
<glyph unicode="&#x2014;" horiz-adv-x="2134" d="M149 607q-236 62 3 110q879 1 1830 1q174 -51 40 -110q-962 -29 -1873 -1z" />
<glyph unicode="&#x202f;" horiz-adv-x="283" />
<glyph unicode="&#x205f;" horiz-adv-x="354" />
<glyph unicode="&#x25fc;" horiz-adv-x="1000" d="M0 0v1000h1000v-1000h-1000z" />
</font>
</defs>
</svg>
